<?xml version="1.0" encoding="utf-8"?>
<!-- Generator: Adobe Illustrator 19.0.0, SVG Export Plug-In . SVG Version: 6.00 Build 0)  -->
<svg version="1.1" xmlns="http://www.w3.org/2000/svg" xmlns:xlink="http://www.w3.org/1999/xlink" x="0px" y="0px"
	 viewBox="0 0 214.65 195.77" style="enable-background:new 0 0 214.65 195.77;" xml:space="preserve">
<style type="text/css">
	.st0{display:none;}
	.st1{display:inline;opacity:0.5;fill:#C7E0E8;}
	.st2{display:none;opacity:0.5;}
	.st3{fill:#C7E0E8;}
	.st4{display:inline;fill:#74ACC2;}
	.st5{display:inline;opacity:0.5;fill:#74ACC2;}
	.st6{display:inline;fill:#EAAB88;}
	.st7{display:inline;opacity:0.5;fill:#EAAB88;}
	.st8{display:inline;fill:#D8A821;}
	.st9{display:inline;}
	.st10{fill:#C67409;}
	.st11{fill:#EAAB88;}
	.st12{fill:#C8615A;}
	.st13{opacity:0.5;}
	.st14{fill:#FFFFFF;}
	.st15{fill:#3D6480;}
	.st16{opacity:0.5;fill:#73AAC3;}
	.st17{fill:#8E6447;}
	.st18{fill:none;stroke:#000000;stroke-miterlimit:10;}
	.st19{display:inline;fill:#C8615A;}
	.st20{fill:#F4D0B8;}
	.st21{fill:#D8A821;}
	.st22{display:inline;opacity:0.5;fill:#C8615A;}
	.st23{opacity:0.5;fill:#C8615A;}
	.st24{display:inline;fill:#3D6480;}
	.st25{display:inline;opacity:0.5;fill:#73AAC3;}
	.st26{fill:#473430;}
	.st27{fill:#74ACC2;}
	.st28{opacity:0.5;fill:#74ACC2;}
	.st29{display:inline;fill:#8E6447;}
	.st30{fill:#60391E;}
	.st31{opacity:0.2;}
	.st32{display:inline;fill:#C67409;}
	.st33{display:inline;opacity:0.5;fill:#8E6447;}
	.st34{fill:#1D262D;}
</style>
<g id="BACKGROUND" class="st0">
	<rect x="-137.16" y="-66.06" class="st1" width="500" height="500"/>
</g>
<g id="OBJECTS">
	<g class="st2">
		<path class="st3" d="M39.52,353.97c-0.2-0.04-0.4-0.08-0.6-0.12c2.93-8.01,9.99-10.79,18.65-11.23
			c18.3-0.92,35.77,7.22,53.93,9.73c16.91,2.34,34.47-0.34,49.82-7.61c10.31-4.88,19.52-11.72,28.28-18.95
			c27.82-23,51.75-50.52,70.52-81.12c8.03-13.09,15.39-27.06,27.28-36.92c11.89-9.86,29.94-14.54,43.2-6.43
			c8.88,5.43,13.88,15.46,16.13,25.49c2.35,10.5,2.18,21.4,0.88,32.05c-4.84,39.69-25.94,77.36-58.14,101.68
			c-32.2,24.32-75.2,34.71-115.14,26.79c-25.81-5.12-49.82-17.37-75.76-21.72c-12.62-2.12-25.57-2.31-38.24-0.58
			c-4.9,0.67-10.04,1.6-14.68-0.11C41.02,363.22,37.1,358.2,39.52,353.97z"/>
		<path class="st3" d="M-25.66-44.74c-3-0.22-6.13-0.23-8.88,1.02c-2.75,1.25-5.02,4.07-4.8,7.15c0.18,2.58,2.05,4.77,4.27,6.01
			c2.22,1.23,4.76,1.68,7.25,2.1c3.56,0.61,7.12,1.21,10.69,1.82c3.34,0.57,6.77,1.13,10.08,0.41c3.31-0.72,6.51-3.05,7.3-6.42
			C2.62-42.8-19.95-44.31-25.66-44.74z"/>
		<path class="st3" d="M-45.61,353.45c-2.86-8.08-8.57-14.99-15.26-20.37c-7.75-6.24-17.44-10.74-27.19-9.94
			c-7.32,0.6-14.05,4.12-19.86,8.5c-2.84,2.14-5.57,4.57-7.2,7.76c-2.28,4.48-2.08,9.85-1.52,14.92
			c2.16,19.56,16.33,51.16,41.21,43.85C-56.63,392.64-38.21,374.37-45.61,353.45z"/>
		<path class="st3" d="M316.24,3.22c-2.86-8.08-8.57-14.99-15.26-20.37c-7.75-6.24-17.44-10.74-27.19-9.94
			c-7.32,0.6-14.05,4.12-19.86,8.5c-2.84,2.14-5.57,4.57-7.2,7.76c-2.28,4.48-2.08,9.85-1.52,14.92
			c2.16,19.56,16.33,51.16,41.21,43.85C305.22,42.41,323.64,24.14,316.24,3.22z"/>
		<path class="st3" d="M330.9,52.27c-0.46-0.41-0.94-0.81-1.45-1.19c-7.51-5.68-18.9-6.11-27.84-4.24
			c-10.2,2.14-21.76,11.38-22.61,27.86c-0.8,15.56,8.56,27.6,17.69,32.95c8.73,5.11,18.57,6.93,27.26,1.65
			c8.69-5.28,15.77-18.8,15.58-33.72C339.43,66.96,337.47,58.15,330.9,52.27z"/>
		<path class="st3" d="M150.12,137.6c-0.78-0.7-1.59-1.37-2.44-2.01c-12.68-9.59-31.9-10.32-46.99-7.15
			c-17.22,3.62-36.73,19.22-38.16,47.03c-1.35,26.27,14.45,46.58,29.86,55.62c14.73,8.63,31.35,11.69,46.01,2.78
			c14.66-8.92,26.62-31.73,26.3-56.92C164.51,162.41,161.21,147.55,150.12,137.6z"/>
		<ellipse class="st3" cx="-61.02" cy="-38.25" rx="8.73" ry="8.27"/>
		<ellipse class="st3" cx="41.94" cy="198.34" rx="154.23" ry="136.44"/>
	</g>
	<g class="st0">
		<path class="st4" d="M9.01-15.54c-26.75-29.76-72.75-24.51-100.15,1.36c-13.51,12.75-22.1,30.96-24.71,49.28
			c-4.76,33.29,10.4,72.75,43.62,85.22C-35.12,134.25,7.58,109,22.9,74.66c0.37-0.83,0.72-1.66,1.06-2.5
			c8.05-19.98,8.07-43.75-0.06-63.71C20.42-0.1,15.37-8.46,9.01-15.54z"/>
		<path class="st5" d="M2.43-10.2C-21.04-37.3-61.41-32.52-85.46-8.96c-11.86,11.62-19.39,28.2-21.69,44.89
			c-4.17,30.32,9.12,66.27,38.28,77.63c32.56,12.68,70.03-10.32,83.48-41.6c0.32-0.75,0.63-1.51,0.93-2.28
			c7.07-18.2,7.08-39.86-0.05-58.03C12.44,3.86,8.01-3.76,2.43-10.2z"/>
		<path class="st6" d="M-66.69,38.12c0,0-37.24-4.85-39.6,51.35c0,0,5.8,11.63,16.71,20.85L-66.69,38.12"/>
		<path class="st6" d="M-23.45,38.35c0,0,26.64-0.84,47.69,33.1c0,0-6.02,17.56-23.53,32.52L-25.42,40.5L-23.45,38.35z"/>
		<ellipse class="st7" cx="-46.16" cy="80.59" rx="52.46" ry="42.24"/>
		<path class="st8" d="M0.3,104.32c2.42-2.04,1.85-6.85,1.58-9.57c-0.56-5.81-2.08-11.54-3.81-17.09
			c-3.83-12.25-8.41-24.93-16.7-34.95c-10.51-12.69-29.21-12.54-43.3-6.83c-8.53,3.46-16.01,9.35-21.11,17.04
			c-8.5,12.84-10.09,29.28-8.86,44.27c0,0.02,0,0.04,0,0.06c0.36,4.42,1.12,8.8,2.32,13.07c0,0,21.38,19,51.74,12.7
			C-37.83,123.02-19.92,121.35,0.3,104.32z"/>
		<g class="st9">
			<path class="st10" d="M-10.02,56.37c-1-2.04-2.07-4.04-3.23-5.98l-70.94,4.34c-1.23,2.05-2.29,4.18-3.2,6.38L-10.02,56.37z"/>
			<path class="st10" d="M-5.14,68.04C-5.88,66.01-6.65,64-7.48,62l-82,5.02c-0.6,2.06-1.09,4.15-1.49,6.27L-5.14,68.04z"/>
			<path class="st10" d="M0.25,85.46l-92.49,5.66c0.05,2.04,0.17,4.07,0.33,6.08c0,0.02,0,0.04,0,0.06c0,0.01,0,0.02,0,0.03
				l93.38-5.72C1.15,89.52,0.74,87.48,0.25,85.46z"/>
			<path class="st10" d="M-18.56,116.72c3.6-1.77,7.54-4.02,11.67-6.89l-76.82,4.7c2.8,1.74,6.54,3.76,11.05,5.5L-18.56,116.72z"/>
			<path class="st10" d="M-16.98,44.84c-0.54-0.72-1.09-1.43-1.67-2.12c-10.51-12.69-29.21-12.54-43.3-6.83
				c-6.88,2.79-13.08,7.17-17.9,12.8L-16.98,44.84z"/>
			<path class="st10" d="M0.97,103.56c1.13-1.61,1.23-4.07,1.11-6.25l-93.28,5.71c0.34,2.05,0.76,4.09,1.29,6.1L0.97,103.56z"/>
			<path class="st10" d="M-1.3,79.77c-0.21-0.71-0.43-1.41-0.64-2.11c-0.41-1.31-0.83-2.63-1.26-3.95l-88.6,5.42
				c-0.22,2.06-0.36,4.14-0.43,6.21L-1.3,79.77z"/>
		</g>
		<g class="st9">
			<path class="st11" d="M-38.73-14.24c-1.94-0.61-3.99-0.95-6.04-1.02C-55.22-15.61-65.63-8.31-65.86,2.4
				c-0.01,0.57,0.01,1.15,0.05,1.72c0.77,9.24,8.48,17.02,18.05,17.74c13.03,0.99,23-11.67,20.69-23.73
				C-28.24-7.95-32.76-12.36-38.73-14.24z"/>
			<ellipse cx="-55.47" cy="-0.99" rx="0.96" ry="1.37"/>
			<ellipse cx="-43.34" cy="-0.99" rx="0.96" ry="1.37"/>
			<g>
				<g>
					<path class="st11" d="M-49.98-2.9c-0.69,1.93-1.07,4.47-0.05,6.35c0.22,0.41,0.93,0.24,0.9-0.24
						c-0.07-0.94-0.35-1.84-0.39-2.79c-0.04-1.04,0.04-2.11,0.27-3.12C-49.15-3.18-49.82-3.35-49.98-2.9L-49.98-2.9z"/>
				</g>
			</g>
			<g>
				<g>
					<path d="M-53.43,6c1.85,2.33,6.73,2.84,8.06-0.34c0.14-0.33-0.3-0.56-0.56-0.43c-1.19,0.59-2.07,1.43-3.48,1.47
						c-1.31,0.03-2.51-0.56-3.53-1.34C-53.33,5.05-53.69,5.67-53.43,6L-53.43,6z"/>
				</g>
			</g>
			<circle class="st11" cx="-37.93" cy="2.38" r="2.18"/>
			<circle class="st11" cx="-60.18" cy="2.38" r="2.18"/>
			<path class="st12" d="M-28.51,5.91c0.63,0.74,1.84,0.56,2.19-0.35c0.5-1.32,0.63-2.8,0.64-4.23c0.04-7.72-2.85-15.32-7.5-21.49
				c-1.13-1.51-2.39-2.95-3.93-4.03c-1.58-1.11-3.75-1.79-5.41-0.8c-0.82,0.49-1.41,1.37-1.54,2.32c-0.13,0.95,0.19,1.96,0.84,2.66
				c-1.98-1.83-3.25-3.97-5.18-5.84c-1.93-1.88-4.65-3.3-7.26-2.63c-1.18,0.31-2.25,1.05-2.9,2.08s-0.87,2.34-0.52,3.51
				c0.55,1.89,2.35,3.11,4.06,4.08c-1.6-0.26-3.22-0.33-4.84-0.24c-1.62,0.09-3.26,0.56-4.49,1.62c-1.23,1.06-1.97,2.76-1.6,4.34
				c0.16,0.7,0.53,1.34,0.96,1.91c1.35,1.77,3.39,2.93,5.52,3.54C-55.8-6.6-51.7-7.11-48.4-9.02c-0.43,0.55-0.35,1.53-0.02,2.15
				c0.4,0.74,1.17,1.23,1.92,1.56c1.05,0.45,2.2,0.63,3.34,0.55c2.64-0.18,4.94-1.52,6.92-3.16c-0.14,0.17-0.43,0.74-0.49,0.95
				c-0.33,1.26,0.03,2.68,0.92,3.63c0.9,0.95,2.29,1.39,3.57,1.13c0.35-0.07,0.73-0.24,0.82-0.58C-31.65,0.31-30.55,3.53-28.51,5.91
				z"/>
			<path class="st12" d="M-29.86-14.56c0.1-2.65,0.2-5.33,0.93-7.88c0.73-2.55,2.18-4.99,4.42-6.4c1.2-0.76,2.6-1.19,4.02-1.32
				c0.98-0.09,2.01-0.03,2.89,0.4c1.28,0.62,2.12,1.97,2.36,3.38c0.24,1.41-0.07,2.86-0.61,4.18c0.54-1.86,1.56-3.54,2.74-5.08
				c1.81-2.38,4.07-4.5,6.82-5.66c2.76-1.16,6.06-1.24,8.64,0.26c1.69,0.98,2.97,2.57,3.83,4.33c0.7,1.45,1.14,3.03,1.16,4.64
				c0.03,2.76-1.19,5.42-2.92,7.57c-1.73,2.15-3.95,3.85-6.2,5.45c1.84,0.44,3.59,1.41,4.77,2.9c1.18,1.48,1.74,3.5,1.27,5.33
				C3.82-0.69,2.5,0.76,0.94,1.7c-2.38,1.43-5.4,1.78-8.04,0.92c0.81,1.24,1.61,2.69,1.22,4.12C-6.33,8.4-8.2,9.23-9.9,9.59
				c-5.86,1.24-12.28-0.57-16.63-4.69C-27.03-1.72-30.1-7.93-29.86-14.56z"/>
			<circle class="st11" cx="-26.7" cy="5.31" r="4.38"/>
			<g>
				<g>
					<path class="st11" d="M-26.48,2.91c-0.67-0.41-1.25,0.68-1.49,1.16c-0.39,0.79-0.76,1.93-0.46,2.8c0.09,0.28,0.55,0.33,0.62,0
						c0.12-0.58,0.06-1.16,0.21-1.75c0.03-0.12,0.68-1.81,0.84-1.74C-26.44,3.53-26.16,3.1-26.48,2.91L-26.48,2.91z"/>
				</g>
			</g>
			<g>
				<g>
					<path class="st11" d="M-27.7,5.04c0.81,0.46,1.3,1.1,1.68,1.94c0.17,0.39,0.8,0.11,0.68-0.29c-0.29-0.99-1.09-1.82-2.02-2.23
						C-27.75,4.29-28.08,4.82-27.7,5.04L-27.7,5.04z"/>
				</g>
			</g>
			<g class="st13">
				<g>
					<path class="st12" d="M-25.94-5.57c6.78-6.87,14.48-12.47,23.3-16.42c0.76-0.34,0.1-1.46-0.65-1.12
						c-8.8,3.97-16.86,9.67-23.27,16.92C-26.93-5.77-26.34-5.17-25.94-5.57L-25.94-5.57z"/>
				</g>
			</g>
			<g class="st13">
				<g>
					<path class="st12" d="M-24.84-3.64c4.95-3.01,10.2-5.11,15.68-6.93c0.87-0.29,0.51-1.63-0.38-1.38
						c-5.62,1.59-10.91,4.29-15.83,7.41C-25.92-4.18-25.41-3.29-24.84-3.64L-24.84-3.64z"/>
				</g>
			</g>
			<g class="st13">
				<g>
					<path class="st12" d="M-25.05-1.17c4.79-0.9,9.58-1.22,14.42-1.64c0.87-0.08,0.9-1.4,0-1.38C-15.55-4.06-20.5-3.13-25.3-2.1
						C-25.91-1.97-25.65-1.06-25.05-1.17L-25.05-1.17z"/>
				</g>
			</g>
			<g class="st13">
				<g>
					<path class="st12" d="M-25.45-8.96c0.76-2.1,1.73-4.09,2.98-5.94c1.14-1.7,2.64-3.06,3.84-4.7c0.35-0.48-0.33-1.12-0.81-0.81
						c-3.57,2.38-5.87,7.18-7.1,11.15C-26.75-8.56-25.69-8.28-25.45-8.96L-25.45-8.96z"/>
				</g>
			</g>
			<path class="st11" d="M-54.15,20.24c0,0,2.5,7.28-0.61,13.33c0,0-7.18,1.66-9.87,3.5c0,0,19.2,14.22,37.1-1.42
				c0,0-3.57-1.99-8.55-2.98c0,0-2.54-7.05-0.19-13.73L-54.15,20.24z"/>
			<path class="st11" d="M-52.57,20.86c0,0,9.94,3.14,16.29-1.93c0,0-1.18,2.75-0.96,7.63C-37.23,26.57-47.43,26.97-52.57,20.86z"/>
			<circle class="st14" cx="-55.11" cy="33.8" r="1.28"/>
			<circle class="st14" cx="-52.48" cy="34.04" r="1.28"/>
			<circle class="st14" cx="-49.92" cy="34.04" r="1.28"/>
			<circle class="st14" cx="-47.36" cy="33.94" r="1.28"/>
			<circle class="st14" cx="-44.8" cy="33.94" r="1.28"/>
			<circle class="st14" cx="-42.24" cy="34.04" r="1.28"/>
			<circle class="st14" cx="-39.77" cy="33.73" r="1.28"/>
			<circle class="st14" cx="-37.38" cy="33.45" r="1.28"/>
			<circle class="st14" cx="-34.82" cy="33.15" r="1.28"/>
		</g>
	</g>
	<g>
		<path class="st3" d="M184.04,18.88c-1.63-1.21-3.34-2.38-5.13-3.5C152.29-1.31,111.94-2.58,80.27,2.93
			C44.11,9.23,3.16,36.38,0.17,84.79c-2.83,45.71,30.34,81.08,62.69,96.8c30.92,15.02,65.8,20.35,96.58,4.83
			c30.78-15.52,55.88-55.23,55.2-99.07C214.24,62.06,207.31,36.18,184.04,18.88z"/>
		<path class="st15" d="M126.41,45.35c-14.23-0.69-28.72,2.2-41.38,8.23c-12.66,6.03-22.27,17.09-28.74,29.33
			c-8.72,16.49-12.95,36.24-7.97,54.54c5,18.35,17.95,32.87,35.14,40.7c27.76,12.63,63.67,10.54,89.44-6.11
			c3.88-2.51,7.5-5.44,10.65-8.81c20.81-22.24,18.31-57.79,3.4-82.46c-4.89-8.09-11.29-15.25-18.88-20.89
			C155.97,50.88,141.42,46.07,126.41,45.35z"/>
		<path class="st16" d="M125.3,54.71c-12.38-0.6-24.97,1.91-35.98,7.16c-11.01,5.25-19.36,14.86-24.99,25.5
			c-7.58,14.33-11.26,31.51-6.93,47.42c4.35,15.95,15.6,28.58,30.56,35.39c24.13,10.98,55.36,9.16,77.76-5.31
			c3.37-2.18,6.52-4.73,9.26-7.66c18.09-19.34,15.92-50.25,2.95-71.69c-4.25-7.04-9.81-13.26-16.42-18.17
			C151,59.52,138.34,55.34,125.3,54.71z"/>
		<g>
			<path class="st3" d="M153.02,181.45c1.85-24.74,0.52-58.36-5.78-74.2c-0.49-1.22-1.16-2.92-2.27-3.43
				c-11.82-5.42-25.13-4.83-37.84-3.15c-7.69,1.01-15.81,2.03-22.89,5.5c-2.25,13.65-2.23,27.62-2.07,41.5
				c0.11,9.63,2.2,30.89,2.2,30.89c0.25,0.16,1.57,0.67,1.84,0.79C100.83,185.39,124.14,190.39,153.02,181.45z"/>
			<g>
				<g>
					<path class="st3" d="M97.26,105.79c0.07,9.03,4.53,18.91,15.12,17.76c9.7-1.05,13.99-11.73,15.36-20.04
						c0.11-0.66-0.9-0.94-1.01-0.28c-1.26,7.69-4.78,17.29-13.41,19.13c-4.41,0.94-9.33-0.77-11.91-4.5
						c-2.47-3.58-2.93-7.97-3.64-12.14C97.72,105.43,97.25,105.5,97.26,105.79L97.26,105.79z"/>
				</g>
			</g>
		</g>
		<g>
			<path class="st11" d="M123.23,91.73c-0.68,2.63-0.16,5.12-0.02,7.83c0.2,3.78-0.38,7.69-2.23,11c-1.85,3.31-5.1,5.94-8.85,6.49
				c-3.75,0.55-7.88-1.27-9.54-4.68c-1.62-3.35-1.88-7.69-0.49-11.13c0.93-2.3,0.89-4.98-0.11-7.25c3.18,1.78,7.17,2.29,10.76,1.62
				C116.34,94.94,120.33,93.94,123.23,91.73z"/>
			<path class="st11" d="M101.99,93.98c0,0,9.71,4.68,21.24-2.25c0,0-0.72,1.56-0.06,7.2C123.17,98.93,110.01,100.35,101.99,93.98z"
				/>
		</g>
		<g>
			<path class="st11" d="M53.75,102.68c0,0-17.59-57.59,0-96.02c0.97-2.12,2.13-3.96,3.64-5.73c0.69-0.81,1.93-1.49,2.66-0.27
				c0.33,0.57,0.34,1.26,0.33,1.92c0,0.38-0.01,0.76-0.01,1.14c0.01-0.7,0.75-1.76,1.19-2.26c1.01-1.15,2.61-0.94,3.05,0.62
				c0.21,0.77-0.02,1.54,0,2.26c-0.02-0.67,1.42-1.97,1.93-2.29c0.9-0.56,2.05-0.54,2.82,0.24c0.82,0.83,0.71,1.98,0.52,3.04
				c-0.14,0.77-0.32,1.53-0.54,2.29c0,0-14.77,48.78,3.44,80.65L53.75,102.68z"/>
			<g>
				<path class="st3" d="M84.28,105.74c-5.58-4.39-7.03-12.65-8.85-19.51c-6.93,3.81-17.97,11.59-23.51,17.23
					c-0.09,15.42,8.77,29.83,20.41,39.94c3.26,2.83,6.97,5.32,11.18,6.31C83.13,135.38,83.25,120.04,84.28,105.74z"/>
				<path class="st3" d="M84.28,105.74l-9.32,39.77c0,0,5.11,4.41,9.32,4.19V105.74z"/>
			</g>
		</g>
		<path class="st3" d="M146.22,113.28c0,0,3.18,67.41-49.21,67.73c0,0,20.73,11.3,56.01,0.44
			C153.02,181.45,152.87,130.05,146.22,113.28z"/>
		<g>
			<path class="st11" d="M127.04,58.43c-0.14-0.31-0.3-0.61-0.46-0.91c-1.92-3.62-5.26-5.97-9.27-6.78
				c-3.27-0.66-6.66-0.33-9.92,0.33c-5.07,1.03-10.28,3.11-13.24,7.36c-1.94,2.79-2.7,6.23-3,9.61c-0.33,3.78-0.08,7.45,0.65,11.15
				c0.71,3.57,1.72,6.68,4.31,9.38c3,3.12,7.46,4.71,11.73,4.85c4.87,0.17,10.06-1.36,14.01-4.23c1.09-0.79,2.11-1.69,2.94-2.75
				c1.41-1.79,2.22-3.95,2.83-6.12C129.58,73.29,130.22,65.2,127.04,58.43z"/>
			<ellipse cx="102.23" cy="66.3" rx="1.07" ry="1.54"/>
			<ellipse cx="115.84" cy="66.3" rx="1.07" ry="1.54"/>
			<g>
				<g>
					<path class="st11" d="M108.55,64.2c-0.73,2.21-0.97,4.78-0.03,6.97c0.15,0.36,0.64,0.08,0.59-0.25
						c-0.37-2.29-0.65-4.29-0.07-6.59C109.11,64.02,108.65,63.9,108.55,64.2L108.55,64.2z"/>
				</g>
			</g>
			<circle class="st11" cx="121.9" cy="70.09" r="2.45"/>
			<circle class="st11" cx="96.95" cy="70.09" r="2.45"/>
			<path class="st17" d="M104.29,73.37c4.97-0.91,10.19-0.57,15.02,0.62c2.02,0.5,4.07,1.36,5.69,2.71c2.54,2.12,3.5,5.69,2.69,8.93
				c-1.69,6.73-9.45,9.48-15.38,10.19c-4.4,0.53-9-0.17-12.8-2.57c-3.39-2.14-5.94-5.89-6.95-9.85c-1.23-4.82,3.02-7.22,6.72-8.64
				C100.89,74.14,102.58,73.68,104.29,73.37z"/>
			<circle class="st18" cx="101.33" cy="65.06" r="6.03"/>
			<circle class="st18" cx="115.84" cy="65.06" r="6.03"/>
			<g>
				<g>
					<path d="M106.54,61.73c1.48-0.26,2.69-0.65,4.16-0.01c0.96,0.42,1.55-0.97,0.56-1.32c-1.53-0.55-3.77-0.75-5.15,0.31
						C105.62,61.09,105.89,61.85,106.54,61.73L106.54,61.73z"/>
				</g>
			</g>
			<path class="st17" d="M129.42,70.4c1.58-5.34,2.31-10.93,2.14-16.5c-0.08-2.61-0.38-5.31-1.7-7.56c-1.22-2.08-4.3-5.31-6.63-5.92
				c-2.73-0.72-4.6,1.5-7.42,1.3c-4.35-0.31-8.4-2.46-11.79-5.2c-1.04,1.21-1.49,2.91-1.17,4.48c0.32,1.56,1.4,2.96,2.83,3.66
				c-2.32,0.04-4.6-0.75-6.24-2.38c-0.54-0.54-1.02-1.15-1.69-1.51c-1.12,2.83-0.18,6.34,2.21,8.23
				c-3.67,0.07-11.18-5.18-12.04-5.59c-0.21,0.9-2.11,6.98-1.39,9.89c0.68,2.75,3.43,5.93,6.15,6.72c-1.95,0.39-3.72,0.7-5.7,0.61
				c1.95,2.05,4.97,2.7,7.79,2.75c2.04,0.04,4.13-0.18,5.99-1.01c2.63-1.16,4.62-3.41,6.35-5.7c0.23,0.95-0.32,2.08-1.23,2.46
				c1.64,0.45,3.32,0.9,5.02,0.78c2.24-0.16,4.39-1.36,5.69-3.2c-0.27,0.81-0.57,1.59-1.27,2.07c0.88,0.31,1.8,0.62,2.73,0.51
				c1.2-0.14,2.2-0.96,3.01-1.85c0.09,2.33,0.64,4.72,1.38,6.93c0.42,1.25,0.9,2.48,1.63,3.58c0.72,1.1,1.7,2.06,2.91,2.58
				C127.88,70.92,128.7,71.04,129.42,70.4z"/>
			<circle class="st11" cx="130.45" cy="71.04" r="3.2"/>
			<g>
				<g>
					<path class="st11" d="M131.04,69.67c0-0.01,0-0.02,0-0.03c-0.01-0.16-0.16-0.29-0.32-0.24c-0.56,0.18-0.89,0.9-1.12,1.39
						c-0.29,0.6-0.6,1.37-0.53,2.04c0.04,0.32,0.46,0.4,0.57,0.08c0.26-0.73,0.32-1.46,0.69-2.17c0.15-0.29,0.33-0.58,0.53-0.84
						C130.92,69.83,131.05,69.78,131.04,69.67L131.04,69.67z"/>
				</g>
			</g>
			<g>
				<g>
					<path class="st11" d="M130,71c0.32,0.53,0.53,1.03,0.72,1.62c0.09,0.26,0.54,0.24,0.51-0.07c-0.07-0.66-0.41-1.35-0.9-1.8
						C130.16,70.59,129.87,70.79,130,71L130,71z"/>
				</g>
			</g>
			<g class="st13">
				<g>
					<path class="st17" d="M129.8,65.6c-0.1-3.93-0.25-8.31-2.05-11.9c-1.64-3.28-4.75-5.73-7.97-7.35c-0.2-0.1-0.36,0.17-0.18,0.3
						c2.95,2.08,5.99,3.98,7.65,7.34c1.74,3.54,1.78,7.75,2.09,11.6C129.36,65.89,129.81,65.9,129.8,65.6L129.8,65.6z"/>
				</g>
			</g>
			<g class="st13">
				<g>
					<path class="st17" d="M118.04,49.4c5.62,4.18,8.71,9.71,10.38,16.42c0.05,0.21,0.41,0.17,0.38-0.05
						c-0.71-6.72-5.07-12.96-10.62-16.61C118.03,49.06,117.9,49.29,118.04,49.4L118.04,49.4z"/>
				</g>
			</g>
			<g class="st13">
				<g>
					<path class="st17" d="M122.38,59.03c2.45,2.52,3.86,5.19,5.22,8.39c0.11,0.25,0.46,0.06,0.41-0.17
						c-0.63-3.26-2.85-6.39-5.39-8.46C122.46,58.64,122.22,58.87,122.38,59.03L122.38,59.03z"/>
				</g>
			</g>
			<g class="st13">
				<g>
					<path class="st17" d="M98.06,76.54c-1.2,2.28-1.51,4.68-1.19,7.22c0.32,2.51,0.93,6.02,2.72,7.95
						c0.12,0.13,0.31-0.04,0.24-0.18c-2.14-4.4-3.65-10.17-1.43-14.79C98.51,76.51,98.18,76.31,98.06,76.54L98.06,76.54z"/>
				</g>
			</g>
			<g class="st13">
				<g>
					<path class="st17" d="M101.28,77.86c-0.71,5.01-0.33,12.35,2.45,16.75c0.07,0.11,0.26,0.04,0.21-0.09
						c-1.8-5.34-2.74-10.95-2.33-16.62C101.62,77.72,101.31,77.68,101.28,77.86L101.28,77.86z"/>
				</g>
			</g>
			<g class="st13">
				<g>
					<path class="st17" d="M107.73,79.03c0.95,5.48,2.21,10.95,1.93,16.55c-0.01,0.19,0.31,0.24,0.34,0.05
						c0.96-5.34-0.63-11.52-1.95-16.68C108,78.72,107.69,78.81,107.73,79.03L107.73,79.03z"/>
				</g>
			</g>
			<g class="st13">
				<g>
					<path class="st17" d="M114.03,77.83c2.14,5.54,2.31,10.88,2.27,16.75c0,0.23,0.33,0.22,0.35,0c0.66-5.64,0.29-11.75-2.29-16.89
						C114.27,77.51,113.95,77.64,114.03,77.83L114.03,77.83z"/>
				</g>
			</g>
			<g class="st13">
				<g>
					<path class="st17" d="M120.54,77.57c1.87,4.45,2.35,8.92,1.6,13.68c-0.04,0.26,0.35,0.38,0.41,0.11
						c1.06-4.71,0.39-9.59-1.78-13.89C120.7,77.35,120.48,77.44,120.54,77.57L120.54,77.57z"/>
				</g>
			</g>
			<g>
				<g>
					<path d="M104.7,73.96c2.24,2.46,6.62,2.73,8.62-0.22c0.13-0.19-0.14-0.35-0.3-0.23c-2.57,2-5.42,2.46-8.03,0.16
						C104.79,73.5,104.52,73.76,104.7,73.96L104.7,73.96z"/>
				</g>
			</g>
		</g>
		<path class="st3" d="M144.11,103.1c3.61-0.54,7.3,0.41,10.61,1.95c7.94,3.71,13.96,10.82,17.63,18.78
			c3.67,7.96,5.17,16.76,5.82,25.5c-9.32,0.16-18.41,0.14-27.73,0.31c-1.13-10.97-2.5-21.8-3.63-32.77
			c-0.24-2.38-0.49-4.77-1.01-7.1C145.34,107.66,144.8,105.15,144.11,103.1z"/>
		<path class="st11" d="M172.84,149.27c0.08,4.04-0.34,8.09-1.24,12.02c-1.06,4.66-2.82,9.21-5.58,13.12
			c-6.84,9.7-19.43,14.41-31.26,13.46c-10.09-0.8-20.08-5.61-25.96-13.86c-2.98-4.18-4.83-9.05-6.42-13.93
			c-1.86-5.7-3.43-11.5-4.69-17.37c-0.7-3.28-1.31-6.6-1.4-9.95c-0.02-0.85,0.01-1.77,0.5-2.46c0.49-0.7,1.6-1.01,2.21-0.41
			c-0.8-0.52-0.36-1.94,0.56-2.19c0.92-0.25,1.88,0.36,2.4,1.16c-0.79-0.78,0.09-2.27,1.19-2.38c1.1-0.11,2.1,0.64,2.88,1.43
			c2.43,2.48,3.92,5.72,5.18,8.95c2.6,6.67,4.51,13.75,8.7,19.55c3.06,4.23,7.36,7.66,12.37,9.17s10.7,0.95,15.04-1.96
			c4.34-2.91,6.75-8.85,6.05-14.02L172.84,149.27z"/>
	</g>
	<g class="st0">
		<path class="st4" d="M281.25-27.1c-8.35-2.04-17.02-2.42-25.56-0.62c-34.68,7.3-48.03,42.32-51.1,74.02
			c-1.77,18.25-0.02,37.16,6.88,54.25c4.11,10.19,10.09,19.61,17.82,27.44c2.58,2.62,5.35,5.05,8.27,7.29
			c17.17,13.16,39.37,17.92,60.08,10.9c32.21-10.92,45.55-49.7,46.38-80.7c0.71-26.48-8.05-53.4-27.09-72.28
			c-8.4-8.33-18.59-14.74-29.79-18.57C285.2-26.04,283.23-26.62,281.25-27.1z"/>
		<path class="st5" d="M280.35-17.68c-7.32-1.82-14.91-2.16-22.4-0.56c-30.39,6.51-42.08,37.76-44.78,66.04
			c-1.55,16.28-0.02,33.15,6.03,48.4c3.6,9.09,8.84,17.5,15.62,24.48c2.26,2.33,4.69,4.51,7.25,6.5
			c15.05,11.74,34.5,15.98,52.64,9.72c28.22-9.74,39.91-44.34,40.64-71.99c0.62-23.62-7.06-47.64-23.74-64.48
			c-7.36-7.43-16.29-13.15-26.1-16.57C283.81-16.73,282.09-17.25,280.35-17.68z"/>
		<path class="st19" d="M214.33,107.17c-0.3-0.4,0.17-0.69,0.22-1.24c0.13-1.3,0.27-2.6,0.4-3.9c0.27-2.6,0.54-5.2,0.81-7.79
			c0.53-5.09,1.05-10.18,1.58-15.26c0.45-4.31,1.73-21.07,2.48-25.08c1.07-5.71,3.92-10.36,8.33-14.13
			c5.15-4.41,11.85-6.48,18.41-7.7c13.86-2.59,27.99-3.37,41.95-0.97c7.7,1.32,14.63,3.95,20.1,9.72
			c6.99,7.37,8.33,16.02,8.66,19.19c0,24.24,0.08,49.67,0.08,73.92c-2.88,2.88-7.4,6.8-13.7,10.08c-15.85,8.27-31.2,6.38-36.78,5.62
			C230.96,144.73,216.4,109.93,214.33,107.17z"/>
		<g class="st9">
			<g>
				<path class="st20" d="M277.59-8.69c-1.96-2.46-4.51-4.5-7.59-5.84c-11.63-5.07-24.89,2.78-28.11,14.58
					c-2.31,8.46,1.13,17.67,8.53,22.43c4.09,2.63,9.15,3.72,13.96,3c7.12-1.06,13.51-6.1,16.21-12.78
					C283.52,5.44,282.23-2.84,277.59-8.69z"/>
				<ellipse transform="matrix(0.9946 -0.1039 0.1039 0.9946 0.8468 26.2893)" cx="252.78" cy="5.02" rx="0.96" ry="1.37"/>
				<ellipse transform="matrix(0.9946 -0.1039 0.1039 0.9946 1.0431 27.5362)" cx="264.84" cy="3.75" rx="0.96" ry="1.37"/>
				<g>
					<g>
						<path class="st11" d="M258.17,2.54c-0.45,1.99-0.49,4.4,0.59,6.21c0.19,0.31,0.67,0.11,0.59-0.25
							c-0.49-1.99-0.99-3.74-0.69-5.83C258.69,2.36,258.24,2.22,258.17,2.54L258.17,2.54z"/>
					</g>
				</g>
				<g>
					<g>
						<path d="M255.5,11.73c1.99,2.04,7.11,2.26,8.01-1.11c0.08-0.31-0.27-0.6-0.56-0.43c-0.98,0.59-1.67,1.43-2.83,1.73
							c-1.46,0.39-2.88-0.07-4.13-0.84C255.59,10.84,255.18,11.39,255.5,11.73L255.5,11.73z"/>
					</g>
				</g>
				<circle class="st11" cx="270.57" cy="6.55" r="2.18"/>
				<circle class="st11" cx="248.44" cy="8.86" r="2.18"/>
				<path class="st21" d="M246.76-15.12c-0.8,0.54-1.56,1.12-2.27,1.73c-2.4,2.08-4.23,4.9-7.1,6.38c-0.86,0.44-3.57,1.68-4.52,1
					c1.25,0.9,2.94,1.14,4.39,0.62c-1.23,1.25-3.01,1.96-4.77,1.89c1.48,1.79,5.76,3.64,7.93,1.87c-2.31,1.89-5.25,3.57-8.15,2.84
					c1,0.25,2.29,1.83,3.27,2.36c3.29,1.76,7.09,1.58,10.45,0.14c1.69-0.72,3.23-1.73,4.65-2.9c1.09-0.9,3.32-2.41,3.64-3.86
					c-0.49,2.2-1.77,4.22-3.56,5.58c1.01,0.23,2.08,0.06,3.07-0.24c3.74-1.13,6.72-4.11,8.52-7.58c1.5-2.9,2.4-6.12,2.77-9.35
					c0.62-5.42-7.09-5.03-10.5-4.09C251.88-17.98,249.15-16.73,246.76-15.12z"/>
				<path class="st21" d="M281.9,6.07c1.55-0.97,1.56-3.05,1.37-4.66c-0.51-4.37-1.93-8.64-4.58-12.2
					c-2.79-3.75-6.79-6.78-11.36-7.87c-0.08-0.02-0.16-0.04-0.24-0.06c-2.04-0.46-4.18-0.6-6.26-0.35
					c-0.77,0.09,2.29,9.16,2.59,9.98c2.51,7.04,8.19,15.33,16.5,15.59c0.21,0.01,0.42,0,0.62-0.02
					C281.11,6.44,281.55,6.29,281.9,6.07z"/>
				<path class="st21" d="M297.24-3.19c0.49,1.7-0.43,3.7-2.04,4.44c1.5,0.09,3-0.36,4.33-1.05c1.34-0.69,2.54-1.62,3.73-2.54
					c-1.08,3.39-2.32,6.99-5.16,9.14c-1.64,1.24-3.69,1.86-5.74,1.94c2.37,1.19,5.24,0.58,7.74-0.3c-1.16,1.82-2.59,3.47-4.22,4.87
					c-0.97,0.84-2.04,1.6-3.25,2c-1.14,0.38-2.37,0.42-3.57,0.34c-2.78-0.17-5.72-1.1-7.36-3.36c-0.96-1.32-1.37-2.97-1.51-4.6
					c-0.11-1.25-0.07-2.54,0.31-3.74c0.32-1.03,0.98-2.29,1.94-2.85c0.77-0.45,1.82-0.3,2.68-0.35c2.76-0.18,5.49-0.8,8.06-1.85
					C293.57-1.26,297.33-2.86,297.24-3.19z"/>
				<g class="st13">
					<g>
						<path class="st21" d="M266.91-10.86c2,5.36,4.62,12,9.98,14.86c0.35,0.19,0.77-0.29,0.44-0.58c-2.26-1.99-4.26-3.93-5.85-6.53
							c-1.55-2.54-2.73-5.31-3.97-8.01C267.36-11.45,266.78-11.21,266.91-10.86L266.91-10.86z"/>
					</g>
				</g>
				<g class="st13">
					<g>
						<path class="st21" d="M268.31-12.96c3.17,1.34,5.38,5.21,7.07,8.08c1.6,2.73,2.36,5.9,3.96,8.58c0.1,0.16,0.38,0.1,0.37-0.1
							c-0.18-3.37-2.48-7.18-4.24-9.97c-1.7-2.7-3.83-6-6.92-7.15C268.23-13.64,267.99-13.1,268.31-12.96L268.31-12.96z"/>
					</g>
				</g>
				<g class="st13">
					<g>
						<path class="st21" d="M273.65-12.65c4.06,3.29,5.09,8.04,6.29,12.86c0.08,0.31,0.62,0.26,0.58-0.08
							c-0.64-4.99-2.16-10.27-6.56-13.18C273.72-13.21,273.43-12.84,273.65-12.65L273.65-12.65z"/>
					</g>
				</g>
				<g class="st13">
					<g>
						<path class="st21" d="M284.16,4.66c1.7,0.21,3.4,0.12,5.08-0.2c1.36-0.26,3.14-0.51,4.05-1.63c0.16-0.2,0.02-0.56-0.27-0.46
							c-3.01,0.97-5.66,1.61-8.86,1.71C283.78,4.1,283.8,4.62,284.16,4.66L284.16,4.66z"/>
					</g>
				</g>
				<g class="st13">
					<g>
						<path class="st21" d="M283.34,6.51c2.42,1.25,5.89,1.83,8.39,0.48c0.23-0.13,0.14-0.54-0.14-0.52
							c-1.28,0.11-2.52,0.44-3.82,0.39c-1.46-0.06-2.84-0.42-4.19-0.93C283.25,5.81,283.03,6.35,283.34,6.51L283.34,6.51z"/>
					</g>
				</g>
				<g class="st13">
					<g>
						<path class="st21" d="M282.48,8c0.99,3.53,6.96,5.23,10.16,4.51c0.27-0.06,0.3-0.53,0-0.57c-1.59-0.22-3.17-0.26-4.72-0.75
							c-1.65-0.52-4.23-1.6-4.93-3.33C282.86,7.56,282.38,7.67,282.48,8L282.48,8z"/>
					</g>
				</g>
				<g class="st13">
					<g>
						<path class="st21" d="M258.16-17.71c-5.68,0.64-12.61,4.71-14.53,10.39c-0.07,0.21,0.23,0.39,0.38,0.22
							c2.01-2.24,3.63-4.61,6.12-6.39c2.45-1.75,5.22-2.83,8.11-3.62C258.56-17.2,258.51-17.75,258.16-17.71L258.16-17.71z"/>
					</g>
				</g>
				<g class="st13">
					<g>
						<path class="st21" d="M259.41-16.19c-2.09,2.55-4.18,5.12-6.55,7.41c-2.58,2.49-5.46,4.3-8.48,6.18
							c-0.32,0.2-0.12,0.78,0.27,0.64c6.36-2.41,11.55-8.35,15.27-13.83C260.12-16.1,259.64-16.48,259.41-16.19L259.41-16.19z"/>
					</g>
				</g>
				<g class="st13">
					<g>
						<path class="st21" d="M260.07-14.42c-1.45,3.62-3.14,6.43-6.49,8.55c-0.28,0.17-0.1,0.67,0.23,0.55
							c3.78-1.3,5.89-5.31,6.85-8.94C260.77-14.65,260.21-14.78,260.07-14.42L260.07-14.42z"/>
					</g>
				</g>
				<g class="st13">
					<g>
						<path class="st21" d="M256.43-15.8c-1.4,1.27-2.76,2.57-4.24,3.76c-1.43,1.16-3.2,2.1-4.46,3.45c-0.17,0.18,0,0.53,0.26,0.44
							c1.62-0.55,3.04-1.82,4.36-2.89c1.62-1.31,3.16-2.74,4.5-4.34C257.1-15.66,256.72-16.06,256.43-15.8L256.43-15.8z"/>
					</g>
				</g>
				<circle class="st20" cx="280.99" cy="6.47" r="3.26"/>
				<g>
					<g>
						<path class="st11" d="M281.55,4.44C280,4.8,279.07,6.43,279,7.94c-0.01,0.29,0.42,0.34,0.49,0.07
							c0.38-1.33,0.74-2.63,2.16-3.18C281.89,4.73,281.81,4.38,281.55,4.44L281.55,4.44z"/>
					</g>
				</g>
				<g>
					<g>
						<path class="st11" d="M280.24,5.67c0.05,0.43,0.33,0.81,0.44,1.24c0.09,0.37,0.01,0.85,0.3,1.13c0.06,0.05,0.15,0.05,0.2,0
							c0.32-0.31,0.13-0.89,0.02-1.28c-0.13-0.44-0.3-1-0.71-1.24C280.39,5.47,280.23,5.54,280.24,5.67L280.24,5.67z"/>
					</g>
				</g>
			</g>
			<path class="st20" d="M257.05,25.22c0.54,0.78,1.34,2.14,1.65,3.99c0.36,2.14-0.07,3.97-0.55,5.22
				c-0.59,1.54-0.49,3.26,0.25,4.74c0.25,0.51,0.57,1.03,0.98,1.54c2.58,3.26,6.49,3.51,7.14,3.54c0.59,0,7-0.06,10.68-5.36
				c2.58-3.73,2.2-7.71,2.06-8.77c-0.69-0.9-1.49-2.15-2.12-3.74c-1.13-2.84-1.16-5.4-1.06-6.91
				C269.73,21.39,263.39,23.3,257.05,25.22z"/>
			<path class="st11" d="M257.31,25.36c0,0,8.42,2.63,16.69-4.05l-15.98,13.52C258.01,34.83,260.11,29.93,257.31,25.36z"/>
		</g>
		<path class="st22" d="M245.95,142.58c0,0-13.43-54.4-12.77-86.55c0,0,12.26,76.3,29.95,92.96
			C263.13,148.99,256.03,148.02,245.95,142.58z"/>
		<g class="st9">
			<path class="st23" d="M293.48,39.37c-0.36-0.56-2.08,61.44-27.69,110.09c0,0,16.56,3.15,29.52-2.56
				C295.31,146.91,309.68,64.58,293.48,39.37z"/>
			<path class="st20" d="M289.33,112.42c-0.54,3.64-3.39,6.49-6.4,8.6c-7.43,5.2-16.94,7.48-25.86,5.83
				c-8.92-1.65-17.1-7.31-21.47-15.26c-0.67-1.23-1.98-2.73-3.14-1.95c-0.99,0.66-0.54,2.19,0.01,3.24
				c-0.51-1.17-2.01-1.86-3.16-1.32c-1.15,0.54-1.51,2.34-0.55,3.17c-0.82-0.71-2.05-0.45-2.61,0.47c-0.98,1.6,0.24,4.03,0.87,5.55
				c0.6,1.45,1.3,2.86,2.07,4.23c1.56,2.74,3.44,5.3,5.57,7.63c4.04,4.43,8.94,8.07,14.3,10.73c10.29,5.12,22.61,5.98,33.52,2.36
				c14.27-4.75,25.35-16.69,31.8-30.27L289.33,112.42z"/>
			<path class="st12" d="M292.5,31.86c1.74,11.26,2.91,26.91,0.35,45.2c-1.93,13.83-5.47,25.44-8.93,34.39
				c11.26,1.47,22.51,2.95,33.77,4.42l0.98-55.62C318.68,60.26,316.66,35.64,292.5,31.86z"/>
		</g>
	</g>
	<g class="st0">
		<path class="st24" d="M56.37,193.18c-20.94-13.47-47.52-19.68-71.22-21.24c-19.74-1.3-39.88,0.98-58.51,7.79
			c-22.28,8.15-39.81,25.89-44.29,49.69c-6.9,36.71,20.85,69.07,52.57,83.3c36.41,16.33,80.62,17.42,117.4,1.73
			c18.01-7.68,32.11-23.21,37.75-41.99c5.42-18.04,2.23-37.39-7.59-53.32C75.89,208.46,66.84,199.92,56.37,193.18z"/>
		<path class="st25" d="M50.05,198.24c-19.03-12.24-43.19-17.88-64.73-19.3c-17.95-1.18-36.24,0.89-53.18,7.08
			c-20.25,7.4-36.18,23.53-40.25,45.16c-6.27,33.37,18.95,62.78,47.78,75.71c33.09,14.85,73.27,15.83,106.7,1.57
			c16.37-6.98,29.18-21.1,34.31-38.17c4.92-16.4,2.03-33.98-6.9-48.46C67.79,212.12,59.56,204.35,50.05,198.24z"/>
		<g class="st9">
			<path class="st11" d="M20.6,226.18c0,0,34.94,3.55,39.22,83.82c0,0-9.73,6.24-17.65,7.86L20.6,226.18z"/>
			<path class="st20" d="M29.51,238.05c0,0,21.06,12.33,21.89,76.29l-9.23,3.53C42.17,317.86,43.8,259.75,29.51,238.05z"/>
		</g>
		<g class="st9">
			<path class="st17" d="M-12.58,177.55c-5.21-0.35-10.62,1.16-14.72,4.22c-4.7,3.51-6.86,9.27-6.17,15.07
				c1.4,11.7,14.43,19.86,25.67,17.19c11.29-2.69,15.23-16.95,10.54-26.62c-0.84-1.74-1.97-3.33-3.34-4.7
				C-3.81,179.51-8.12,177.85-12.58,177.55z"/>
			<ellipse transform="matrix(-0.8501 0.5266 -0.5266 -0.8501 87.7523 349.4612)" cx="-5.86" cy="187.22" rx="0.96" ry="1.37"/>
			<ellipse transform="matrix(-0.8501 0.5266 -0.5266 -0.8501 72.0342 366.7156)" cx="-16.18" cy="193.61" rx="0.96" ry="1.37"/>
			<g>
				<g>
					<path class="st17" d="M-12.14,189.11c0.69,0.73,1.29,1.59,1.78,2.46c0.46,0.82,0.62,1.89,1.18,2.62
						c0.4,0.52,1.11,0.33,1.19-0.32c0.12-1.02-0.66-2.34-1.21-3.16c-0.64-0.96-1.42-1.69-2.34-2.38
						C-12.01,187.98-12.52,188.72-12.14,189.11L-12.14,189.11z"/>
				</g>
			</g>
			<g>
				<g>
					<path d="M-4.71,194.03c-0.43,1.17-1.15,2.27-2.25,2.91c-1.23,0.71-2.41,0.44-3.73,0.59c-0.39,0.04-0.5,0.47-0.19,0.71
						c1.31,0.99,3.42,0.47,4.69-0.36c1.33-0.87,2.12-2.17,2.29-3.74C-3.85,193.65-4.56,193.63-4.71,194.03L-4.71,194.03z"/>
				</g>
			</g>
			<circle class="st17" cx="-19" cy="199.33" r="2.18"/>
			<circle class="st17" cx="-0.08" cy="187.61" r="2.18"/>
			<path class="st26" d="M-27.34,208.87c-5.88-2.26-10.2-8.12-10.62-14.41c-0.17-2.58,0.26-5.16,0.21-7.74
				c-0.05-2.58-0.66-5.32-2.52-7.11c1.94-0.15,3.92,0.97,4.79,2.72c0.89-2.64,0.3-5.59-0.96-8.07c-1.26-2.48-3.15-4.58-5.02-6.64
				c4.92,0.1,9.7,2.87,12.24,7.09c1.59-3.72,1.42-8.04-0.54-11.58c1.8,0.27,3.61,0.6,5.28,1.31c1.68,0.71,3.23,1.83,4.16,3.39
				c0.71,1.18,1.03,2.55,1.34,3.9c0.83-3.2,0.61-6.67-0.64-9.73c1.9,0.81,3.72,1.9,5.06,3.47c1.34,1.57,2.16,3.67,1.87,5.71
				c1.35-3.04,1.38-6.64,0.09-9.7c3.16,2.8,5.35,6.73,5.78,10.93c0.43,4.19-1,8.6-4.01,11.55c-3.01,2.95-7.6,4.28-11.66,3.14
				c0.58,1.93-0.04,4.16-1.53,5.52c-1.49,1.36-3.77,1.77-5.64,1.02C-29.2,198.71-28.72,203.95-27.34,208.87z"/>
			<circle class="st17" cx="-28.27" cy="208.47" r="4.41"/>
			<g>
				<g>
					<path class="st17" d="M-29.03,205.82c-0.64,1.34-0.79,4.11,0.58,5.06c0.29,0.2,0.68-0.07,0.68-0.39c0-0.68-0.41-1.29-0.52-1.97
						c-0.13-0.8-0.01-1.55,0.12-2.34C-28.09,205.7-28.78,205.3-29.03,205.82L-29.03,205.82z"/>
				</g>
			</g>
			<g>
				<g>
					<path class="st17" d="M-28.88,208.31c0.46,0.17,0.88,0.42,1.24,0.76c0.32,0.31,0.54,0.76,0.91,1c0.27,0.17,0.7-0.05,0.67-0.38
						c-0.08-1.12-1.65-1.93-2.62-2.12C-29.17,207.46-29.35,208.13-28.88,208.31L-28.88,208.31z"/>
				</g>
			</g>
			<g class="st13">
				<g>
					<path class="st26" d="M-31.5,202.51c-3.8-3.78-4.17-8.17-4.56-13.25c-0.03-0.35-0.58-0.48-0.65-0.09
						c-0.89,5.01,0.68,10.71,4.83,13.84C-31.6,203.24-31.25,202.76-31.5,202.51L-31.5,202.51z"/>
				</g>
			</g>
			<g class="st13">
				<g>
					<path class="st26" d="M-30.57,201.75c-2.6-4.53-2.66-9.07-2.44-14.13c0.02-0.4-0.53-0.42-0.66-0.09
						c-1.83,4.83-0.17,10.4,2.51,14.56C-30.92,202.46-30.35,202.13-30.57,201.75L-30.57,201.75z"/>
				</g>
			</g>
			<g class="st13">
				<g>
					<path class="st26" d="M-30.46,199.17c-1.25-4.48-0.69-8.06,0.36-12.46c0.08-0.35-0.39-0.56-0.59-0.25
						c-2.36,3.74-2.02,9.02-0.26,12.92C-30.82,199.65-30.39,199.46-30.46,199.17L-30.46,199.17z"/>
				</g>
			</g>
		</g>
		<g class="st9">
			<path class="st20" d="M-44.62,230.45c6.89,16.32,9.95,30.59,11.42,41.14c2.01,14.43,0.53,51.3,0.53,51.3s33.17,9.03,75.77-4.9
				c0,0,3.82-68.45-21.57-91.68c-8.65-1.86-20.88-3.52-35.43-2.36C-26.5,224.96-36.94,227.76-44.62,230.45z"/>
			<g>
				<g>
					<path class="st20" d="M-20.82,233.01c1.45,5.18,3.36,9.9,8,13.01c4.42,2.95,10.12,3.94,15.3,2.87
						c4.76-0.99,9.28-3.83,11.62-8.18c2.13-3.96,2.56-9.38,0.04-13.28c-0.42-0.65-1.32-0.09-1.02,0.6
						c4.1,9.35-2.34,18.37-12.05,19.78c-4.67,0.68-9.68-0.4-13.59-3.07c-4.18-2.85-5.97-7.33-7.67-11.9
						C-20.34,232.44-20.94,232.59-20.82,233.01L-20.82,233.01z"/>
				</g>
			</g>
		</g>
		<g class="st9">
			<path class="st11" d="M-40.88,228.97c-6.15-1.56-18.62-5.62-30.13-16.57c-14.6-13.89-18.63-30.29-19.82-36.39
				c-4.81,4.24-9.62,8.47-14.43,12.71c1.77,9.55,6.75,28.99,22.36,47.62c20.1,23.99,45.28,31.61,54.45,33.92
				c0.77-4.14,1.6-11.61-0.7-20.44C-31.94,239.07-37.85,232.1-40.88,228.97z"/>
			<path class="st17" d="M-91.48,177.06c-1.75-2.17-2.38-5-3.21-7.66c-0.3-0.97-0.8-2.08-1.81-2.27c-0.65-0.12-1.33,0.23-1.76,0.73
				c-0.44,0.5-0.68,1.14-0.91,1.77c-0.37-0.77-1.55-0.78-2.2-0.23c-0.65,0.55-0.9,1.43-1.11,2.26c-0.38-0.66-1.36-0.76-2.01-0.38
				c-0.65,0.38-1.03,1.11-1.27,1.83c-0.46,1.4-0.5,2.89-0.52,4.36c-0.06,3.67,0.01,7.45,1.41,10.84
				C-99.62,185.93-94.7,181.82-91.48,177.06z"/>
		</g>
		<g class="st9">
			<path class="st17" d="M-21.18,212.55c0.97,1.07,3.2,3.83,3.92,8.06c0.65,3.84-0.28,6.9-0.79,8.27c-0.01,1.23,0.06,7.6,5.02,12.4
				c4.53,4.38,11.38,5.77,17.7,3.64c4.43-2.05,7.22-6.49,7.1-11.22c-0.17-6.59-5.91-9.96-6.2-10.13c-0.79-1.03-1.64-2.24-2.3-3.71
				c-1.14-2.54-2.26-6.45-2.18-11.92L-21.18,212.55z"/>
			<path class="st17" d="M1.09,207.93c0,0-3.65,8.22-17.9,6.08l22.16,9.26C5.35,223.27,0.54,216.98,1.09,207.93z"/>
		</g>
	</g>
	<g class="st0">
		<g class="st9">
			<path class="st27" d="M248.71,214.85c-20.49-5.35-42.21-4.53-62.98-0.41c-14.84,2.94-29.9,7.86-40.86,18.28
				c-12.18,11.58-17.88,29.19-16.23,45.91c1.65,16.72,10.22,32.4,22.41,43.97c24.54,23.29,62.86,32.78,95.18,21.84
				c29.92-10.13,60.29-37.55,59.5-71.47c-0.29-12.68-6.21-24.93-14.81-34.09C279.92,227.17,264.17,218.89,248.71,214.85z"/>
			<path class="st28" d="M246.4,219.6c-18.99-4.96-39.13-4.2-58.39-0.38c-13.76,2.73-27.72,7.28-37.89,16.94
				c-11.29,10.73-16.57,27.06-15.05,42.57c1.53,15.51,9.47,30.04,20.78,40.77c22.75,21.6,58.28,30.39,88.24,20.25
				c27.74-9.39,55.9-34.81,55.17-66.26c-0.27-11.76-5.76-23.11-13.73-31.6C275.34,231.02,260.74,223.35,246.4,219.6z"/>
		</g>
		<path class="st29" d="M211.18,250.34c0.26,0.56,2.89,5.79,1.33,8.62c-1.05,1.89-4.76,0.92-6.35,0.56
			c-3.94-0.89-7.98-1.03-11.8,0.43c-2.88,1.1-4.98,2.59-6.29,3.68c2.41,3.11,6.52,7.65,12.76,11.59c6.15,3.88,11.92,5.63,15.74,6.47
			c5.15,0.8,13.11,1.39,22.46-0.63c6.6-1.43,11.9-3.72,15.73-5.75c-2.11-2.73-5.55-6.54-10.7-9.71c-8.46-5.21-15.61-3.35-16.54-7.55
			c-0.29-1.3-0.47-5.37,2.61-8.53C224.2,250.55,217.11,249.33,211.18,250.34z"/>
		<g class="st9">
			<path class="st17" d="M237.78,212c-3.18-3.62-7.6-6.09-12.63-6.76c-4.36-0.58-9.03-0.13-12.75,2.22c-2.35,1.48-4.2,3.64-5.81,5.9
				c-4.19,5.87-7.1,12.92-6.78,20.12c0.55,12.43,13.62,22.71,25.8,18.62c5.63-1.9,10.02-6.44,12.92-11.51
				c3.18-5.55,5.24-12.34,4.04-18.74C241.86,218.1,240.18,214.72,237.78,212z"/>
			<ellipse transform="matrix(0.9145 0.4045 -0.4045 0.9145 110.2757 -64.9341)" cx="208.81" cy="228.51" rx="1.01" ry="1.45"/>
			<ellipse transform="matrix(0.9145 0.4045 -0.4045 0.9145 113.3742 -69.2321)" cx="220.53" cy="233.69" rx="1.01" ry="1.45"/>
			<g>
				<g>
					<path class="st17" d="M214.88,228.9c-1.49,1.5-3.28,4.08-2.83,6.33c0.1,0.53,0.93,0.64,1.17,0.15
						c0.43-0.89,0.49-1.94,0.85-2.88c0.4-1.05,0.94-2.09,1.6-3C216.01,229.04,215.27,228.51,214.88,228.9L214.88,228.9z"/>
				</g>
			</g>
			<g>
				<g>
					<path d="M207.8,236.08c0.77,3.03,5.21,5.62,7.88,3.18c0.24-0.21,0.06-0.67-0.27-0.65c-1.53,0.1-2.88,0.53-4.35-0.19
						c-1.13-0.55-1.94-1.56-2.51-2.65C208.33,235.35,207.69,235.64,207.8,236.08L207.8,236.08z"/>
				</g>
			</g>
			<circle class="st17" cx="224.31" cy="239.26" r="2.3"/>
			<circle class="st17" cx="202.82" cy="229.76" r="2.3"/>
			<path class="st30" d="M200.61,220.98c0.28-2.03,0.73-6.79,5.38-11.85c8.79-9.56,22.24-8.45,31.93-2.27
				c8.12,5.18,10.37,16.38,6.37,25.57c-1.99,4.57-4.82,7.45-6.44,8.87c-1.6-1.02-3.2-2.04-4.8-3.05l3.77-8.41l-4.8,7.64l-3.68-2.39
				l4.2-10.28l-5.3,9.96l-7.02-4.32l3.54-12.31l-5.69,10.76l-3.76-2.16l6.13-10.12l-7.57,9.7L200.61,220.98z"/>
			<g class="st31">
				<g>
					<path class="st30" d="M203.89,221.33c0.76-2.07,1.52-4.07,2.75-5.91c1.24-1.85,2.82-3.25,4.4-4.79
						c0.28-0.28-0.08-0.74-0.42-0.55c-3.75,2.17-6.71,6.82-7.38,11.06C203.17,221.58,203.74,221.75,203.89,221.33L203.89,221.33z"/>
				</g>
			</g>
			<g class="st31">
				<g>
					<path class="st30" d="M206.2,222.96c1.73-2.62,3.31-5.33,5.23-7.82c1.92-2.51,4.2-4.42,6.54-6.51c0.36-0.32-0.1-0.82-0.49-0.63
						c-5.51,2.69-9.28,9.34-11.89,14.61C205.38,223.01,205.95,223.34,206.2,222.96L206.2,222.96z"/>
				</g>
			</g>
			<g class="st31">
				<g>
					<path class="st30" d="M210.03,223.05c1.01-1.48,2.1-2.92,3.28-4.27c1.11-1.27,2.41-2.37,3.48-3.66
						c0.24-0.28-0.07-0.78-0.42-0.55c-2.88,1.92-5.15,5.21-6.91,8.14C209.24,223.09,209.8,223.4,210.03,223.05L210.03,223.05z"/>
				</g>
			</g>
			<g class="st31">
				<g>
					<path class="st30" d="M223.11,231.03c0.96-5.27,3.11-10.25,6.1-14.68c0.29-0.43-0.38-0.96-0.73-0.56
						c-3.47,3.99-5.77,9.88-6.09,15.15C222.36,231.34,223.04,231.44,223.11,231.03L223.11,231.03z"/>
				</g>
			</g>
			<g class="st31">
				<g>
					<path class="st30" d="M225.5,231.43c1.09-4.04,3.36-7.42,5.32-11.05c0.16-0.3-0.2-0.54-0.45-0.35
						c-2.99,2.43-4.89,7.52-5.44,11.24C224.88,231.64,225.4,231.8,225.5,231.43L225.5,231.43z"/>
				</g>
			</g>
			<g class="st31">
				<g>
					<path class="st30" d="M231.15,235.4c1.25-4.4,3.36-8.31,4.96-12.55c0.11-0.3-0.35-0.58-0.55-0.32
						c-2.79,3.51-4.18,8.37-5.03,12.7C230.45,235.64,231.04,235.81,231.15,235.4L231.15,235.4z"/>
				</g>
			</g>
			<g class="st31">
				<g>
					<path class="st30" d="M236.96,239.05c2.61-4.1,4.65-9.65,3.69-14.57c-0.06-0.32-0.6-0.33-0.66,0
						c-0.35,2.31-0.36,4.64-0.89,6.94c-0.59,2.54-1.51,4.99-2.69,7.31C236.23,239.09,236.74,239.39,236.96,239.05L236.96,239.05z"/>
				</g>
			</g>
			<path class="st30" d="M228.65,202.79c-0.41-0.51,0.05-2.84,0.1-3.43c0.22-2.63,0.74-5.25,1.63-7.73c1.08-3,2.75-5.83,5.15-7.97
				c6.83-6.07,17.49-5.22,25.24-1.55c3.18,1.5,6.02,3.73,8.01,6.65c3.31,4.87,4.16,11.22,2.73,16.89c-0.04,0.16,1.02,1.26,1.13,1.41
				c0.84,1.17,1.56,2.44,2.09,3.78c3.27,8.17-3.61,17.19-11.49,19.24c-2.19,0.57-4.49,0.61-6.7,0.13c-3.73-0.81-7.1-2.85-10.03-5.22
				C246.49,225,228.66,202.8,228.65,202.79z"/>
			<g class="st31">
				<g>
					<path class="st30" d="M235.62,204.77c1.02-2.79,1.65-5.61,2.99-8.29c1.23-2.45,3.07-4.47,4.37-6.84
						c0.14-0.26-0.17-0.64-0.44-0.44c-4.11,3.1-7.38,10.41-7.53,15.49C235,205.05,235.51,205.08,235.62,204.77L235.62,204.77z"/>
				</g>
			</g>
			<g class="st31">
				<g>
					<path class="st30" d="M238.04,206.26c2.02-3.42,4.39-6.54,7.31-9.24c2.78-2.57,6.05-4.43,8.94-6.83
						c0.41-0.34-0.11-0.87-0.53-0.68c-3.59,1.6-7,4.54-9.79,7.27c-2.73,2.67-5.06,5.69-6.54,9.23
						C237.28,206.36,237.85,206.57,238.04,206.26L238.04,206.26z"/>
				</g>
			</g>
			<g class="st31">
				<g>
					<path class="st30" d="M240.69,208.85c2.6-2.1,5.13-4.23,8-5.96c2.66-1.61,5.59-2.6,8.28-4.1c0.42-0.23,0.12-0.82-0.31-0.74
						c-3.11,0.6-6.23,2.45-8.88,4.12c-2.75,1.73-5.44,3.74-7.58,6.19C239.9,208.7,240.35,209.13,240.69,208.85L240.69,208.85z"/>
				</g>
			</g>
			<g class="st31">
				<g>
					<path class="st30" d="M243.39,212.75c5.02-3.46,11.38-4.51,16.92-6.86c0.28-0.12,0.06-0.49-0.19-0.46
						c-3.39,0.49-6.74,1.81-9.9,3.09c-2.46,1-5.22,1.92-7.21,3.73C242.74,212.49,243.09,212.96,243.39,212.75L243.39,212.75z"/>
				</g>
			</g>
			<g class="st31">
				<g>
					<path class="st30" d="M245.37,215.82c5.19-0.86,10.4-0.85,15.59-1.5c0.35-0.04,0.52-0.62,0.09-0.69
						c-5.11-0.81-10.9,0.28-15.83,1.65C244.87,215.39,245.02,215.88,245.37,215.82L245.37,215.82z"/>
				</g>
			</g>
		</g>
		<path class="st8" d="M188.06,263.63c0,0-4.79,25.88-5.6,78.63c0,0,36.66,18.51,77.22-3.55c0,0-15.07-8.73-4.92-63.4
			C254.75,275.32,213.95,291.67,188.06,263.63z"/>
		<path class="st29" d="M188.6,263.2c-13.34-0.46-26-8.49-35.86-17.49c-9.54-8.71-18.15-18.43-25.65-28.95
			c-0.79-1.11-2.13-2.36-3.29-1.66c-1.09,0.66-0.74,2.31-0.25,3.49c-0.41-1.43-2.07-2.46-3.46-1.93s-1.82,2.57-0.65,4.01
			c-0.67-0.99-2.12-1.37-3.11-0.64c-2.04,1.5-1.38,4.34-0.67,6.37c4.29,12.39,11.73,23.3,20.26,33.14
			c8.53,9.84,19.1,18.4,30.47,24.74c1.14,0.63,13.67,6.61,13.76,6.31C180.16,290.6,188.6,263.2,188.6,263.2z"/>
		<path class="st29" d="M254.75,275.32c0,0,24.79,21.94,14.7,57.67c0,0-15.31,10.33-20.01,10.51c0,0,11.22-49.97-14.18-61.74
			L254.75,275.32z"/>
		<path class="st32" d="M190.56,261.83c-0.58-0.79-2.14-2.65-4.89-3.71c-5.13-1.96-10.44,0.51-12.58,5.51
			c-0.14,0.34-1.91,4.88,0.72,8.39c1.01,1.35,2.29,2.04,3.12,2.4c-0.44,0.07-3.08,0.51-4.79,3c-1.74,2.52-1.18,5.2-1.08,5.63
			c1.27,5.57,6.34,9.5,12.1,8.75c0.4,0.31,3.72,2.78,8.03,1.68c3.97-1.01,5.73-4.28,5.99-4.79c-1.14,2.21,0.06,5.79,1.48,7.54
			c3.06,3.76,8.55,4.88,13.02,3.24c4.61-1.69,6.5-5.6,6.84-6.35c0.09,0.61,0.77,4.72,4.66,7.19c4.95,3.14,12.61,1.49,16.78-2.28
			c2.07-1.87,3.04-3.97,3.48-5.15c0.57,0.81,2.5,3.34,6.11,4.43c8.29,2.52,18.86-3.68,17.86-13.06c-0.14-1.09-0.65-3.94-3-6.35
			c-3.92-4.02-9.5-3.22-10.08-3.13C248.73,276.67,209.83,287.96,190.56,261.83z"/>
		<polygon class="st19" points="213.1,257.35 227.41,257.35 229.16,260.2 211.88,259.63 		"/>
		<path class="st33" d="M211.43,250.89c0,0,6.21,4.72,13.5,1.46c0.1-0.04,0.19-0.09,0.29-0.13c0,0-0.41,4.75-12.12,5.15
			C213.1,257.35,213.14,255.11,211.43,250.89z"/>
	</g>
	<g class="st0">
		<circle class="st4" cx="301.13" cy="183.94" r="22.6"/>
		<circle class="st4" cx="-44.7" cy="357.31" r="22.6"/>
		<circle class="st24" cx="99.37" cy="332" r="22.6"/>
		<circle class="st4" cx="230.03" cy="165.19" r="7.77"/>
		<circle class="st24" cx="-18.66" cy="139.79" r="7.77"/>
		<circle class="st24" cx="141.28" cy="357.31" r="7.77"/>
		<circle class="st24" cx="47.78" cy="339.78" r="7.77"/>
		<circle class="st4" cx="-71.94" cy="332" r="7.77"/>
		<circle class="st4" cx="325.94" cy="230.88" r="13.19"/>
		<circle class="st24" cx="19.71" cy="139.79" r="13.19"/>
		<circle class="st4" cx="116.61" cy="-18.91" r="13.19"/>
		<circle class="st4" cx="173.79" cy="3.68" r="22.6"/>
	</g>
</g>
<g id="DESIGNED_BY_FREEPIK" class="st0">
	<g class="st9">
		<g id="XMLID_1_">
			<g id="XMLID_20_">
				<path id="XMLID_28_" class="st34" d="M122.94,401.38c-0.43,0.44-0.8,0.93-1.11,1.45l-0.47-0.24c-0.07-0.3-0.35-0.5-0.66-0.47
					c-0.33,0.04-0.57,0.34-0.53,0.67c0.04,0.33,0.34,0.57,0.67,0.53c0.07-0.01,0.13-0.03,0.18-0.05l0.45,0.23
					c-0.25,0.55-0.43,1.14-0.54,1.74l0.75,0.13c0.23-1.31,0.85-2.51,1.79-3.47L122.94,401.38z"/>
				<path id="XMLID_27_" class="st34" d="M128.43,399.08c-0.17,0-0.34,0.01-0.51,0.02l-0.07-0.63c0.19-0.15,0.3-0.39,0.27-0.64
					c-0.05-0.39-0.4-0.67-0.8-0.63c-0.39,0.05-0.67,0.4-0.63,0.8c0.03,0.25,0.19,0.46,0.4,0.56l0.07,0.62
					c-0.71,0.12-1.4,0.33-2.06,0.65l0.33,0.68c0.93-0.45,1.94-0.67,3-0.67c0.5,0,0.99,0.05,1.48,0.16l0.16-0.74
					C129.53,399.14,128.98,399.08,128.43,399.08z"/>
				<path id="XMLID_26_" class="st34" d="M135.03,401.62c0.33-0.04,0.57-0.34,0.53-0.67c-0.04-0.33-0.34-0.57-0.67-0.53
					c-0.31,0.04-0.54,0.3-0.53,0.61l-0.42,0.36c-0.42-0.43-0.89-0.81-1.41-1.14l-0.4,0.64c1.13,0.71,2.02,1.73,2.56,2.93l0.69-0.31
					c-0.25-0.55-0.57-1.07-0.94-1.55l0.4-0.35C134.91,401.63,134.97,401.63,135.03,401.62z"/>
				<path id="XMLID_25_" class="st34" d="M127.88,409.29c-0.39,0.02-0.78,0.03-1.16,0.03c-0.88,0-1.73-0.06-2.48-0.18
					c-0.39-0.06-0.85-0.15-1.27-0.29c1.05,1.86,3.07,3.13,5.39,3.13c2.86,0,5.26-1.92,5.95-4.5c-0.68,0.45-1.51,0.83-2.46,1.12
					C130.68,408.96,129.3,409.2,127.88,409.29z"/>
				<path id="XMLID_21_" class="st34" d="M128.43,400.59c-3.35,0-6.08,2.67-6.08,5.94c0,0.43,0.05,0.85,0.14,1.26
					c0.67,0.48,2.71,0.89,5.35,0.73c2.88-0.17,5.3-0.96,6.67-2.16c-0.01-0.19-0.02-0.39-0.05-0.58
					C134.08,402.83,131.49,400.59,128.43,400.59z M126.27,407.11c-1.02,0-1.85-0.83-1.85-1.85c0-1.02,0.83-1.85,1.85-1.85
					c1.02,0,1.85,0.83,1.85,1.85C128.12,406.28,127.29,407.11,126.27,407.11z M131.01,406.2c-0.75,0-1.36-0.61-1.36-1.36
					s0.61-1.36,1.36-1.36c0.75,0,1.36,0.61,1.36,1.36S131.76,406.2,131.01,406.2z"/>
			</g>
			<path id="XMLID_18_" class="st34" d="M144.44,402.46c-0.29-0.12-0.81-0.31-1.38-0.24c-0.55,0.07-0.84,0.34-0.84,1.01v0.87h2.23
				v1.72h-2.23v5.45h-1.93v-5.45h-1.34v-1.72h1.34v-0.89c0-1.68,0.9-2.78,2.57-2.78c0.64,0,1.16,0.12,1.59,0.31L144.44,402.46z"/>
			<path id="XMLID_16_" class="st34" d="M149.14,405.79c-0.18-0.03-0.36-0.05-0.53-0.05c-0.9,0-1.51,0.55-1.51,1.61v3.91h-1.93
				v-7.17h1.87v0.78c0.45-0.67,1.14-0.98,2.02-0.98c0.41,0,0.85,0.13,1.09,0.34L149.14,405.79z"/>
			<path id="XMLID_13_" class="st34" d="M156.81,407.67c0,0.22-0.01,0.49-0.04,0.65h-5.08c0.21,1.04,0.93,1.49,1.84,1.49
				c0.62,0,1.3-0.25,1.81-0.69l1.13,1.24c-0.81,0.75-1.85,1.09-3.06,1.09c-2.2,0-3.72-1.5-3.72-3.75c0-2.26,1.48-3.8,3.63-3.8
				C155.38,403.9,156.8,405.44,156.81,407.67z M151.69,407h3.18c-0.18-0.92-0.73-1.44-1.56-1.44
				C152.39,405.57,151.86,406.12,151.69,407z"/>
			<path id="XMLID_10_" class="st34" d="M164.46,407.67c0,0.22-0.01,0.49-0.04,0.65h-5.08c0.21,1.04,0.93,1.49,1.84,1.49
				c0.62,0,1.3-0.25,1.81-0.69l1.13,1.24c-0.81,0.75-1.85,1.09-3.06,1.09c-2.2,0-3.72-1.5-3.72-3.75c0-2.26,1.48-3.8,3.63-3.8
				C163.04,403.9,164.45,405.44,164.46,407.67z M159.34,407h3.18c-0.18-0.92-0.73-1.44-1.56-1.44
				C160.05,405.57,159.51,406.12,159.34,407z"/>
			<path id="XMLID_7_" class="st34" d="M172.8,407.68c0,2.15-1.49,3.77-3.47,3.77c-0.96,0-1.64-0.38-2.11-0.93v3.71h-1.92V404.1
				h1.89v0.79c0.47-0.58,1.15-0.98,2.14-0.98C171.31,403.9,172.8,405.52,172.8,407.68z M167.13,407.68c0,1.13,0.75,1.98,1.84,1.98
				c1.14,0,1.85-0.88,1.85-1.98c0-1.1-0.71-1.98-1.85-1.98C167.87,405.7,167.13,406.55,167.13,407.68z"/>
			<path id="XMLID_4_" class="st34" d="M175.91,401.75c0,0.7-0.54,1.23-1.24,1.23s-1.23-0.53-1.23-1.23c0-0.7,0.53-1.24,1.23-1.24
				S175.91,401.05,175.91,401.75z M175.65,411.27h-1.93v-7.17h1.93V411.27z"/>
			<path id="XMLID_2_" class="st34" d="M178.87,406.65l2.7-2.55h2.37l-3.48,3.38l3.5,3.8h-2.38l-2.72-2.9v2.9h-1.93v-10.66h1.93
				V406.65z"/>
		</g>
		<g>
			<path class="st34" d="M47.25,411.2v-1.05c-0.53,0.72-1.39,1.23-2.39,1.23c-1.85,0-3.15-1.41-3.15-3.71
				c0-2.26,1.29-3.72,3.15-3.72c0.95,0,1.82,0.47,2.39,1.25v-3.76h1.1v9.77H47.25z M47.25,409.28v-3.21
				c-0.4-0.62-1.24-1.14-2.12-1.14c-1.42,0-2.27,1.17-2.27,2.74c0,1.57,0.85,2.72,2.27,2.72C46.01,410.4,46.86,409.9,47.25,409.28z"
				/>
			<path class="st34" d="M49.77,407.66c0-2.05,1.46-3.71,3.49-3.71c2.14,0,3.4,1.67,3.4,3.79v0.28h-5.73
				c0.09,1.33,1.03,2.45,2.55,2.45c0.81,0,1.63-0.32,2.18-0.89l0.53,0.72c-0.7,0.7-1.65,1.08-2.81,1.08
				C51.28,411.38,49.77,409.87,49.77,407.66z M53.24,404.86c-1.51,0-2.26,1.27-2.31,2.36h4.64
				C55.56,406.16,54.85,404.86,53.24,404.86z"/>
			<path class="st34" d="M57.45,410.27l0.57-0.79c0.47,0.54,1.36,1.01,2.33,1.01c1.08,0,1.67-0.51,1.67-1.22
				c0-1.71-4.38-0.66-4.38-3.28c0-1.1,0.95-2.04,2.64-2.04c1.2,0,2.05,0.45,2.62,1.03l-0.51,0.76c-0.42-0.51-1.2-0.89-2.11-0.89
				c-0.97,0-1.57,0.48-1.57,1.11c0,1.55,4.38,0.53,4.38,3.28c0,1.19-0.95,2.14-2.78,2.14C59.15,411.38,58.16,411.03,57.45,410.27z"
				/>
			<path class="st34" d="M64.32,402.38c0-0.41,0.34-0.75,0.73-0.75c0.41,0,0.75,0.34,0.75,0.75c0,0.41-0.34,0.73-0.75,0.73
				C64.65,403.12,64.32,402.79,64.32,402.38z M64.51,411.2v-7.07h1.1v7.07H64.51z"/>
			<path class="st34" d="M67.42,413.02l0.56-0.82c0.59,0.7,1.29,0.97,2.3,0.97c1.17,0,2.27-0.57,2.27-2.12v-1.01
				c-0.51,0.72-1.38,1.26-2.37,1.26c-1.85,0-3.15-1.38-3.15-3.66c0-2.27,1.29-3.68,3.15-3.68c0.95,0,1.8,0.47,2.37,1.25v-1.07h1.1
				V411c0,2.34-1.64,3.08-3.37,3.08C69.08,414.07,68.26,413.84,67.42,413.02z M72.55,409.17v-3.09c-0.38-0.62-1.23-1.14-2.11-1.14
				c-1.42,0-2.27,1.13-2.27,2.7c0,1.55,0.85,2.7,2.27,2.7C71.32,410.32,72.17,409.78,72.55,409.17z"/>
			<path class="st34" d="M80.25,411.2v-4.63c0-1.24-0.63-1.64-1.58-1.64c-0.86,0-1.68,0.53-2.09,1.1v5.17h-1.1v-7.07h1.1v1.03
				c0.5-0.59,1.46-1.2,2.52-1.2c1.48,0,2.26,0.75,2.26,2.29v4.97H80.25z"/>
			<path class="st34" d="M82.77,407.66c0-2.05,1.46-3.71,3.49-3.71c2.14,0,3.4,1.67,3.4,3.79v0.28h-5.73
				c0.09,1.33,1.03,2.45,2.55,2.45c0.81,0,1.63-0.32,2.18-0.89l0.53,0.72c-0.7,0.7-1.66,1.08-2.81,1.08
				C84.28,411.38,82.77,409.87,82.77,407.66z M86.24,404.86c-1.51,0-2.26,1.27-2.31,2.36h4.64
				C88.56,406.16,87.86,404.86,86.24,404.86z"/>
			<path class="st34" d="M96.19,411.2v-1.05c-0.53,0.72-1.39,1.23-2.39,1.23c-1.85,0-3.15-1.41-3.15-3.71
				c0-2.26,1.29-3.72,3.15-3.72c0.95,0,1.82,0.47,2.39,1.25v-3.76h1.1v9.77H96.19z M96.19,409.28v-3.21
				c-0.4-0.62-1.25-1.14-2.12-1.14c-1.42,0-2.27,1.17-2.27,2.74c0,1.57,0.85,2.72,2.27,2.72C94.95,410.4,95.79,409.9,96.19,409.28z"
				/>
			<path class="st34" d="M102.53,411.2v-9.77h1.1v3.76c0.57-0.78,1.42-1.25,2.39-1.25c1.85,0,3.15,1.46,3.15,3.72
				c0,2.3-1.3,3.71-3.15,3.71c-1,0-1.86-0.51-2.39-1.23v1.05H102.53z M105.74,410.4c1.44,0,2.29-1.16,2.29-2.72
				c0-1.57-0.85-2.74-2.29-2.74c-0.86,0-1.73,0.53-2.11,1.14v3.21C104.01,409.9,104.88,410.4,105.74,410.4z"/>
			<path class="st34" d="M110.37,412.98c0.16,0.07,0.43,0.12,0.6,0.12c0.48,0,0.81-0.16,1.05-0.75l0.47-1.07l-2.96-7.15h1.19
				l2.36,5.8l2.34-5.8h1.2l-3.54,8.51c-0.42,1.03-1.14,1.42-2.08,1.44c-0.23,0-0.6-0.04-0.81-0.1L110.37,412.98z"/>
		</g>
	</g>
</g>
</svg>
