<?xml version="1.0" encoding="utf-8"?>
<!-- Generator: Adobe Illustrator 19.0.0, SVG Export Plug-In . SVG Version: 6.00 Build 0)  -->
<svg version="1.1" xmlns="http://www.w3.org/2000/svg" xmlns:xlink="http://www.w3.org/1999/xlink" x="0px" y="0px"
	 viewBox="0 0 358.07 426.41" style="enable-background:new 0 0 358.07 426.41;" xml:space="preserve">
<style type="text/css">
	.st0{display:none;}
	.st1{display:inline;fill:#EFEBEB;}
	.st2{opacity:0.33;fill:#DDCACA;}
	.st3{display:none;opacity:0.33;fill:#DDCACA;}
	.st4{fill:#B3ADEC;}
	.st5{display:inline;fill:#78BA9A;}
	.st6{fill:#F79E02;}
	.st7{fill:#E1806D;}
	.st8{fill:#6756AD;}
	.st9{fill:#EFEBEB;}
	.st10{fill:#37366A;}
	.st11{font-family:'Montserrat-Regular';}
	.st12{font-size:6.0268px;}
	.st13{fill:#A43F60;}
	.st14{fill:#F3F4E9;}
	.st15{font-size:4.4893px;}
	.st16{opacity:0.57;}
	.st17{font-size:4.1015px;}
	.st18{fill:none;stroke:#37366A;stroke-width:0.5;stroke-miterlimit:10;}
	.st19{display:inline;}
	.st20{opacity:0.52;}
	.st21{fill:none;stroke:#50C3E2;stroke-width:0.5;stroke-miterlimit:10;}
	.st22{opacity:0.25;fill:#6756AD;}
	.st23{fill:#F5BA9A;}
	.st24{fill:#594656;}
	.st25{fill:#B96944;}
	.st26{fill:#53648C;}
	.st27{fill:#5D95BA;}
	.st28{fill:#8FCAEC;}
	.st29{fill:#F49E78;}
	.st30{fill:#514540;}
	.st31{opacity:0.28;}
	.st32{fill:#F28279;}
	.st33{font-family:'Montserrat-Medium';}
	.st34{font-size:15.3164px;}
	.st35{font-family:'Montserrat-Black';}
	.st36{fill:#9AACBB;}
</style>
<g id="Background" class="st0">
	<rect x="-54.97" y="-26.16" class="st1" width="500" height="500"/>
</g>
<g id="Objects">
	<g id="XMLID_19_">
		<path id="XMLID_2_" class="st2" d="M5.48,123.03l111.48-0.35l-28.44-5.8c0,0,1.16-31.92-12.77-25.54
			c-13.93,6.38-14.51,20.31-14.51,20.31s-5.22-12.77-12.77-8.13c-7.54,4.64-11.03,12.77-11.03,12.77s-2.71-9.19-7.55-9.71
			c-4.14-0.45-12,8.29-16.13,13.21L5.48,123.03z"/>
		<path id="XMLID_3_" class="st3" d="M312.09,174.81l91.97-0.26l-23.46-4.31c0,0,0.96-23.72-10.53-18.97
			c-11.49,4.74-11.97,15.09-11.97,15.09s-4.31-9.49-10.53-6.04c-6.22,3.45-9.1,9.49-9.1,9.49s-2.23-6.83-6.22-7.21
			c-3.41-0.33-9.9,6.16-13.3,9.81L312.09,174.81z"/>
		<path id="XMLID_4_" class="st2" d="M162.48,43.02l91.97-0.29l-23.46-4.79c0,0,0.96-26.33-10.53-21.07
			c-11.49,5.27-11.97,16.76-11.97,16.76s-4.31-10.53-10.53-6.7c-6.22,3.83-9.1,10.53-9.1,10.53s-2.23-7.58-6.22-8.01
			c-3.41-0.37-9.9,6.84-13.3,10.9L162.48,43.02z"/>
	</g>
	<g id="XMLID_1_">
		<path class="st4" d="M324.26,27.1l-6.99,2.43l-3.03-8.74c-5.59-16.11-23.26-24.67-39.36-19.08
			c-16.11,5.59-24.66,23.25-19.06,39.36l3.03,8.74l-7.02,2.44c-5.46,1.89-8.39,7.93-6.49,13.39l19.74,56.85
			c1.92,5.54,7.97,8.48,13.43,6.59l72.44-25.15c5.54-1.92,8.48-7.98,6.55-13.52l-19.74-56.85C335.85,28.1,329.8,25.18,324.26,27.1z
			 M269,36.49c-3.07-8.83,1.62-18.51,10.45-21.58c8.83-3.06,18.5,1.63,21.57,10.46l3.03,8.74l-32.01,11.11L269,36.49z M310.99,88.31
			l5.04,14.52c0.21,0.61-0.15,1.24-0.77,1.46l-6.95,2.41c-0.53,0.18-1.21-0.08-1.43-0.7l-5.04-14.52
			c-5.39-0.19-10.41-3.59-12.31-9.05c-2.44-7.02,1.29-14.73,8.34-17.17c7.04-2.44,14.74,1.29,17.18,8.32
			C316.94,79.04,315.1,84.82,310.99,88.31z"/>
		<g id="XMLID_8_" class="st0">
			<path id="XMLID_6_" class="st5" d="M276.35,307.98c-1.72-3.35,2.31-6.95,6.02-7.61c3.71-0.66,7.91-0.16,10.87-2.5
				c3.95-3.13,3.74-9.94,8.12-12.43c3.51-2,8.15-0.09,11.87-1.67c4.62-1.97,5.92-8.4,10.45-10.56c3.61-1.72,8.33,0.22,10.18,3.78
				c1.84,3.55,1,8.14-1.56,11.22c-2,2.41-4.96,4.1-6.2,6.97c-1.94,4.5,1.12,9.95-0.66,14.51c-3.31,8.42-18.92,5.89-21.63,14.52
				c-0.6,1.92-0.35,3.99-0.51,6c-0.47,5.98-4.68,11.19-9.88,14.17c-5.2,2.98-11.29,4.01-17.27,4.43c-2.44,0.17-5.02,0.22-7.2-0.9
				c-2.05-1.05-3.48-3.02-4.59-5.03C257.17,329.84,254.21,312.86,276.35,307.98"/>
		</g>
		<g>
			<path id="XMLID_242_" class="st6" d="M161.18,301.05c3.86-2.55,1.71-8.82-1.86-11.76c-3.57-2.94-8.37-4.93-10.12-9.22
				c-2.34-5.72,1.98-12.89-1.19-18.19c-2.55-4.25-8.67-5.01-11.69-8.94c-3.76-4.88-1.27-12.55-4.82-17.59
				c-2.83-4.02-9.05-4.78-13.16-2.09c-4.11,2.69-5.97,8.11-5.09,12.94c0.69,3.78,2.84,7.37,2.44,11.19
				c-0.63,5.98-7.19,9.96-8.03,15.92c-1.54,11,16.69,17.69,14.39,28.56c-0.51,2.42-2.03,4.48-3.07,6.73
				c-3.1,6.67-1.74,14.79,2.04,21.11c3.77,6.32,9.66,11.09,15.8,15.13c2.51,1.65,5.23,3.26,8.24,3.37c2.83,0.11,5.53-1.13,7.94-2.62
				C168.53,335.98,181.92,319.61,161.18,301.05"/>
		</g>
		<g id="XMLID_7_">
			<g id="XMLID_9_">
				<path id="XMLID_10_" class="st7" d="M262.48,314.85c5.4-2.33,10.26-6.64,14.29-10.8c10.87-11.22,17.61-25.88,21.16-40.97
					c3.21-13.65,3.92-27.77,3.25-41.74c-0.06-1.18-1.9-1.19-1.85,0c1.51,31.39-4.73,69.92-32.82,89.02
					c-1.57,1.07-3.22,2.14-4.97,2.89C260.46,313.72,261.4,315.31,262.48,314.85L262.48,314.85z"/>
			</g>
			<path id="XMLID_11_" class="st7" d="M298.18,257.8c0,0,1.78-10.17,15.25-11.78C313.44,246.02,308.52,258.06,298.18,257.8z"/>
			<path class="st7" d="M293.77,272.83c0,0,4.1-9.47,17.58-7.89C311.35,264.94,303.76,275.49,293.77,272.83z"/>
			<path class="st7" d="M288.04,286.08c0,0,6.12-8.31,18.9-3.75C306.95,282.33,297.19,290.91,288.04,286.08z"/>
			<path id="XMLID_12_" class="st7" d="M300.25,242.01c0,0,1.75-10,14.99-11.58C315.25,230.43,310.42,242.26,300.25,242.01z"/>
			<path class="st7" d="M300.43,224.64c0,0-7.54-6.79-1.85-18.85C298.59,205.78,306.04,216.16,300.43,224.64z"/>
			<path class="st7" d="M300.48,234.94c0,0-9.98-1.84-11.44-15.1C289.04,219.84,300.83,224.78,300.48,234.94z"/>
			<path class="st7" d="M299.48,250.17c0,0-9.98-1.84-11.44-15.1C288.04,235.07,299.83,240.01,299.48,250.17z"/>
			<path class="st7" d="M296.89,264.44c0,0-9.83-2.54-10.35-15.87C286.54,248.57,297.95,254.33,296.89,264.44z"/>
			<path class="st7" d="M292.36,278.69c0,0-9.83-2.54-10.35-15.87C282.01,262.82,293.42,268.58,292.36,278.69z"/>
		</g>
		<g id="XMLID_13_">
			<path id="XMLID_234_" class="st8" d="M264.19,350.63H163.07c-11.68,0-21.15-9.47-21.15-21.15V90.55
				c0-11.68,9.47-21.15,21.15-21.15h101.12c11.68,0,21.15,9.47,21.15,21.15v238.93C285.34,341.16,275.87,350.63,264.19,350.63z"/>
			<path id="XMLID_233_" class="st9" d="M263.91,340.69H163.35c-8.18,0-14.81-6.63-14.81-14.81V92.48c0-8.18,6.63-14.81,14.81-14.81
				h100.56c8.18,0,14.81,6.63,14.81,14.81v233.39C278.72,334.06,272.09,340.69,263.91,340.69z"/>
			<path id="XMLID_14_" class="st8" d="M252.58,77.67h-8.47c-2.6,0-4.7,2.11-4.7,4.7v3.36c0,2.6-2.11,4.7-4.7,4.7h-37.75
				c-2.6,0-4.7-2.11-4.7-4.7v-3.36c0-2.6-2.11-4.7-4.7-4.7h-24.04v-2.41h89.07V77.67z"/>
			<g id="XMLID_15_">
				<g id="XMLID_16_">
					<g id="XMLID_17_">
						<path id="XMLID_18_" class="st10" d="M217.25,128.21c0.55-0.3,0.93-0.87,0.93-1.54c0-0.97-0.79-1.75-1.75-1.75
							c-0.97,0-1.75,0.78-1.75,1.75c0,0.67,0.38,1.24,0.93,1.54c-1.11,0.35-1.91,1.39-1.91,2.61v1.38h5.47v-1.38
							C219.16,129.6,218.35,128.56,217.25,128.21z"/>
						<g id="XMLID_21_">
							<text id="XMLID_246_" transform="matrix(1 0 0 1 193.0977 141.8816)" class="st10 st11 st12">Create Account</text>
						</g>
					</g>
					<g id="XMLID_22_">
						<path id="XMLID_23_" class="st13" d="M239.06,242.11h-52.21c-0.54,0-0.98-0.44-0.98-0.98v-10.21c0-0.54,0.44-0.98,0.98-0.98
							h52.21c0.54,0,0.98,0.44,0.98,0.98v10.21C240.04,241.67,239.6,242.11,239.06,242.11z"/>
						<g id="XMLID_26_">
							<text id="XMLID_248_" transform="matrix(1 0 0 1 203.6075 237.3518)" class="st14 st11 st15">Register</text>
						</g>
					</g>
					<g id="XMLID_27_">
						<g id="XMLID_30_" class="st16">
							<text id="XMLID_251_" transform="matrix(1 0 0 1 166.8858 158.2263)" class="st10 st11 st17">Email Address</text>
						</g>
						<g id="XMLID_33_">
							<text id="XMLID_252_" transform="matrix(1 0 0 1 171.4962 171.6135)" class="st10 st11 st17">youremail@gmail.c</text>
						</g>
						<path id="XMLID_316_" class="st18" d="M263.21,177.61h-93.57c-1.52,0-2.76-1.24-2.76-2.76v-9.41c0-1.52,1.24-2.76,2.76-2.76
							h93.57c1.52,0,2.76,1.24,2.76,2.76v9.41C265.97,176.38,264.73,177.61,263.21,177.61z"/>
					</g>
					<g id="XMLID_42_" class="st0">
						<g id="XMLID_322_" class="st19">
							<g id="XMLID_327_" class="st20">
								<text id="XMLID_328_" transform="matrix(1 0 0 1 166.8858 191.4583)" class="st10 st11 st17">Country</text>
							</g>
							<g id="XMLID_323_">
								<g id="XMLID_325_">
									<text id="XMLID_326_" transform="matrix(1 0 0 1 171.4962 204.7161)" class="st10 st11 st17">Your text</text>
								</g>
								<path id="XMLID_324_" class="st18" d="M263.21,210.97h-93.57c-1.52,0-2.76-1.24-2.76-2.76v-9.41c0-1.52,1.24-2.76,2.76-2.76
									h93.57c1.52,0,2.76,1.24,2.76,2.76v9.41C265.97,209.74,264.73,210.97,263.21,210.97z"/>
							</g>
						</g>
					</g>
					<g id="XMLID_58_" class="st0">
						<g id="XMLID_307_" class="st19">
							<g id="XMLID_320_" class="st20">
								<text id="XMLID_321_" transform="matrix(1 0 0 1 166.8858 226.5462)" class="st10 st11 st17">City</text>
							</g>
							<g id="XMLID_315_">
								<g id="XMLID_318_">
									<text id="XMLID_319_" transform="matrix(1 0 0 1 171.4962 239.8049)" class="st10 st11 st17">Your City</text>
								</g>
								<path id="XMLID_317_" class="st18" d="M263.21,246.06h-93.57c-1.52,0-2.76-1.24-2.76-2.76v-9.41c0-1.52,1.24-2.76,2.76-2.76
									h93.57c1.52,0,2.76,1.24,2.76,2.76v9.41C265.97,244.83,264.73,246.06,263.21,246.06z"/>
							</g>
						</g>
					</g>
					<g id="XMLID_74_">
						<g id="XMLID_308_">
							<g id="XMLID_313_" class="st20">
								<text id="XMLID_314_" transform="matrix(1 0 0 1 166.8858 191.8059)" class="st10 st11 st17">Password</text>
							</g>
							<g id="XMLID_309_">
								<g id="XMLID_311_">
									<text id="XMLID_312_" transform="matrix(1 0 0 1 171.4962 205.0637)" class="st10 st11 st17">Entry password</text>
								</g>
								<path id="XMLID_310_" class="st18" d="M263.21,211.32h-93.57c-1.52,0-2.76-1.24-2.76-2.76v-9.41c0-1.52,1.24-2.76,2.76-2.76
									h93.57c1.52,0,2.76,1.24,2.76,2.76v9.41C265.97,210.09,264.73,211.32,263.21,211.32z"/>
							</g>
						</g>
					</g>
				</g>
				<line id="XMLID_82_" class="st21" x1="212.09" y1="166.71" x2="212.09" y2="171.98"/>
			</g>
		</g>
	</g>
	<g id="XMLID_83_">
		<ellipse class="st22" cx="199.53" cy="393.21" rx="63.74" ry="2.11"/>
		<g id="XMLID_84_">
			<path id="XMLID_85_" class="st23" d="M206.26,258.35c0,0,6.33,9.78,7.77,5.54c1.43-4.24,2.31-6.83,2.31-6.83s-1.8-2.95-2.75-2.04
				c-1,0.95-2.29-0.78-2.29-0.78L206.26,258.35z"/>
			<g id="XMLID_86_">
				<path class="st23" d="M237.56,207.77l2.62-15.2c1.72-0.55,3.48-1.88,2.88-3.93c-0.3-1.03-1.11-1.57-2.05-1.93
					c-0.36-0.13-2.19-0.66-2.31,0.04c0-0.01,1-5.48,1-5.48l-17.82-8.6c0,0-1.62,10.91-1.64,11.04c0.03-0.17-1.73-0.56-1.97-0.54
					c-0.9,0.1-1.77,0.93-2.12,1.71c-0.93,2.07,0.87,4.68,3.11,4.72c0,0,0.31,4.89,1.44,6.63c1.13,1.74,6.37,2.94,6.37,2.94
					l-0.57,6.62L237.56,207.77z"/>
			</g>
			<g id="XMLID_87_">
				<path class="st6" d="M243.58,209.01c-8.05-2.26-19.37-4.25-19.37-4.25l-7.5,53.44l31.61-0.98L243.58,209.01z"/>
			</g>
			<g id="XMLID_88_">
				<path class="st6" d="M243.58,209.01c10.52,2.76,20.9,4.84,31.71,5.95c-2.41-10.95-3.73-19.33-6.87-28.63
					c3-0.76,8.87-2.26,11.87-3.02c0,0,9.96,34.69,6.93,39.31c-5.14,7.87-30.76,2.69-30.76,2.69l-12.12-2.16L243.58,209.01z"/>
			</g>
			<g id="XMLID_89_">
				<path class="st6" d="M189.44,220.78c0,0,33.93-16.6,35.49-15.99c1.56,0.61,2.88,8.31,2.88,8.31s-12.3,7.83-31.32,16.67
					l17.3,23.55l-8.62,6.18c0,0-23.76-26.7-22.86-32.22C183.02,223.02,189.44,220.78,189.44,220.78z"/>
			</g>
			<path id="XMLID_90_" class="st23" d="M279.78,183.45c0,0-1.4-9.82-1.57-10.1c-0.17-0.28-0.17-2.01-2.69-1.59
				c0,0-0.17-3.11-1.62-3.17c-1.46-0.06-3.08,0.34-3.08,0.34s-1.64-7.98-2.7-9.36c-1.16-1.51-2.79,2.47-0.27,12.19
				c0,0,1.4,6.61,0.98,6.85c-1.13,0.66-2.68,0.54-4.82-3.13c-2.28-3.9-5.12-2.58-3.72,0.45c1.4,3.03,3.39,6.94,4.67,8
				c1.29,1.06,4.01,0.9,4.01,0.9l0.4,1.26L279.78,183.45z"/>
			<g id="XMLID_91_">
				<path class="st24" d="M248.33,257.23c-3.81,57.83-16.74,129.2-16.74,129.2l12.66,5.36h-26.96l17.68-126.21h-6.06l-44.73,126.29
					h-26.93l15.32-5.59l44.72-132.19L248.33,257.23z"/>
			</g>
			<path id="XMLID_92_" class="st25" d="M241.84,187.11c1.51-3.01,3.27-10.33-1.31-12.36c-2.37-1.06-4.84-2.57-6.65-3.79
				c-2.79-1.87-6.25-2.61-9.49-1.71c-0.52,0.14-1.03,0.33-1.5,0.56c-3.19,1.57-5.35,10.05-5.35,10.05l3.14,0.79
				c0,0,3.5,15.57,9.26,18.77l5.75,1.22l3.4,0.76L241.84,187.11z"/>
			<g>
				<g>
					<path id="XMLID_97_" class="st25" d="M237.67,173.67c0.02-0.93-0.01-1.86-0.11-2.79c-0.04-0.38-0.63-0.38-0.6,0
						c0.1,0.93,0.13,1.86,0.11,2.79C237.06,174.06,237.66,174.06,237.67,173.67L237.67,173.67z"/>
				</g>
			</g>
			<g>
				<g>
					<path id="XMLID_102_" class="st25" d="M237.67,173.79c0.39-0.25,0.52-0.7,0.74-1.1c0.28-0.5,0.59-0.97,0.94-1.43
						c0.23-0.3-0.28-0.6-0.51-0.3c-0.27,0.36-0.53,0.73-0.76,1.12c-0.2,0.33-0.38,0.99-0.71,1.2
						C237.05,173.48,237.35,174,237.67,173.79L237.67,173.79z"/>
				</g>
			</g>
		</g>
	</g>
	<g id="XMLID_103_">
		<ellipse id="XMLID_231_" class="st22" cx="63.74" cy="377.87" rx="63.74" ry="2.11"/>
		<g id="XMLID_232_">
			<path id="XMLID_105_" class="st24" d="M85.67,156.59c-1.2-0.27-2.31-0.32-3.84-0.46c-2.28-0.21-4.36,1.27-6.09,2.77
				c-1.73,1.51-2.97,3.48-4.09,5.48c-1.14,2.04-2.21,4.41-1.53,6.65c0.17,0.57,0.46,1.13,0.45,1.72c-0.02,1.85-2.58,2.55-3.38,4.23
				c-0.99,2.07,1.03,4.85-0.34,6.69c-0.68,0.92-2,1.21-2.64,2.15c-0.51,0.74-0.49,1.71-0.45,2.61c0.01,0.18,0.03,0.39,0.16,0.51
				c0.11,0.1,0.28,0.12,0.43,0.14c7.3,0.7,14.53-0.88,21.83-0.18c0.88,0.08,1.77,0.17,2.65,0.07c1.26-0.15,2.44-0.68,3.6-1.2
				c6.31-2.88,12.63-3.62,18.79-6.79c0.26-0.13,0.53-0.28,0.66-0.54c0.1-0.2,0.1-0.43,0.07-0.65c-0.17-1.63-1.37-3.1-2.92-3.59
				c-1.61-0.5-3.53-0.06-4.87-1.08c-0.97-0.73-1.32-2.02-1.45-3.23c-0.26-2.45,0.02-5.29-1.76-7.01c-1.39-1.34-3.62-1.49-5.02-2.82
				c-0.8-0.76-1.22-1.82-1.87-2.71C92.18,156.72,88.98,155.2,85.67,156.59"/>
			<g id="XMLID_106_">
				<path id="XMLID_107_" class="st26" d="M73.47,240.95L32.77,369.73l-16.02,6.18h23.77l45.95-121.33
					c0.29-0.78,1.04-1.29,1.87-1.29l0,0c1.19,0,2.12,1.03,1.99,2.22L78.23,375.91h24.06l-16.06-5.31c0,0,14.97-70.01,18.3-91.92
					c3.33-21.91-1.5-37.39-1.5-37.39S87.43,236.34,73.47,240.95z"/>
			</g>
			<g id="XMLID_108_">
				<path id="XMLID_109_" class="st7" d="M73.94,194.6c3.73-3.9,18.56-4.34,23.92-2.14c5.36,2.2,15.22,30.68,15.22,30.68l-9.81,3.85
					l-6.09-23.81l-19.08-2.63L73.94,194.6z"/>
			</g>
			<g id="XMLID_110_">
				<path id="XMLID_111_" class="st7" d="M99.01,206.67c0,0,1.67-3.94,2.03-6.98c0.36-3.04-3.78-6.02-3.78-6.02l-22.44,5.82
					l1.4,13.37l-3.29,27.01l28.52,1.06l-2.87-34.14"/>
			</g>
			<g id="XMLID_112_">
				<path id="XMLID_113_" class="st27" d="M76.52,207.44c-0.1,0-0.19-0.03-0.27-0.09c-0.2-0.15-0.24-0.44-0.09-0.64l1.6-2.12
					c0.15-0.2,0.44-0.24,0.64-0.09c0.2,0.15,0.24,0.44,0.09,0.64l-1.59,2.12C76.79,207.38,76.66,207.44,76.52,207.44z"/>
			</g>
			<g id="XMLID_114_">
				<path id="XMLID_115_" class="st28" d="M62.27,244.47c1.72-1,3.43-2,5.15-3"/>
			</g>
			<g id="XMLID_116_">
				<path id="XMLID_117_" class="st23" d="M84.49,191.38c-0.31-2.98,1.21-6-3.6-7.93c-6.63-2.66-8.05-25.52,3.92-25.57
					c11.98-0.05,11.39,15.04,11.34,19.52c-0.05,4.48-3.99,5.62-4.98,7.24c-0.99,1.62-0.13,6.74-0.13,6.74H84.49z"/>
			</g>
			<g id="XMLID_118_">
				<ellipse id="XMLID_119_" class="st23" cx="75.39" cy="174.07" rx="2.3" ry="2.66"/>
			</g>
			<g id="XMLID_120_">
				<ellipse id="XMLID_121_" class="st23" cx="96.88" cy="172.01" rx="2.3" ry="2.66"/>
			</g>
			<path id="XMLID_122_" class="st4" d="M146.46,220.42l-3.55-9l-100.4,39.41c-3.88-5.24-10.1-8.63-17.11-8.63
				c-11.75,0-21.27,9.52-21.27,21.27c0,11.75,9.52,21.27,21.27,21.27s21.27-9.52,21.27-21.27c0-0.87-0.06-1.73-0.16-2.58
				l76.46-30.96l4.2,9.24l9.33-4.27l-3.28-7.35l3.02-1.6l3.56,7.07l6.67-3.56l-3.7-7.54L146.46,220.42z M25.4,277.33
				c-7.65,0-13.86-6.2-13.86-13.86c0-7.65,6.2-13.86,13.86-13.86c7.65,0,13.86,6.21,13.86,13.86
				C39.26,271.13,33.05,277.33,25.4,277.33z"/>
			<g id="XMLID_125_">
				<path id="XMLID_126_" class="st7" d="M73.94,194.6c0,0-25.31,22.54-25.45,26.72c-0.14,4.18,14.91,26.19,14.91,26.19l7.52-4.76
					l-10.54-19.73l17.15-16.35c0,0,0.56,3.8,1.93,4.83l0.76-15.04L73.94,194.6z"/>
			</g>
			<path id="XMLID_127_" class="st24" d="M93.75,163.14c-3.29,0.17-17.88,1.65-17.88,1.65s2.13-8.76,8.94-9.1
				C93.75,155.24,93.75,163.14,93.75,163.14z"/>
			<path id="XMLID_128_" class="st24" d="M75.9,172.39c0,0,11.82-1.11,13.89-6.69c0,0,3.92,5.02,6.22,4.76c0,0,0.38-6.6-1.05-7.49
				c-1.43-0.89-19.56,0.95-19.56,0.95S74.93,168.14,75.9,172.39z"/>
			<path class="st23" d="M63.72,247.24c0,0,3.23,6.81,3.41,6.97s0.58,1.42,2.31,0.55c0,0,0.82,2.22,1.89,1.93
				c1.07-0.29,2.16-0.94,2.16-0.94s1.3,1.73,2.26,0.81c1.12-1.07,0.06-2.25-0.74-3.54c0,0-2.5-4.48-2.25-4.75
				c0.67-0.73,1.82-0.99,4.21,1.19c2.53,2.31,4.29,0.72,2.6-1.16c-1.7-1.88-4.02-4.27-5.19-4.75c-1.17-0.48-3.11,0.25-3.11,0.25
				l-0.57-0.83L63.72,247.24z"/>
			<path id="XMLID_129_" class="st7" d="M115.47,232.97c0,0-1.81,5.15-4.98,6.02s-20.92,4.47-20.92,4.47v-7.02L115.47,232.97z"/>
			<path id="XMLID_130_" class="st23" d="M89.57,237.28h-1.35c0,0-0.3-0.95-0.5-1.26c-0.56-0.9-7.99-1.85-7.85-0.87
				c0.14,0.97,1.36,1.21,3.98,1.7c0,0-9.8,2.38-8.88,3.15c0.92,0.78,7.04-1.01,7.04-1.01s-6.63,2.16-6.16,3.63
				c0.27,0.84,6.99-1.14,6.99-1.14s-6.85,2.45-5.63,3.27c1.21,0.82,8.78-1.03,9.51-1.29c0.73-0.26,1.01-1.67,1.01-1.67l1.85-0.31
				V237.28z"/>
			<g id="XMLID_131_">
				<path id="XMLID_132_" class="st24" d="M83.99,153.02c0.26,1.08,0.37,2.43,0.99,3.38c0.26,0.39,0.89,0.03,0.63-0.37
					c-0.57-0.87-0.68-2.2-0.92-3.21C84.59,152.37,83.88,152.56,83.99,153.02L83.99,153.02z"/>
			</g>
			<g id="XMLID_133_">
				<path id="XMLID_134_" class="st24" d="M85.59,156.47c0.37-0.67,0.77-1.31,1.2-1.95c0.26-0.39-0.37-0.76-0.63-0.37
					c-0.43,0.63-0.83,1.28-1.2,1.95C84.72,156.51,85.35,156.88,85.59,156.47L85.59,156.47z"/>
			</g>
			<g id="XMLID_135_">
				<path id="XMLID_136_" class="st29" d="M87,171.88c-0.03,0.84-0.01,1.68,0.09,2.52c0.05,0.43,0.01,1.2,0.31,1.52
					c0.17,0.19,0.53,0.17,0.74,0.21c0.8,0.12,1.61,0.22,2.42,0.32c-0.04-0.1-0.09-0.21-0.13-0.31c-0.69,0.65-1.42,1.13-2.29,1.5
					c-0.22,0.09-0.03,0.41,0.18,0.32c0.9-0.38,1.66-0.88,2.37-1.55c0.13-0.12,0.02-0.29-0.13-0.31c-0.84-0.11-2.55-0.02-2.99-0.9
					c-0.41-0.83-0.24-2.41-0.21-3.3C87.38,171.64,87.01,171.64,87,171.88L87,171.88z"/>
			</g>
			<g id="XMLID_137_">
				<path id="XMLID_138_" class="st30" d="M90.77,174.4c0.11-0.84-0.43-2.79,0.63-3.2c0.94-0.36,1.53,0.42,1.67,1.21
					c0.09,0.5,0.18,0.99,0.27,1.49c0.04,0.23,0.4,0.13,0.35-0.1c-0.22-1.22-0.27-3.29-2.08-3.05c-1.69,0.23-1.07,2.57-1.21,3.64
					C90.37,174.63,90.74,174.63,90.77,174.4L90.77,174.4z"/>
			</g>
			<g id="XMLID_139_">
				<path id="XMLID_140_" class="st30" d="M81.31,174.9c0.11-0.84-0.43-2.79,0.63-3.2c0.94-0.36,1.53,0.42,1.67,1.21
					c0.09,0.5,0.18,0.99,0.27,1.49c0.04,0.23,0.4,0.13,0.35-0.1c-0.22-1.22-0.27-3.29-2.08-3.05c-1.69,0.23-1.07,2.57-1.21,3.64
					C80.91,175.13,81.28,175.13,81.31,174.9L81.31,174.9z"/>
			</g>
			<g id="XMLID_141_">
				<path id="XMLID_142_" class="st29" d="M83.81,177.02c0.39,3.05,5.56,3.66,7.45,1.81c0.17-0.17-0.09-0.42-0.26-0.26
					c-1.58,1.54-6.47,1.18-6.83-1.55C84.14,176.79,83.78,176.79,83.81,177.02L83.81,177.02z"/>
			</g>
			<g id="XMLID_143_">
				<path id="XMLID_144_" class="st29" d="M83.73,177.54c0.11-0.32,0.43-0.53,0.77-0.48c0.23,0.04,0.33-0.31,0.1-0.35
					c-0.54-0.09-1.05,0.2-1.22,0.73C83.31,177.66,83.66,177.76,83.73,177.54L83.73,177.54z"/>
			</g>
			<g id="XMLID_145_" class="st31">
				<path id="XMLID_146_" class="st32" d="M83.28,175.81c0.16,0.41-0.56,1.08-1.66,1.31c-0.53,0.12-1.09,0.1-1.4,0
					c-0.3-0.1-0.52-0.21-0.63-0.4c-0.05-0.1-0.05-0.22,0.03-0.35c0.07-0.13,0.22-0.26,0.41-0.37c0.37-0.2,0.76-0.34,1.26-0.45
					C82.24,175.35,83.11,175.39,83.28,175.81z"/>
			</g>
			<g id="XMLID_147_" class="st31">
				<path id="XMLID_148_" class="st32" d="M95.3,174.97c0.16,0.41-0.56,1.08-1.66,1.31c-0.53,0.12-1.09,0.1-1.4,0
					c-0.3-0.1-0.52-0.21-0.63-0.4c-0.05-0.1-0.05-0.22,0.03-0.35c0.07-0.13,0.22-0.26,0.41-0.37c0.37-0.2,0.76-0.34,1.26-0.45
					C94.26,174.51,95.13,174.56,95.3,174.97z"/>
			</g>
			<g id="XMLID_149_">
				<path id="XMLID_150_" class="st29" d="M75.24,172.69c-0.72,0.03-1.1,0.7-1.04,1.37c0.07,0.68,0.54,1.2,1.23,1.25
					c0.24,0.02,0.23-0.35,0-0.37c-0.97-0.07-1.28-1.85-0.2-1.89C75.48,173.05,75.48,172.68,75.24,172.69L75.24,172.69z"/>
			</g>
			<g id="XMLID_151_">
				<path id="XMLID_152_" class="st29" d="M74.26,173.69c0.35,0.44,0.88,0.67,1.43,0.63c0.23-0.02,0.24-0.38,0-0.37
					c-0.47,0.03-0.88-0.16-1.18-0.52C74.37,173.25,74.12,173.51,74.26,173.69L74.26,173.69z"/>
			</g>
			<g id="XMLID_153_">
				<path id="XMLID_154_" class="st29" d="M96.7,173.32c0.79,0.19,1.23-0.53,1.33-1.22c0.11-0.76-0.36-1.49-1.16-1.57
					c-0.23-0.02-0.23,0.35,0,0.37c0.51,0.05,0.86,0.56,0.82,1.04c-0.04,0.47-0.28,1.17-0.89,1.02
					C96.57,172.91,96.47,173.27,96.7,173.32L96.7,173.32z"/>
			</g>
			<g id="XMLID_155_">
				<path id="XMLID_156_" class="st29" d="M96.92,172.24c0.35-0.31,0.56-0.71,0.63-1.18c0.03-0.23-0.32-0.33-0.35-0.1
					c-0.06,0.4-0.23,0.74-0.54,1.01C96.48,172.14,96.74,172.4,96.92,172.24L96.92,172.24z"/>
			</g>
		</g>
	</g>
</g>
<g id="Designed_by_freepik" class="st0">
	<g class="st19">
		<g id="XMLID_158_">
			<g id="XMLID_159_">
				<path id="XMLID_160_" class="st36" d="M205.13,444.39c-0.43,0.44-0.8,0.93-1.11,1.45l-0.47-0.24c-0.07-0.3-0.35-0.5-0.66-0.47
					c-0.33,0.04-0.57,0.34-0.53,0.67c0.04,0.33,0.34,0.57,0.67,0.53c0.07-0.01,0.13-0.03,0.18-0.05l0.45,0.23
					c-0.25,0.55-0.43,1.14-0.54,1.74l0.75,0.13c0.23-1.31,0.85-2.51,1.79-3.47L205.13,444.39z"/>
				<path id="XMLID_161_" class="st36" d="M210.62,442.08c-0.17,0-0.34,0.01-0.51,0.02l-0.07-0.63c0.19-0.15,0.3-0.39,0.27-0.64
					c-0.05-0.39-0.4-0.67-0.8-0.63c-0.39,0.05-0.67,0.4-0.63,0.8c0.03,0.25,0.19,0.46,0.4,0.56l0.07,0.62
					c-0.71,0.12-1.4,0.33-2.06,0.65l0.33,0.68c0.93-0.45,1.94-0.67,3-0.67c0.5,0,0.99,0.05,1.47,0.16l0.16-0.74
					C211.72,442.14,211.17,442.08,210.62,442.08z"/>
				<path id="XMLID_162_" class="st36" d="M217.22,444.63c0.33-0.04,0.57-0.34,0.53-0.67c-0.04-0.33-0.34-0.57-0.67-0.53
					c-0.31,0.04-0.54,0.3-0.53,0.61l-0.42,0.36c-0.42-0.43-0.89-0.81-1.41-1.14l-0.4,0.64c1.13,0.71,2.02,1.73,2.56,2.93l0.69-0.31
					c-0.25-0.55-0.57-1.07-0.94-1.54l0.4-0.35C217.09,444.64,217.16,444.64,217.22,444.63z"/>
				<path id="XMLID_163_" class="st36" d="M210.07,452.29c-0.39,0.02-0.77,0.03-1.16,0.03c-0.88,0-1.73-0.06-2.48-0.18
					c-0.39-0.06-0.85-0.15-1.27-0.29c1.05,1.86,3.07,3.13,5.39,3.13c2.86,0,5.26-1.92,5.95-4.5c-0.68,0.45-1.51,0.83-2.46,1.12
					C212.87,451.97,211.49,452.21,210.07,452.29z"/>
				<path id="XMLID_164_" class="st36" d="M210.62,443.6c-3.35,0-6.08,2.67-6.08,5.94c0,0.43,0.05,0.85,0.14,1.26
					c0.67,0.48,2.71,0.89,5.35,0.73c2.88-0.17,5.3-0.96,6.67-2.16c-0.01-0.2-0.02-0.39-0.05-0.58
					C216.27,445.83,213.68,443.6,210.62,443.6z M208.46,450.12c-1.02,0-1.85-0.83-1.85-1.85c0-1.02,0.83-1.85,1.85-1.85
					c1.02,0,1.85,0.83,1.85,1.85C210.31,449.29,209.48,450.12,208.46,450.12z M213.2,449.21c-0.75,0-1.36-0.61-1.36-1.36
					s0.61-1.36,1.36-1.36c0.75,0,1.36,0.61,1.36,1.36S213.95,449.21,213.2,449.21z"/>
			</g>
			<path id="XMLID_168_" class="st36" d="M226.62,445.47c-0.29-0.12-0.81-0.31-1.38-0.24c-0.55,0.07-0.84,0.34-0.84,1.01v0.87h2.23
				v1.72h-2.23v5.45h-1.93v-5.45h-1.34v-1.72h1.34v-0.89c0-1.68,0.9-2.78,2.57-2.78c0.64,0,1.16,0.12,1.59,0.31L226.62,445.47z"/>
			<path id="XMLID_170_" class="st36" d="M231.33,448.8c-0.18-0.03-0.36-0.05-0.53-0.05c-0.9,0-1.51,0.55-1.51,1.61v3.91h-1.93
				v-7.17h1.87v0.78c0.45-0.67,1.14-0.98,2.02-0.98c0.41,0,0.85,0.13,1.09,0.34L231.33,448.8z"/>
			<path id="XMLID_172_" class="st36" d="M238.99,450.68c0,0.22-0.01,0.49-0.04,0.65h-5.08c0.21,1.04,0.93,1.49,1.84,1.49
				c0.62,0,1.3-0.25,1.81-0.69l1.13,1.24c-0.81,0.75-1.85,1.09-3.06,1.09c-2.2,0-3.72-1.5-3.72-3.75c0-2.26,1.48-3.8,3.63-3.8
				C237.57,446.91,238.99,448.44,238.99,450.68z M233.88,450.01h3.18c-0.18-0.92-0.73-1.44-1.56-1.44
				C234.58,448.58,234.05,449.12,233.88,450.01z"/>
			<path id="XMLID_175_" class="st36" d="M246.65,450.68c0,0.22-0.01,0.49-0.04,0.65h-5.08c0.21,1.04,0.93,1.49,1.84,1.49
				c0.62,0,1.3-0.25,1.81-0.69l1.13,1.24c-0.81,0.75-1.85,1.09-3.06,1.09c-2.2,0-3.72-1.5-3.72-3.75c0-2.26,1.48-3.8,3.63-3.8
				C245.23,446.91,246.64,448.44,246.65,450.68z M241.53,450.01h3.18c-0.18-0.92-0.73-1.44-1.56-1.44
				C242.24,448.58,241.7,449.12,241.53,450.01z"/>
			<path id="XMLID_178_" class="st36" d="M254.99,450.69c0,2.15-1.5,3.77-3.47,3.77c-0.96,0-1.64-0.38-2.11-0.93v3.71h-1.92V447.1
				h1.89v0.79c0.47-0.58,1.15-0.98,2.14-0.98C253.5,446.91,254.99,448.53,254.99,450.69z M249.32,450.69c0,1.13,0.75,1.98,1.84,1.98
				c1.14,0,1.85-0.88,1.85-1.98c0-1.1-0.71-1.98-1.85-1.98C250.06,448.71,249.32,449.55,249.32,450.69z"/>
			<path id="XMLID_181_" class="st36" d="M258.1,444.76c0,0.7-0.54,1.23-1.24,1.23c-0.7,0-1.23-0.53-1.23-1.23
				c0-0.7,0.53-1.24,1.23-1.24C257.56,443.51,258.1,444.06,258.1,444.76z M257.84,454.28h-1.93v-7.17h1.93V454.28z"/>
			<path id="XMLID_184_" class="st36" d="M261.06,449.66l2.7-2.55h2.37l-3.48,3.38l3.5,3.8h-2.38l-2.72-2.9v2.9h-1.93v-10.66h1.93
				V449.66z"/>
		</g>
		<g id="XMLID_186_">
			<path id="XMLID_187_" class="st36" d="M129.44,454.21v-1.05c-0.53,0.72-1.39,1.23-2.39,1.23c-1.85,0-3.15-1.41-3.15-3.71
				c0-2.26,1.29-3.72,3.15-3.72c0.95,0,1.82,0.47,2.39,1.25v-3.76h1.1v9.77H129.44z M129.44,452.29v-3.21
				c-0.4-0.62-1.24-1.14-2.12-1.14c-1.42,0-2.27,1.17-2.27,2.74c0,1.57,0.85,2.72,2.27,2.72
				C128.2,453.4,129.05,452.91,129.44,452.29z"/>
			<path id="XMLID_190_" class="st36" d="M131.96,450.67c0-2.05,1.46-3.71,3.49-3.71c2.14,0,3.4,1.67,3.4,3.79v0.28h-5.73
				c0.09,1.33,1.03,2.45,2.55,2.45c0.81,0,1.63-0.32,2.18-0.89l0.53,0.72c-0.7,0.7-1.65,1.08-2.81,1.08
				C133.47,454.39,131.96,452.88,131.96,450.67z M135.43,447.87c-1.51,0-2.26,1.27-2.31,2.36h4.64
				C137.75,449.17,137.04,447.87,135.43,447.87z"/>
			<path id="XMLID_193_" class="st36" d="M139.64,453.27l0.57-0.79c0.47,0.54,1.36,1.01,2.33,1.01c1.08,0,1.67-0.51,1.67-1.22
				c0-1.71-4.38-0.66-4.38-3.28c0-1.1,0.95-2.04,2.64-2.04c1.2,0,2.05,0.45,2.62,1.03l-0.51,0.76c-0.42-0.51-1.2-0.89-2.11-0.89
				c-0.97,0-1.57,0.48-1.57,1.11c0,1.55,4.38,0.53,4.38,3.28c0,1.19-0.95,2.14-2.78,2.14C141.33,454.39,140.35,454.03,139.64,453.27
				z"/>
			<path id="XMLID_195_" class="st36" d="M146.51,445.39c0-0.41,0.34-0.75,0.73-0.75c0.41,0,0.75,0.34,0.75,0.75
				c0,0.41-0.34,0.73-0.75,0.73C146.84,446.12,146.51,445.8,146.51,445.39z M146.7,454.21v-7.07h1.1v7.07H146.7z"/>
			<path id="XMLID_198_" class="st36" d="M149.61,456.03l0.56-0.82c0.59,0.7,1.29,0.97,2.3,0.97c1.17,0,2.27-0.57,2.27-2.12v-1.01
				c-0.51,0.72-1.38,1.26-2.37,1.26c-1.85,0-3.15-1.38-3.15-3.66c0-2.27,1.29-3.68,3.15-3.68c0.95,0,1.8,0.47,2.37,1.25v-1.07h1.1
				v6.87c0,2.34-1.64,3.08-3.37,3.08C151.27,457.08,150.45,456.85,149.61,456.03z M154.74,452.17v-3.09
				c-0.38-0.62-1.23-1.14-2.11-1.14c-1.42,0-2.27,1.13-2.27,2.7c0,1.55,0.85,2.7,2.27,2.7
				C153.51,453.33,154.36,452.79,154.74,452.17z"/>
			<path id="XMLID_201_" class="st36" d="M162.44,454.21v-4.63c0-1.24-0.63-1.64-1.58-1.64c-0.86,0-1.68,0.53-2.09,1.1v5.17h-1.1
				v-7.07h1.1v1.03c0.5-0.59,1.46-1.2,2.52-1.2c1.48,0,2.26,0.75,2.26,2.29v4.97H162.44z"/>
			<path id="XMLID_203_" class="st36" d="M164.96,450.67c0-2.05,1.46-3.71,3.49-3.71c2.14,0,3.4,1.67,3.4,3.79v0.28h-5.73
				c0.09,1.33,1.03,2.45,2.55,2.45c0.81,0,1.63-0.32,2.18-0.89l0.53,0.72c-0.7,0.7-1.66,1.08-2.81,1.08
				C166.47,454.39,164.96,452.88,164.96,450.67z M168.43,447.87c-1.51,0-2.26,1.27-2.31,2.36h4.64
				C170.75,449.17,170.04,447.87,168.43,447.87z"/>
			<path id="XMLID_206_" class="st36" d="M178.38,454.21v-1.05c-0.53,0.72-1.39,1.23-2.39,1.23c-1.85,0-3.15-1.41-3.15-3.71
				c0-2.26,1.29-3.72,3.15-3.72c0.95,0,1.82,0.47,2.39,1.25v-3.76h1.1v9.77H178.38z M178.38,452.29v-3.21
				c-0.4-0.62-1.25-1.14-2.12-1.14c-1.42,0-2.27,1.17-2.27,2.74c0,1.57,0.85,2.72,2.27,2.72
				C177.13,453.4,177.98,452.91,178.38,452.29z"/>
			<path id="XMLID_209_" class="st36" d="M184.72,454.21v-9.77h1.1v3.76c0.57-0.78,1.42-1.25,2.39-1.25c1.85,0,3.15,1.46,3.15,3.72
				c0,2.3-1.3,3.71-3.15,3.71c-1,0-1.86-0.51-2.39-1.23v1.05H184.72z M187.93,453.4c1.44,0,2.29-1.16,2.29-2.72
				c0-1.57-0.85-2.74-2.29-2.74c-0.86,0-1.73,0.53-2.11,1.14v3.21C186.2,452.91,187.06,453.4,187.93,453.4z"/>
			<path id="XMLID_214_" class="st36" d="M192.56,455.98c0.16,0.07,0.43,0.12,0.6,0.12c0.48,0,0.81-0.16,1.05-0.75l0.47-1.07
				l-2.96-7.15h1.19l2.36,5.8l2.34-5.8h1.2l-3.54,8.51c-0.42,1.03-1.14,1.42-2.08,1.44c-0.23,0-0.6-0.04-0.81-0.1L192.56,455.98z"/>
		</g>
	</g>
</g>
</svg>
