<?xml version="1.0" encoding="utf-8"?>
<!-- Generator: Adobe Illustrator 19.0.0, SVG Export Plug-In . SVG Version: 6.00 Build 0)  -->
<svg version="1.1" xmlns="http://www.w3.org/2000/svg" xmlns:xlink="http://www.w3.org/1999/xlink" x="0px" y="0px"
	 viewBox="0 0 440.09 310.73" style="enable-background:new 0 0 440.09 310.73;" xml:space="preserve">
<style type="text/css">
	.st0{display:none;}
	.st1{display:inline;fill:#FFFFFF;}
	.st2{fill:#EBEDFF;}
	.st3{fill:#D2D5FB;}
	.st4{fill:#BABFE8;}
	.st5{fill:#FFFFFF;}
	.st6{fill:#9BA3D3;}
	.st7{fill:#BA95F4;}
	.st8{fill:#FFA683;}
	.st9{fill:#E6E1EF;}
	.st10{opacity:0.42;fill:#7327CC;}
	.st11{fill:#5725A5;}
	.st12{opacity:0.35;fill:#441982;}
	.st13{fill:#441982;}
	.st14{fill:#F48260;}
	.st15{fill:#7327CC;}
	.st16{fill:#976CEA;}
	.st17{opacity:0.25;}
	.st18{display:inline;}
	.st19{fill:#1D262D;}
</style>
<g id="BACKGROUND" class="st0">
	<rect x="-29.96" y="-88.31" class="st1" width="500" height="500"/>
</g>
<g id="OBJECTS">
	<g>
		<g>
			<g>
				<path class="st2" d="M54.88,309.21h343.69c10.94-16.72,63.16-99.87,31.41-117.58c-35.34-19.71-28.41-24.78-27.6-115.54
					c0.88-98.65-57.5-85.15-154.01-49.81c-96.51,35.34-91.95-7.63-166.04,13.86C8.56,61.54,75.89,144.74,19.48,206.59
					C-27.75,258.38,33.66,297.77,54.88,309.21z"/>
				<path class="st2" d="M141.13,21.61c0,0,33.16,24.57,92.16,0.52C292.3-1.93,117.87,0.33,141.13,21.61z"/>
			</g>
			<g>
				<rect x="125.24" y="245.47" class="st3" width="70.92" height="63.74"/>
				<rect x="130.55" y="250.79" class="st4" width="60.29" height="15.17"/>
				<rect x="130.55" y="269.9" class="st4" width="60.29" height="15.17"/>
				<rect x="130.55" y="289.79" class="st4" width="60.29" height="15.17"/>
				<circle class="st2" cx="160.7" cy="258.81" r="3.01"/>
				<circle class="st2" cx="160.7" cy="277.83" r="3.01"/>
				<circle class="st2" cx="160.7" cy="298.87" r="3.01"/>
			</g>
			<g>
				<path class="st5" d="M196.9,59.91H79.67c-3.79,0-6.86,3.07-6.86,6.86v75.54c0,3.79,3.07,6.86,6.86,6.86H196.9
					c3.79,0,6.86-3.07,6.86-6.86V66.76C203.75,62.98,200.68,59.91,196.9,59.91z"/>
				<path class="st2" d="M79.67,144.04c-0.96,0-1.74-0.78-1.74-1.74V66.76c0-0.96,0.78-1.74,1.74-1.74H196.9
					c0.96,0,1.74,0.78,1.74,1.74v75.54c0,0.96-0.78,1.74-1.74,1.74H79.67z"/>
				<g>
					<path class="st4" d="M196.9,65.03h-34.08c1.84,8.86,8.79,37.93,23.27,52.42h12.55V66.76C198.63,65.81,197.85,65.03,196.9,65.03
						z"/>
					<polygon class="st3" points="186.08,117.45 186.08,125.15 198.43,125.15 198.63,117.45 					"/>
					<path class="st4" d="M198.63,142.3v-17.04l-0.2-0.12h-12.35c0,0-5.89,15.23-6.23,18.8l0.2,0.09h16.84
						C197.85,144.04,198.63,143.26,198.63,142.3z"/>
				</g>
				<g>
					<path class="st4" d="M79.94,65.03h34.08c-1.84,8.86-8.79,37.93-23.27,52.42H78.2V66.76C78.2,65.81,78.98,65.03,79.94,65.03z"/>
					<polygon class="st3" points="90.75,117.45 90.75,125.15 78.4,125.15 78.2,117.45 					"/>
					<path class="st4" d="M78.2,142.3v-17.04l0.2-0.12h12.35c0,0,5.89,15.23,6.23,18.8l-0.2,0.09H79.94
						C78.98,144.04,78.2,143.26,78.2,142.3z"/>
				</g>
			</g>
			<g>
				<path class="st3" d="M307.32,63.96h-57.98c-1.87,0-3.39,1.52-3.39,3.39v37.37c0,1.87,1.52,3.39,3.39,3.39h57.98
					c1.87,0,3.39-1.52,3.39-3.39V67.35C310.71,65.48,309.19,63.96,307.32,63.96z"/>
				<g>
					<path class="st4" d="M310.71,70.38v-3.03c0-1.87-1.52-3.39-3.39-3.39h-57.98c-1.87,0-3.39,1.52-3.39,3.39v3.03H310.71z"/>
					<path class="st2" d="M259.47,76.57h-8.91c-0.45,0-0.81,0.36-0.81,0.81v8.88c0,0.45,0.36,0.81,0.81,0.81h8.91
						c0.45,0,0.81-0.36,0.81-0.81v-8.88C260.27,76.93,259.91,76.57,259.47,76.57z"/>
					<path class="st5" d="M275.06,76.57h-8.91c-0.45,0-0.81,0.36-0.81,0.81v8.88c0,0.45,0.36,0.81,0.81,0.81h8.91
						c0.45,0,0.81-0.36,0.81-0.81v-8.88C275.87,76.93,275.51,76.57,275.06,76.57z"/>
					<path class="st4" d="M290.57,76.57h-8.91c-0.45,0-0.81,0.36-0.81,0.81v8.88c0,0.45,0.36,0.81,0.81,0.81h8.91
						c0.45,0,0.81-0.36,0.81-0.81v-8.88C291.38,76.93,291.02,76.57,290.57,76.57z"/>
					<path class="st2" d="M305.57,76.57h-8.91c-0.45,0-0.81,0.36-0.81,0.81v8.88c0,0.45,0.36,0.81,0.81,0.81h8.91
						c0.45,0,0.81-0.36,0.81-0.81v-8.88C306.37,76.93,306.01,76.57,305.57,76.57z"/>
					<path class="st4" d="M259.47,91.2h-8.91c-0.45,0-0.81,0.36-0.81,0.81v8.88c0,0.45,0.36,0.81,0.81,0.81h8.91
						c0.45,0,0.81-0.36,0.81-0.81V92C260.27,91.56,259.91,91.2,259.47,91.2z"/>
					<path class="st2" d="M275.06,91.2h-8.91c-0.45,0-0.81,0.36-0.81,0.81v8.88c0,0.45,0.36,0.81,0.81,0.81h8.91
						c0.45,0,0.81-0.36,0.81-0.81V92C275.87,91.56,275.51,91.2,275.06,91.2z"/>
					<path class="st5" d="M290.57,91.2h-8.91c-0.45,0-0.81,0.36-0.81,0.81v8.88c0,0.45,0.36,0.81,0.81,0.81h8.91
						c0.45,0,0.81-0.36,0.81-0.81V92C291.38,91.56,291.02,91.2,290.57,91.2z"/>
					<path class="st2" d="M305.57,91.2h-8.91c-0.45,0-0.81,0.36-0.81,0.81v8.88c0,0.45,0.36,0.81,0.81,0.81h8.91
						c0.45,0,0.81-0.36,0.81-0.81V92C306.37,91.56,306.01,91.2,305.57,91.2z"/>
				</g>
			</g>
			<g>
				<rect x="199.72" y="198.49" class="st3" width="206.05" height="7.52"/>
				<rect x="212.26" y="206.01" class="st3" width="176.86" height="103.58"/>
				<rect x="212.26" y="206.01" class="st4" width="176.86" height="11.05"/>
			</g>
			<g>
				<circle class="st3" cx="357.59" cy="61.61" r="23.21"/>
				<g>
					<circle class="st2" cx="357.59" cy="61.61" r="17.1"/>
					<g>
						<path class="st3" d="M352.21,69.09c-0.21,0-0.43-0.09-0.58-0.26c-0.28-0.32-0.24-0.8,0.08-1.08l5.3-4.58V51.12
							c0-0.42,0.34-0.76,0.76-0.76c0.42,0,0.76,0.34,0.76,0.76v12.4c0,0.22-0.1,0.43-0.26,0.58l-5.57,4.81
							C352.57,69.03,352.39,69.09,352.21,69.09z"/>
					</g>
				</g>
			</g>
			<g>
				<path class="st3" d="M290.93,180.11h-67.16c-3.37,0-6.1-2.73-6.1-6.1v-37.03c0-3.37,2.73-6.1,6.1-6.1h67.16
					c3.37,0,6.1,2.73,6.1,6.1v37.03C297.03,177.38,294.3,180.11,290.93,180.11z"/>
				<path class="st4" d="M293,131.26c-2.35,0.85-4.03,3.09-4.03,5.73v37.03c0,2.64,1.68,4.88,4.03,5.73
					c2.35-0.85,4.03-3.09,4.03-5.73v-37.03C297.03,134.35,295.35,132.1,293,131.26z"/>
				<path class="st4" d="M270.97,192.93h-8.85v-33.4h-17.6v33.4v5.16h26.45c1.42,0,2.58-1.16,2.58-2.58
					C273.55,194.08,272.4,192.93,270.97,192.93z"/>
				<path class="st4" d="M270.83,192.93h-8.7v-33.4h-17.6v33.4l0,0c0,2.85,2.31,5.16,5.16,5.16h21.29c1.47,0,2.65-1.23,2.58-2.72
					C273.47,193.98,272.22,192.93,270.83,192.93z"/>
				<path class="st6" d="M273.55,195.51c0-1.42-1.16-2.58-2.58-2.58h-8.85v-33.4h-5.97v33.4c0,2.85,2.31,5.16,5.16,5.16h9.65
					C272.4,198.09,273.55,196.93,273.55,195.51z"/>
				<path class="st4" d="M273.89,134.58h-39.15c-0.94,0-1.71,0.77-1.71,1.71l0,0c0,0.94,0.77,1.71,1.71,1.71h39.15
					c0.94,0,1.71-0.77,1.71-1.71l0,0C275.6,135.35,274.84,134.58,273.89,134.58z"/>
			</g>
			<rect x="314.96" y="182.79" class="st4" width="65.92" height="15.81"/>
			<rect x="308.62" y="171.75" class="st3" width="67.96" height="11.05"/>
			<rect x="315.24" y="157.9" class="st3" width="65.15" height="13.83"/>
			<rect x="315.24" y="166.88" class="st4" width="65.15" height="4.85"/>
			<g>
				<g>
					<path class="st4" d="M58.5,258.57l1.15,0.24c1.35-3.61,2.57-9.19,0.59-15.04c-3.38-9.98-5-22.56-11.46-32
						c-8.83-12.9-10.94-40.94-10.94-40.94s-10.74,22.25-3.42,43.22c7.32,20.97,15.98,26.46,20.36,30.56
						C59.45,248.98,59.36,254.65,58.5,258.57z"/>
					<path class="st6" d="M58.74,258.62l0.9,0.19c1.35-3.61,2.57-9.19,0.59-15.04c-3.38-9.98-5-22.56-11.46-32
						c-8.83-12.9-10.94-40.94-10.94-40.94s-5.94,29.98,0.94,40.54c6.88,10.56,7.19,7.99,12.14,18.02
						c4.94,10.03,6.51,12.88,8.01,18.71C59.88,251.83,59.29,256.05,58.74,258.62z"/>
				</g>
				<g>
					<path class="st4" d="M64.2,266.76c0,0,2.2-3.28,0.91-15.5c-1.29-12.23-4.8-23.92-2.83-37.26
						c1.97-13.34,16.51-47.16,16.59-49.39c0.08-2.23,3.85,38.92-3.66,55.31c-7.51,16.4-8.46,22.05-8.24,30.59
						c0.21,8.54-0.27,15.42-1.1,17.43L64.2,266.76z"/>
					<path class="st6" d="M65.85,242.08c0.78,5.45,1.11,19.15-0.28,22.46c-0.13,0.31-0.31,0.14-0.53-0.42
						c0.44-2.28,0.76-6.25,0.07-12.86c-1.29-12.23-4.8-23.92-2.83-37.26c1.97-13.34,16.51-47.16,16.59-49.39
						c0,0-2.49,27.98-9.9,47.36C63.66,225.84,65.07,236.63,65.85,242.08z"/>
				</g>
				<g>
					<path class="st4" d="M72.07,264.17c0,0-6.37-17.55,4.27-32.68c10.64-15.13,27.68-34.55,27.99-42.27c0,0,4.52,36.66-9.36,46.98
						c-13.89,10.32-23.64,11.94-21.17,27.91L72.07,264.17z"/>
					<path class="st6" d="M86.97,228.8c-15.48,12.51-16.7,26.98-14.27,33.7c0.19,0.52,0.54,0.84,1.01,1.02
						c-2.13-15.41,7.54-17.13,21.25-27.32c13.89-10.32,9.36-46.98,9.36-46.98S102.45,216.29,86.97,228.8z"/>
				</g>
				<g>
					<path class="st4" d="M53.04,268.44l-3.5-12.66C36.5,209.53,0,207.99,0,207.99c3.81,0.76,23.62,15.86,26.69,29.29
						c1.44,6.31,7.89,10.79,13.58,13.76c4.11,2.14,7.14,5.92,8.41,10.37c1.09,3.81,1.66,7.19,1.66,7.19L53.04,268.44z"/>
					<path class="st6" d="M33.19,237.92c4.27,8.18,9.76,11.51,14.69,12.63C33.67,209.43,0,207.99,0,207.99
						c0.75,0.15,2.15,0.88,3.9,2.03C10.92,213.93,25.66,223.47,33.19,237.92z"/>
				</g>
				<g>
					<path class="st3" d="M80.56,257.33H42.42c-4.55,0-8,4.11-7.21,8.6l6.85,38.62c0.48,2.72,2.85,4.7,5.61,4.7h27.65
						c2.76,0,5.12-1.98,5.61-4.7l6.85-38.62C88.56,261.45,85.11,257.33,80.56,257.33z"/>
					<path class="st4" d="M87.61,262.66c-0.86-3.03-3.64-5.33-7.05-5.33H42.42c-3.4,0-6.19,2.3-7.05,5.33H87.61z"/>
					<path class="st4" d="M80.56,257.33h-9.73c4.55,0,8,4.11,7.21,8.6l-6.85,38.62c-0.48,2.72-2.84,4.7-5.61,4.7h9.73
						c2.76,0,5.12-1.98,5.61-4.7l6.85-38.62C88.56,261.45,85.11,257.33,80.56,257.33z"/>
				</g>
			</g>
			<g>
				<g>
					<g>
						<path class="st7" d="M337.64,129.47c3.28,0.56,18.91,3.24,21.96,5.36c2.62,1.83,15.34,39.01,12.66,40.95
							c-2.68,1.94-18.61,3.72-18.61,3.72l1.79,13.42l-18.23,4.15c-4.38,1-8.91,1.09-13.32,0.29l-15.35-2.8l3.13-38.74l-20.42,11.73
							c-1.49,0.78-3.32,0.22-4.13-1.25l-21.76-37.62l6.15-2.9l18.71,22.45l18.02-14.29c0,0,4.06-2.83,18.98-4.09L337.64,129.47z"/>
						<path class="st8" d="M271.04,126.18c0,0-3.16-6.48-4.29-6.8c-1.13-0.32-0.1,2.61-0.1,2.61s-3.94-3.02-7.05-2.59
							c-3.11,0.43,5.74,6.03,6.62,9.05C266.22,128.45,271.23,126.21,271.04,126.18z"/>
						<g>
							<g>
								<path class="st5" d="M288.19,174.67h32.43c1.75,0,3.17-1.42,3.17-3.17v-19.27c0-1.75-1.42-3.17-3.17-3.17h-32.43
									c-1.75,0-3.17,1.42-3.17,3.17v19.27C285.03,173.25,286.44,174.67,288.19,174.67z"/>
								<path class="st5" d="M305.65,174.67h27.44c1.48,0,2.68-1.2,2.68-2.68v0.29c0-1.48-1.2-2.68-2.68-2.68h-27.44
									c-1.48,0-2.68,1.2-2.68,2.68v-0.29C302.97,173.47,304.17,174.67,305.65,174.67z"/>
								<path class="st9" d="M326.92,169.61v1.9c0,1.74-1.41,3.15-3.14,3.17h-3.13c1.74-0.01,3.14-1.42,3.14-3.17v-1.9H326.92z"/>
							</g>
							<circle class="st9" cx="302.88" cy="163.43" r="4.42"/>
						</g>
						<path class="st10" d="M352.93,162.4l-3.7-15.94l7.11,18.58c0.65,1.61-0.34,3.41-2.05,3.72l-18.61,4.22l14.56-5.69
							C352.3,166.63,353.47,164.49,352.93,162.4z"/>
						<polygon class="st7" points="353.39,179.59 331.64,181.48 331.34,174.01 354.3,168.76 						"/>
						<path class="st10" d="M344.96,182.81c0.51,0.23,1.12,6.49,1.57,12.17l8.64-1.97l-1.79-13.42l-21.75,1.89
							C331.64,181.48,344.02,182.38,344.96,182.81z"/>
						<path class="st8" d="M331.58,179.67c0,0-3.82,1.24-8.59-3.54c-0.51-0.51-0.15-1.39,0.57-1.39l7.72-0.06L331.58,179.67z"/>
					</g>
					<g>
						<g>
							<path class="st11" d="M353.66,299.43l-10.77-0.16c-2.05-7.43-12.33-85.73-12.33-85.73l-13.4,28.58l6.57,57.12l-10.06,0.06
								c0,0-15.79-49.37-15.79-59.64c0-7.83,7.89-33.16,11.65-44.77l0.3-0.08l14.03,2.56c4.41,0.81,8.94,0.71,13.32-0.29l16.41-3.73
								l0.03,0.02C355.27,214.8,353.66,299.43,353.66,299.43z"/>
							<path class="st12" d="M353.66,299.43c0,0,0.78-38.65,0.73-69.97c0-0.03,0-0.05,0-0.08c0-0.68,0-1.37,0-2.04
								c0-0.28,0-0.56,0-0.85c0-0.42,0-0.83,0-1.24c-0.05-13.59-0.26-25.5-0.75-31.88l-7.11,1.62l0,0l3.35,104.29l3.65,0.15
								L353.66,299.43z"/>
							<polygon class="st13" points="320.99,299.33 323.74,299.23 317.17,242.12 330.57,213.53 310.96,241.45 							"/>
						</g>
						<path class="st13" d="M314.51,299.25c-2.41,4.83-13.68,7.18-13.68,7.18s-0.82,1.42,0.44,3.24c1.27,1.82,13.11,0.82,14.6,0.5
							c1.49-0.32,2.52-1.51,2.52-1.51s0.99,1.09,1.54,1.36c0.55,0.27,3.58-0.31,3.58-0.31c0.73-1.92,0.08-9.29-0.11-10.47H314.51z"
							/>
						<path class="st13" d="M343.57,299.25c-2.41,4.83-13.68,7.18-13.68,7.18s-0.82,1.42,0.44,3.24c1.27,1.82,13.11,0.82,14.6,0.5
							c1.49-0.32,2.52-1.51,2.52-1.51s0.99,1.09,1.54,1.36c0.55,0.27,3.58-0.31,3.58-0.31c0.73-1.92,0.08-9.29-0.11-10.47H343.57z"
							/>
					</g>
					<g>
						<g>
							<path class="st8" d="M336.32,120.36v9.02l-5.31,3.8l-3.58-3.45l0.08-3.7c0.45,0.09,0.91,0.14,1.38,0.14
								c3.46,0,6.37-2.47,7.21-5.82C336.18,120.36,336.25,120.36,336.32,120.36z"/>
							<path class="st8" d="M338.47,114.54c-1.05-1.12-2.27-0.21-2.27-0.21s-0.02,0.02-0.05,0.05c-3.12-0.74-7.46-4.05-7.46-4.05
								c-2.93,1.77-7.25,3.37-7.25,3.37v4.68c0,4.31,3.33,7.8,7.45,7.8c3.46,0,6.37-2.48,7.21-5.83
								C338.66,120.69,339.51,115.64,338.47,114.54z"/>
							<path class="st13" d="M336.34,123.88l-0.02-0.01v-3.51c2.39,0.05,3.15-4.74,2.15-5.82c-1.05-1.12-2.27-0.22-2.27-0.22
								s-0.02,0.02-0.05,0.05c-3.11-0.74-7.44-2.44-7.44-2.44c-3.76,2.22-7.28,1.76-7.28,1.76c-1.09-0.26-5.33-1.68-5.16-7.17
								c0.17-5.55,15.08-12.01,23.33-2.97C342.84,107.09,344.74,122.41,336.34,123.88z"/>
						</g>
						<path class="st14" d="M328.89,126.17c-0.47,0-0.93-0.06-1.38-0.15l-0.08,3.71l2.31,2.23v-4.35c5.95,0,6.36-7.26,6.36-7.26
							C335.27,123.69,332.35,126.17,328.89,126.17z"/>
						<path class="st13" d="M336.2,114.32c0,0-0.02,0.02-0.05,0.05c-0.42-0.1-0.88-0.25-1.34-0.44c0.15,1.89,0.21,6.6-2.33,9.14
							c-0.61-0.78-2.04-2.45-3.37-2.71c-1.25-0.24-3.14-0.07-4.11,0.05c-0.4,0.05-0.78,0.22-1.07,0.5l-1.3,1.23
							c-0.32-0.43-0.63-0.93-0.88-1.51c0.93,3.21,3.77,5.54,7.14,5.54c3.46,0,6.37-2.47,7.21-5.82c0.22,0.03,0.42,0.01,0.62-0.04
							v-0.01L336.2,114.32z M330.18,123.25c-3.09,1.44-5.23,0.28-5.81-0.44c-0.13-0.17-0.12-0.41,0.03-0.56l0.52-0.57
							c0.59-0.65,2.52-0.41,3.32-0.41c0.85,0,1.49,0.72,1.96,1.22C330.39,122.68,330.42,123.13,330.18,123.25z"/>
					</g>
				</g>
				<g>
					<path class="st11" d="M245.17,299.24c-1.33-39.47-6.54-111.76-6.54-111.76h-39.36c0,0-5.21,72.29-6.54,111.76h11.2
						c0,0,12.72-84.9,15.18-92.67c2.47,7.77,14.86,92.67,14.86,92.67H245.17z"/>
					<path class="st11" d="M245.17,299.24h-3.51l-11.44-111.76h8.4C238.63,187.48,243.85,259.77,245.17,299.24z"/>
					<path class="st12" d="M245.17,299.24h-3.51l-11.44-111.76h8.4C238.63,187.48,243.85,259.77,245.17,299.24z"/>
					<path class="st13" d="M193.98,299.25c-2.41,4.83-13.68,7.18-13.68,7.18s-0.82,1.42,0.44,3.24c1.27,1.82,13.11,0.82,14.6,0.5
						c1.49-0.32,2.52-1.51,2.52-1.51s0.99,1.09,1.54,1.36c0.55,0.27,3.58-0.31,3.58-0.31c0.73-1.92,0.08-9.29-0.11-10.47H193.98z"/>
					<path class="st13" d="M243.75,299.25c2.41,4.83,13.68,7.18,13.68,7.18s0.82,1.42-0.44,3.24c-1.27,1.82-13.11,0.82-14.6,0.5
						c-1.49-0.32-2.52-1.51-2.52-1.51s-0.99,1.09-1.54,1.36c-0.55,0.27-3.58-0.31-3.58-0.31c-0.73-1.92-0.08-9.29,0.11-10.47H243.75
						z"/>
					<g>
						<polygon class="st5" points="227.22,124.95 224.55,124.17 220.41,124.17 219.28,124.17 215.14,124.17 212.47,124.95 
							205.82,187.26 219.28,187.26 220.41,187.26 233.87,187.26 						"/>
						<path class="st15" d="M212.47,124.95c0,0-16.52,4.6-19.18,8.43c-2.49,3.58-12.02,23.13-11.38,34.78
							c0.07,1.26,1.19,2.2,2.45,2.04l12.59-2.78l-4.55,25.11c0,0,12.97,2.61,20.29,2.16L212.47,124.95z"/>
						<path class="st15" d="M227.22,124.95c0,0,16.52,4.6,19.18,8.43c2.49,3.58,12.27,22.35,11.64,34c-0.07,1.26-1.19,2.2-2.45,2.04
							l-12.85-2l4.55,25.11c0,0-12.87,2.94-20.19,2.49L227.22,124.95z"/>
						<path class="st7" d="M224.52,130.63l-4.62-2.57l-4.29,2.57l2.74,3.78c0,0-2.62,38.63-2.72,42.76
							c-0.01,0.62,1.62,2.64,3.11,4.35c0.41,0.47,0.81,0.92,1.16,1.31c0.35-0.39,0.75-0.84,1.16-1.31c1.49-1.71,3.12-3.73,3.11-4.35
							c-0.1-4.13-2.42-42.61-2.42-42.61L224.52,130.63z"/>
						<polygon class="st15" points="196.95,167.41 235.86,160.87 233.75,151.83 189.35,156.16 						"/>
						<path class="st8" d="M235.27,159.91c0,0,5.69-1.85,7.61-1.55c1.92,0.3,1.03-6.32-9.13-6.52L235.27,159.91z"/>
						<path class="st8" d="M210.13,154.02c0,0-3.27-3.38-8.37-2.94c-2.82,0.24-4.93,4.21-4.93,4.21L210.13,154.02z"/>
						<polygon class="st12" points="195.23,176.9 212.54,164.8 196.95,167.41 						"/>
						<polygon class="st12" points="196.82,155.29 193.7,155.21 200.02,145.56 						"/>
						<path class="st12" d="M243.01,158.39c0,0,3.23,0.06,3.57-0.45c0.34-0.51-4.06-11.31-4.06-11.31S245.76,157.46,243.01,158.39z"
							/>
						<path class="st12" d="M247.29,192.52l-2.57-14.22h0l-1.97-10.89l-15.59-2.72l0,0.88l11.45,8.29l3.39,19.72
							C245.09,193.03,247.29,192.52,247.29,192.52z"/>
					</g>
					<path class="st13" d="M219.03,206.55L219.03,206.55c-2.18,1.82-3.64,4.35-4.13,7.15L200,299.24h3.93
						C203.93,299.24,214.42,227.82,219.03,206.55z"/>
					<g>
						<polygon class="st8" points="223.99,123.81 220.06,126.21 215.86,123.81 215.86,115.96 223.99,115.96 						"/>
						<path class="st13" d="M209.58,109.64c0,0-1.63-6.08,0.05-9.15c1.68-3.07,4.52-6.47,7.3-4.55c0,0,1.67-2.19,7.56-0.76
							c5.89,1.44,8.8,1.48,10.9,0.38c2.11-1.1,0.49,9.72-3.86,10.35c0,0-0.35,2.83-1.21,3.83c-0.86,1.01-11.4,1.53-11.4,1.53
							L209.58,109.64z"/>
						<path class="st8" d="M218.06,101.73c-0.3-0.34-0.9,1.14-2.31,2.36c-1.67,1.45-3.9,2.39-3.9,2.39v5.87c0,0,1.22,7.97,8.39,7.97
							c5.92,0,8.04-7.94,8.04-7.94v-5.04v-1.83C228.27,105.52,221.22,105.26,218.06,101.73z"/>
						<path class="st14" d="M223.99,119.07v1.61c-1.03,0.75-2.27,1.24-3.75,1.24c-1.81,0-3.24-0.51-4.37-1.27v-1.61
							c1.13,0.76,2.56,1.27,4.37,1.27C221.72,120.32,222.96,119.82,223.99,119.07z"/>
						<path class="st8" d="M215.25,110.34c0-1.58-1.28-2.86-2.86-2.86c-1.58,0-2.86,1.28-2.86,2.86s1.74,3.34,3.32,3.34
							C214.42,113.68,215.25,111.93,215.25,110.34z"/>
						<path class="st8" d="M225.54,110.34c0-1.58,1.28-2.86,2.86-2.86s2.86,1.28,2.86,2.86s-1.74,3.34-3.32,3.34
							S225.54,111.93,225.54,110.34z"/>
					</g>
				</g>
				<g>
					<g>
						<path class="st15" d="M107.05,301.27v6.47c0,1.66-1.21,3-2.7,3H84.79c-1.05,0-1.46-1.52-0.58-2.16
							c2.58-1.86,11.14-4.52,13.85-6.37L107.05,301.27z"/>
						<path class="st8" d="M112.43,236.78c-1.29,17.29-4.73,62.46-5.62,64.99c-1.1,3.14-9.75,1.46-9.2,0.56
							c0.19-0.32,1.83-0.5,2.97-2.99c0.36-0.76,0.23-5.53,0.17-6.36c-0.55-7.66-3.34-47.06-4.13-58.93
							C100.74,235.22,106.29,236.43,112.43,236.78z"/>
					</g>
					<g>
						<path class="st15" d="M120.44,301.27v6.47c0,1.66,1.21,3,2.7,3h19.56c1.05,0,1.46-1.52,0.58-2.16
							c-2.58-1.86-11.14-4.52-13.85-6.37L120.44,301.27z"/>
						<path class="st8" d="M129.88,302.33c0.54,0.9-8.1,2.58-9.2-0.56c-0.88-2.53-4.32-47.55-5.61-64.9
							c5.07,0.07,10.47-0.49,15.76-2.15c-0.85,12.61-3.56,50.74-4.09,58.26c-0.05,0.83-0.18,5.6,0.17,6.36
							C128.04,301.83,129.69,302.02,129.88,302.33z"/>
					</g>
					<path class="st7" d="M92.99,182.09l0.15,0.22l-0.9,1.89C92.5,183.43,92.75,182.73,92.99,182.09z"/>
					<path class="st7" d="M99.49,135.74"/>
					<g>
						<path class="st15" d="M138.25,231.55c-21.66,12-48.93,0-48.93,0c-4.06-21.25-0.17-38.29,2.9-47.32l0.02-0.03
							c0.25-0.76,0.51-1.47,0.75-2.11c1.06-2.83,1.9-4.52,2.09-4.88h0.02c1.17,0.77,15.69,9.86,35.47,0h0.38
							c0,0-0.01-0.02-0.02-0.04c-0.02-0.03-0.03-0.06-0.05-0.12c-0.01-0.01-0.01-0.02-0.02-0.03h0.13
							C141.13,202.74,138.25,231.55,138.25,231.55z"/>
						<path class="st12" d="M138.25,231.55c-3.92,2.16-8.01,3.54-12.1,4.36c5.28-14.2,0.46-46.01-1.31-56.3
							c1.85-0.63,3.75-1.41,5.72-2.39h0.38c0,0-0.01-0.02-0.02-0.04c-0.02-0.03-0.03-0.06-0.05-0.12c-0.01-0.01-0.01-0.02-0.02-0.03
							h0.13C141.13,202.74,138.25,231.55,138.25,231.55z"/>
					</g>
					<path class="st14" d="M112.43,236.78c-1.29,17.28-4.73,62.46-5.62,64.99c-0.29,0.83-1.12,1.33-2.17,1.58
						c3.44-11.47,3.13-65.12,3.13-65.12c-3.59,0.12-8.06-1.69-11.1-3.04c-0.08-1.29,0.01-0.2-0.06-1.15
						C100.73,235.22,106.28,236.43,112.43,236.78z"/>
					<path class="st14" d="M126.9,299.34c-0.35-0.76-0.22-5.53-0.17-6.36c0.54-7.52,3.24-45.65,4.09-58.26
						c-0.64,0.2-1.28,0.37-1.91,0.54c-0.34,0.09-0.68,0.17-1.02,0.26c-0.37,0.09-0.74,0.17-1.11,0.25
						c-3.96,0.85-7.92,1.16-11.71,1.1c0.03,0.41,0.06,0.84,0.1,1.28c2.19-0.01,7.57-0.08,10.91-0.58
						c-0.52,9.82-3.02,59.67-1.29,63.02c0.49,0.97,2.02,1.8,3.98,2.49c0.8-0.24,1.27-0.53,1.13-0.76
						C129.69,302.02,128.04,301.83,126.9,299.34z"/>
					<g>
						<path class="st8" d="M163.04,129.2c0,0,3.4-5.35,4.41-5.52c1.02-0.17-0.17,2.29-0.17,2.29s3.74-2.25,6.41-1.57
							c2.67,0.68-5.61,4.7-6.67,7.25C167.02,131.66,162.87,129.2,163.04,129.2z"/>
						<path class="st8" d="M97.4,186.94c0-0.43-4.11-3.85-4.39-4.02c-0.04-0.05-0.07-0.11-0.11-0.17l-2.62,5.46
							c0,0,6.32,5.31,6.95,4.79c0.43-0.36-1.08-2.73-2.18-5.95C96.14,186.92,97.4,187.25,97.4,186.94z"/>
						<g>
							<path class="st7" d="M132.34,152.41c0.73,1.52,1.31,3.38,1.16,5.28c-0.12,1.55-0.73,3.12-2.16,4.54
								c-0.26,0.26-0.5,0.53-0.71,0.81c-0.05,0.06-0.1,0.13-0.15,0.2c-3.8,5.18-0.2,12.68,0.39,13.82c0.03,0.05,0.04,0.09,0.06,0.11
								c0.01,0.03,0.02,0.04,0.02,0.04h-0.38c-19.78,9.87-34.29,0.78-35.47,0h-0.08c0,0,0.01-0.01,0.02-0.04
								c0.33-0.61,4.41-8.53,0.45-13.93c-0.25-0.35-0.54-0.68-0.86-1c-3.17-3.18-2.29-8.27-0.97-11.03l-10.98,15.47l10.45,15.63
								l-3.03,6.38c0,0-20.91-19.81-20.6-21.27c0.31-1.47,16.73-30.53,22.16-34.4c5.44-3.87,16.31-4.39,16.31-4.39h7.94
								c0,0,8.1-0.42,14.77,4.29l13.81,13.77l18.02-17.77l4.79,2.9c0,0-16.28,22.05-22.07,28.66c-0.96,1.1-2.64,1.2-3.72,0.22
								L132.34,152.41z"/>
							<path class="st16" d="M144.46,158.93c-3.41,2.62-17.81-15.67-15.5-11.66c2.31,4.01-1.79,9.23-5.47,18.19
								c-3.17,7.75,0.15,12.94,1.12,14.21c1.92-0.65,3.91-1.45,5.96-2.47h0.38c0,0-0.01-0.01-0.02-0.04
								c-0.01-0.03-0.03-0.06-0.06-0.11c-0.59-1.14-4.19-8.64-0.39-13.82c0.05-0.07,0.1-0.13,0.15-0.2
								c0.22-0.28,0.45-0.55,0.71-0.81c1.43-1.43,2.04-3,2.16-4.54c0.15-1.9-0.43-3.76-1.16-5.28l9.18,8.28
								c1.09,0.98,2.76,0.88,3.72-0.22c5.79-6.6,22.07-28.66,22.07-28.66C167.27,131.52,148.28,155.99,144.46,158.93z"/>
							<g>
								<path class="st16" d="M93.66,151.2c0,0,2.02-6.32,3.35-7.82c0,0-16.4,20.97-17.17,23.36c-0.77,2.39,13.3,15.56,13.3,15.56
									l-10.45-15.63L93.66,151.2z"/>
								<path class="st16" d="M93.66,151.2c-0.36,0.76-0.69,1.7-0.91,2.72L93.66,151.2z"/>
							</g>
							<g class="st17">
								<path class="st5" d="M119.91,128.86h-14.62c-1.63,0.19-3.83,0.52-6.09,1.07h25.45
									C122.92,129.37,121.28,129.04,119.91,128.86z"/>
								<polygon class="st5" points="162.53,128.9 161.49,129.93 164.22,129.93 								"/>
								<path class="st5" d="M165.4,134.38h-8.43l-1.09,1.07h8.72C164.89,135.07,165.16,134.72,165.4,134.38z"/>
								<path class="st5" d="M132.18,134.38H90.19c-0.3,0.32-0.61,0.67-0.94,1.07h44.01L132.18,134.38z"/>
								<path class="st5" d="M161.27,139.91h-9.91l-1.09,1.07h10.19C160.74,140.62,161.01,140.26,161.27,139.91z"/>
								<path class="st5" d="M137.73,139.91H85.89c-0.24,0.35-0.49,0.71-0.74,1.07h53.65L137.73,139.91z"/>
								<path class="st5" d="M143.27,145.44H82.21c-0.23,0.35-0.45,0.71-0.68,1.07h62.81L143.27,145.44z"/>
								<path class="st5" d="M157.1,145.44h-11.35l-1.09,1.07h11.62C156.56,146.15,156.83,145.79,157.1,145.44z"/>
								<path class="st5" d="M93.66,151.2c-0.12,0.26-0.24,0.54-0.35,0.84h58.73c0.27-0.35,0.55-0.71,0.83-1.07H78.76
									c-0.22,0.36-0.43,0.71-0.65,1.07h14.96L93.66,151.2z"/>
								<path class="st5" d="M89.91,156.49H75.47c-0.21,0.36-0.42,0.72-0.62,1.07h14.3L89.91,156.49z"/>
								<path class="st5" d="M138.06,157.56h9.61c0.28-0.34,0.57-0.7,0.86-1.07h-11.66L138.06,157.56z"/>
								<path class="st5" d="M92.52,157.56h40.98c0.02-0.36,0.02-0.72-0.01-1.07H92.46C92.46,156.85,92.48,157.2,92.52,157.56z"/>
								<path class="st5" d="M85.99,162.02H72.31c-0.21,0.37-0.4,0.73-0.59,1.07h13.51L85.99,162.02z"/>
								<path class="st5" d="M94.63,162.23c0.28,0.28,0.52,0.56,0.75,0.86h35.21c0.01-0.02,0.03-0.03,0.04-0.05
									c0.22-0.28,0.45-0.55,0.71-0.81c0.07-0.07,0.13-0.14,0.19-0.21H94.44C94.51,162.09,94.56,162.16,94.63,162.23z"/>
								<path class="st5" d="M83.27,167.54H69.54c0.06,0.21,0.3,0.58,0.68,1.07h13.77L83.27,167.54z"/>
								<path class="st5" d="M97.2,168.61h31.56c0.01-0.36,0.03-0.71,0.08-1.07H97.13C97.17,167.9,97.2,168.26,97.2,168.61z"/>
								<path class="st5" d="M96.3,174.14h33.38c-0.11-0.34-0.22-0.7-0.32-1.07H96.62C96.52,173.45,96.41,173.8,96.3,174.14z"/>
								<path class="st5" d="M86.97,173.07H74.23c0.33,0.35,0.68,0.71,1.04,1.07h12.41L86.97,173.07z"/>
								<path class="st5" d="M100.23,179.67h24.41c0.94-0.31,1.89-0.67,2.85-1.07H97.66C98.38,178.94,99.24,179.31,100.23,179.67z"
									/>
								<path class="st5" d="M90.66,178.6H79.7c0.36,0.36,0.72,0.71,1.08,1.07h10.59L90.66,178.6z"/>
								<path class="st5" d="M92.27,184.12h-6.91c0.39,0.37,0.76,0.73,1.11,1.07h5.3L92.27,184.12z"/>
							</g>
						</g>
					</g>
					<g>
						<g>
							<polygon class="st8" points="115.35,129.01 111.69,131.23 107.79,129.01 107.79,121.7 115.35,121.7 							"/>
							<path class="st8" d="M115.35,124.6v4.41l-0.91,0.55c0.03-0.19,0.07-0.37,0.1-0.55C114.89,127,115.2,125.42,115.35,124.6z"/>
							<path class="st8" d="M119.33,112.84v5.53c0,0-1.11,4.15-3.98,6.22C115.76,122.25,118.84,115.35,119.33,112.84z"/>
							<path class="st14" d="M115.35,124.6v1.5c-0.96,0.69-2.11,1.15-3.49,1.15c-1.69,0-3.02-0.47-4.07-1.18v-1.5
								c1.05,0.71,2.38,1.18,4.07,1.18C113.23,125.76,114.39,125.29,115.35,124.6z"/>
							<path class="st8" d="M119.45,113.82c-0.04,0-0.08,0.01-0.12,0.01v-0.14v-1.7c0,0-10.56,0.66-12.47-3.58
								c-0.17-0.39-2.81,4.48-2.81,4.48v0.98c-1.23,0.23-2.16,1.31-2.16,2.61c0,1.26,1.18,2.62,2.44,3c0.62,2.07,2.5,6.28,7.53,6.28
								c4.1,0,6.24-4.1,7.06-6.19c0.04,0,0.07,0.02,0.11,0.02c1.47,0,3.09-1.63,3.09-3.1C122.12,115.01,120.92,113.82,119.45,113.82
								z"/>
						</g>
						<path class="st13" d="M118.9,119.62c0.01-0.02,0.09-0.04,0.13-0.04c1.47,0,3.09-1.64,3.09-3.1c0-1.47-1.19-2.66-2.66-2.66
							c-0.04,0-0.08,0.01-0.12,0.01v-1.83c0,0-10.56,0.66-12.47-3.58c-0.17-0.39-2.81,4.48-2.81,4.48v0.97
							c-1.23,0.24-2.17,1.31-2.17,2.62c0,1.25,1.18,2.62,2.44,2.99c0.41,1.38,1.38,3.69,3.46,5.1v3.09
							c-12.7-7.64-11.23-24.28-4.88-27.42c2.85-1.4,4.23-0.26,4.23-0.26c9.95-8.76,18.03,1.54,20.46,5.47
							c3.33,5.38,16.79,40.62,2.82,45.36c-25.56,8.68-17.52-23.68-15.07-26.2C117.44,122.44,118.67,120.54,118.9,119.62z"/>
					</g>
				</g>
			</g>
		</g>
	</g>
</g>
<g id="DESIGNED_BY_FREEPIK" class="st0">
	<g class="st18">
		<g id="XMLID_319_">
			<g id="XMLID_338_">
				<path id="XMLID_346_" class="st19" d="M230.15,377.15c-0.43,0.44-0.8,0.93-1.11,1.45l-0.47-0.24c-0.07-0.3-0.35-0.5-0.66-0.47
					c-0.33,0.04-0.57,0.34-0.53,0.67c0.04,0.33,0.34,0.57,0.67,0.53c0.07-0.01,0.13-0.03,0.18-0.05l0.45,0.23
					c-0.25,0.55-0.43,1.14-0.54,1.74l0.75,0.13c0.23-1.31,0.85-2.51,1.79-3.47L230.15,377.15z"/>
				<path id="XMLID_345_" class="st19" d="M235.63,374.85c-0.17,0-0.34,0.01-0.51,0.02l-0.07-0.63c0.19-0.15,0.3-0.39,0.27-0.64
					c-0.05-0.39-0.4-0.67-0.8-0.63c-0.39,0.05-0.67,0.4-0.63,0.8c0.03,0.25,0.19,0.46,0.4,0.56l0.07,0.62
					c-0.71,0.12-1.4,0.33-2.06,0.65l0.33,0.68c0.93-0.45,1.94-0.67,3-0.67c0.5,0,0.99,0.05,1.47,0.16l0.16-0.74
					C236.74,374.91,236.19,374.85,235.63,374.85z"/>
				<path id="XMLID_344_" class="st19" d="M242.24,377.4c0.33-0.04,0.57-0.34,0.53-0.67c-0.04-0.33-0.34-0.57-0.67-0.53
					c-0.31,0.04-0.54,0.3-0.53,0.61l-0.42,0.36c-0.42-0.43-0.89-0.81-1.41-1.14l-0.4,0.64c1.13,0.71,2.02,1.73,2.56,2.93l0.69-0.31
					c-0.25-0.55-0.57-1.07-0.94-1.54l0.4-0.35C242.11,377.4,242.17,377.41,242.24,377.4z"/>
				<path id="XMLID_343_" class="st19" d="M235.09,385.06c-0.39,0.02-0.77,0.03-1.16,0.03c-0.88,0-1.73-0.06-2.48-0.18
					c-0.39-0.06-0.85-0.15-1.27-0.29c1.05,1.86,3.07,3.13,5.39,3.13c2.86,0,5.26-1.92,5.95-4.5c-0.68,0.45-1.51,0.83-2.46,1.12
					C237.88,384.73,236.51,384.97,235.09,385.06z"/>
				<path id="XMLID_339_" class="st19" d="M235.63,376.37c-3.35,0-6.08,2.67-6.08,5.94c0,0.43,0.05,0.85,0.14,1.26
					c0.67,0.48,2.71,0.89,5.35,0.73c2.88-0.17,5.3-0.96,6.67-2.16c-0.01-0.2-0.02-0.39-0.05-0.58
					C241.29,378.6,238.69,376.37,235.63,376.37z M233.48,382.88c-1.02,0-1.85-0.83-1.85-1.85c0-1.02,0.83-1.85,1.85-1.85
					c1.02,0,1.85,0.83,1.85,1.85C235.33,382.05,234.5,382.88,233.48,382.88z M238.21,381.97c-0.75,0-1.36-0.61-1.36-1.36
					s0.61-1.36,1.36-1.36c0.75,0,1.36,0.61,1.36,1.36S238.96,381.97,238.21,381.97z"/>
			</g>
			<path id="XMLID_336_" class="st19" d="M251.64,378.23c-0.29-0.12-0.81-0.31-1.38-0.24c-0.55,0.07-0.84,0.34-0.84,1.01v0.87h2.23
				v1.72h-2.23v5.45h-1.93v-5.45h-1.34v-1.72h1.34v-0.89c0-1.68,0.9-2.78,2.57-2.78c0.64,0,1.16,0.12,1.59,0.31L251.64,378.23z"/>
			<path id="XMLID_334_" class="st19" d="M256.34,381.57c-0.18-0.03-0.36-0.05-0.53-0.05c-0.9,0-1.51,0.55-1.51,1.61v3.91h-1.93
				v-7.17h1.87v0.78c0.45-0.67,1.14-0.98,2.02-0.98c0.41,0,0.85,0.13,1.09,0.34L256.34,381.57z"/>
			<path id="XMLID_331_" class="st19" d="M264.01,383.44c0,0.22-0.01,0.49-0.04,0.65h-5.08c0.21,1.04,0.93,1.49,1.84,1.49
				c0.62,0,1.3-0.25,1.81-0.69l1.13,1.24c-0.81,0.75-1.85,1.09-3.06,1.09c-2.2,0-3.72-1.5-3.72-3.75c0-2.26,1.48-3.8,3.63-3.8
				C262.59,379.68,264,381.21,264.01,383.44z M258.89,382.78h3.18c-0.18-0.92-0.73-1.44-1.56-1.44
				C259.6,381.34,259.06,381.89,258.89,382.78z"/>
			<path id="XMLID_328_" class="st19" d="M271.66,383.44c0,0.22-0.02,0.49-0.04,0.65h-5.08c0.21,1.04,0.93,1.49,1.84,1.49
				c0.62,0,1.3-0.25,1.81-0.69l1.13,1.24c-0.81,0.75-1.85,1.09-3.06,1.09c-2.2,0-3.72-1.5-3.72-3.75c0-2.26,1.48-3.8,3.63-3.8
				C270.24,379.68,271.65,381.21,271.66,383.44z M266.55,382.78h3.18c-0.18-0.92-0.73-1.44-1.56-1.44
				C267.25,381.34,266.72,381.89,266.55,382.78z"/>
			<path id="XMLID_325_" class="st19" d="M280.01,383.45c0,2.15-1.49,3.77-3.47,3.77c-0.96,0-1.64-0.38-2.11-0.93V390h-1.92v-10.13
				h1.89v0.79c0.47-0.58,1.15-0.98,2.14-0.98C278.51,379.68,280.01,381.3,280.01,383.45z M274.33,383.45c0,1.13,0.75,1.98,1.84,1.98
				c1.14,0,1.85-0.88,1.85-1.98c0-1.1-0.71-1.98-1.85-1.98C275.08,381.48,274.33,382.32,274.33,383.45z"/>
			<path id="XMLID_322_" class="st19" d="M283.11,377.52c0,0.7-0.54,1.23-1.24,1.23c-0.7,0-1.23-0.53-1.23-1.23
				c0-0.7,0.53-1.24,1.23-1.24C282.57,376.28,283.11,376.83,283.11,377.52z M282.85,387.04h-1.93v-7.17h1.93V387.04z"/>
			<path id="XMLID_320_" class="st19" d="M286.08,382.42l2.7-2.55h2.37l-3.48,3.38l3.5,3.8h-2.38l-2.72-2.9v2.9h-1.93v-10.66h1.93
				V382.42z"/>
		</g>
		<g>
			<path class="st19" d="M154.46,386.98v-1.05c-0.53,0.72-1.39,1.23-2.39,1.23c-1.85,0-3.15-1.41-3.15-3.71
				c0-2.26,1.29-3.72,3.15-3.72c0.95,0,1.82,0.47,2.39,1.25v-3.76h1.1v9.77H154.46z M154.46,385.06v-3.21
				c-0.4-0.62-1.24-1.14-2.12-1.14c-1.42,0-2.27,1.17-2.27,2.74c0,1.57,0.85,2.72,2.27,2.72
				C153.21,386.17,154.06,385.67,154.46,385.06z"/>
			<path class="st19" d="M156.97,383.43c0-2.05,1.46-3.71,3.49-3.71c2.14,0,3.4,1.67,3.4,3.79v0.28h-5.73
				c0.09,1.33,1.03,2.45,2.55,2.45c0.81,0,1.63-0.32,2.18-0.89l0.53,0.72c-0.7,0.7-1.65,1.08-2.81,1.08
				C158.48,387.15,156.97,385.64,156.97,383.43z M160.45,380.63c-1.51,0-2.26,1.27-2.31,2.36h4.64
				C162.76,381.94,162.06,380.63,160.45,380.63z"/>
			<path class="st19" d="M164.65,386.04l0.57-0.79c0.47,0.54,1.36,1.01,2.33,1.01c1.08,0,1.67-0.51,1.67-1.22
				c0-1.71-4.38-0.66-4.38-3.28c0-1.1,0.95-2.04,2.64-2.04c1.2,0,2.05,0.45,2.62,1.03l-0.51,0.76c-0.42-0.51-1.2-0.89-2.11-0.89
				c-0.97,0-1.57,0.48-1.57,1.11c0,1.55,4.38,0.53,4.38,3.28c0,1.19-0.95,2.14-2.78,2.14C166.35,387.15,165.37,386.8,164.65,386.04z
				"/>
			<path class="st19" d="M171.52,378.16c0-0.41,0.34-0.75,0.73-0.75c0.41,0,0.75,0.34,0.75,0.75c0,0.41-0.34,0.73-0.75,0.73
				C171.86,378.89,171.52,378.57,171.52,378.16z M171.71,386.98v-7.07h1.1v7.07H171.71z"/>
			<path class="st19" d="M174.63,388.79l0.56-0.82c0.59,0.7,1.29,0.97,2.3,0.97c1.17,0,2.27-0.57,2.27-2.12v-1.01
				c-0.51,0.72-1.38,1.26-2.37,1.26c-1.85,0-3.15-1.38-3.15-3.66c0-2.27,1.29-3.68,3.15-3.68c0.95,0,1.8,0.47,2.37,1.25v-1.07h1.1
				v6.87c0,2.34-1.64,3.08-3.37,3.08C176.28,389.85,175.46,389.61,174.63,388.79z M179.75,384.94v-3.09
				c-0.38-0.62-1.23-1.14-2.11-1.14c-1.42,0-2.27,1.13-2.27,2.7c0,1.55,0.85,2.7,2.27,2.7C178.52,386.1,179.37,385.56,179.75,384.94
				z"/>
			<path class="st19" d="M187.46,386.98v-4.63c0-1.24-0.63-1.64-1.58-1.64c-0.86,0-1.68,0.53-2.09,1.1v5.17h-1.1v-7.07h1.1v1.03
				c0.5-0.59,1.46-1.2,2.52-1.2c1.48,0,2.26,0.75,2.26,2.29v4.97H187.46z"/>
			<path class="st19" d="M189.98,383.43c0-2.05,1.46-3.71,3.49-3.71c2.14,0,3.4,1.67,3.4,3.79v0.28h-5.73
				c0.09,1.33,1.03,2.45,2.55,2.45c0.81,0,1.63-0.32,2.18-0.89l0.53,0.72c-0.7,0.7-1.66,1.08-2.81,1.08
				C191.48,387.15,189.98,385.64,189.98,383.43z M193.45,380.63c-1.51,0-2.26,1.27-2.31,2.36h4.64
				C195.76,381.94,195.06,380.63,193.45,380.63z"/>
			<path class="st19" d="M203.39,386.98v-1.05c-0.53,0.72-1.39,1.23-2.39,1.23c-1.85,0-3.15-1.41-3.15-3.71
				c0-2.26,1.29-3.72,3.15-3.72c0.95,0,1.82,0.47,2.39,1.25v-3.76h1.1v9.77H203.39z M203.39,385.06v-3.21
				c-0.4-0.62-1.25-1.14-2.12-1.14c-1.42,0-2.27,1.17-2.27,2.74c0,1.57,0.85,2.72,2.27,2.72C202.15,386.17,203,385.67,203.39,385.06
				z"/>
			<path class="st19" d="M209.74,386.98v-9.77h1.1v3.76c0.57-0.78,1.42-1.25,2.39-1.25c1.85,0,3.15,1.46,3.15,3.72
				c0,2.3-1.3,3.71-3.15,3.71c-1,0-1.86-0.51-2.39-1.23v1.05H209.74z M212.94,386.17c1.44,0,2.29-1.16,2.29-2.72
				c0-1.57-0.85-2.74-2.29-2.74c-0.86,0-1.73,0.53-2.11,1.14v3.21C211.21,385.67,212.08,386.17,212.94,386.17z"/>
			<path class="st19" d="M217.57,388.75c0.16,0.07,0.43,0.12,0.6,0.12c0.48,0,0.81-0.16,1.05-0.75l0.47-1.07l-2.96-7.15h1.19
				l2.36,5.8l2.34-5.8h1.2l-3.54,8.51c-0.42,1.03-1.14,1.42-2.08,1.44c-0.23,0-0.6-0.04-0.81-0.1L217.57,388.75z"/>
		</g>
	</g>
</g>
</svg>
