<?xml version="1.0" encoding="utf-8"?>
<!-- Generator: Adobe Illustrator 19.0.0, SVG Export Plug-In . SVG Version: 6.00 Build 0)  -->
<svg version="1.1" id="Layer_1" xmlns="http://www.w3.org/2000/svg" xmlns:xlink="http://www.w3.org/1999/xlink" x="0px" y="0px"
	 viewBox="-30.74 81.71 603.48 423.38" style="enable-background:new -30.74 81.71 603.48 423.38;" xml:space="preserve">
<style type="text/css">
	.st0{fill:#FAFAFA;}
	.st1{fill:#F5F5F5;}
	.st2{fill:#EBEBEB;}
	.st3{fill:#E0E0E0;}
	.st4{fill:#F79E02;}
	.st5{fill:#263238;}
	.st6{fill:#455A64;}
	.st7{fill:#FFBE9D;}
	.st8{fill:#EB996E;}
</style>
<g id="freepik--background-complete--inject-2">
	<rect x="-20.44" y="113.95" class="st0" width="111.16" height="194.48"/>
	<path class="st1" d="M14.19,310.29c0,0-12.19-87.49-18.56-97.11c0,0,36.42-27.34,37.53-101.45H-22.1v198.56H14.19z"/>
	<path class="st1" d="M56.08,309.91c0,0,12.17-87.5,18.55-97.11c0,0-36.41-27.35-37.53-101.45h55.26v198.56H56.08z"/>
	<path class="st2" d="M93.64,106.54H-30.74v208.32H98.8V106.54H93.64z M1.9,214.77v49.54h-22.34v-49.54H1.9z M-20.44,211.19v-51.27
		H1.9v51.27H-20.44z M35.91,211.19v-51.27h28v51.27H35.91z M63.91,214.77v49.54h-28v-49.54H63.91z M2.91,211.19v-51.27h29.43v51.27
		H2.91z M32.34,214.77v49.54H2.9v-49.54H32.34z M2.9,159v-45h29.43v45H2.9z M32.33,265.2v43.25H2.9V265.2H32.33z M35.91,265.2h28
		v43.25h-28V265.2z M35.91,159.03V114h28v45L35.91,159.03z M64.85,214.77h23.64v49.54H64.85V214.77z M64.85,211.19v-51.27h23.64
		v51.27H64.85z M88.49,159H64.85v-45h23.64V159z M1.9,114v45h-22.34v-45H1.9z M-20.44,265.2H1.9v43.25h-22.34V265.2z M64.85,308.45
		V265.2h23.64v43.25H64.85z"/>
	<rect x="130.99" y="152.48" class="st1" width="338.21" height="226.52"/>
	<rect x="130.99" y="152.48" class="st2" width="338.21" height="22.63"/>
	<path class="st0" d="M145.64,163.79c0.11,1.51-1.02,2.82-2.53,2.93c-1.51,0.11-2.82-1.02-2.93-2.53c-0.11-1.51,1.02-2.82,2.53-2.93
		c0.07,0,0.14-0.01,0.2-0.01C144.36,161.2,145.59,162.34,145.64,163.79z"/>
	<path class="st0" d="M154.46,163.79c0.11,1.51-1.02,2.82-2.53,2.93c-1.51,0.11-2.82-1.02-2.93-2.53c-0.11-1.51,1.02-2.82,2.53-2.93
		c0.07,0,0.14-0.01,0.2-0.01C153.18,161.2,154.41,162.34,154.46,163.79z"/>
	<path class="st0" d="M163.28,163.79c0.11,1.51-1.02,2.82-2.53,2.93s-2.82-1.02-2.93-2.53c-0.11-1.51,1.02-2.82,2.53-2.93
		c0.07,0,0.14-0.01,0.2-0.01C162,161.2,163.23,162.34,163.28,163.79z"/>
	<polygon class="st2" points="572.74,197.24 504.79,197.24 504.79,285.85 572.74,287.56 	"/>
	<polygon class="st0" points="568.27,200.4 508.81,200.4 508.81,280.76 568.27,282.77 	"/>
	<polygon class="st2" points="557.86,215 518.4,213.5 518.4,269.67 557.86,269.67 	"/>
	<polygon class="st1" points="518.4,269.67 557.86,240.81 518.4,213.5 	"/>
	<polygon class="st2" points="565.25,134.89 527.43,133.71 527.43,183.03 565.25,183.98 	"/>
	<polygon class="st0" points="562.76,137.04 529.67,135.47 529.67,180.19 562.76,181.31 	"/>
	<polygon class="st2" points="556.97,143.59 535.01,142.76 535.01,174.02 556.97,174.02 	"/>
	<polygon class="st1" points="535.01,174.02 556.97,157.96 535.01,142.76 	"/>
	<polygon class="st2" points="305.06,93.12 301.44,126.74 347.85,126.74 351.7,93.12 	"/>
	<polygon class="st0" points="306.97,95.33 303.44,124.75 345.33,124.75 348.72,95.33 	"/>
	<polygon class="st2" points="314.02,100.48 311.85,120.01 338.28,120.01 339.64,100.48 	"/>
	<polygon class="st2" points="365.62,81.71 360.76,126.74 422.94,126.74 428.1,81.71 	"/>
	<polygon class="st0" points="368.17,84.67 363.45,124.08 419.57,124.08 424.11,84.67 	"/>
	<polygon class="st2" points="377.62,91.57 374.71,117.72 410.12,117.72 411.94,91.57 	"/>
	<rect x="270.23" y="126.74" class="st2" width="181.08" height="5.18"/>
	<polygon class="st2" points="301.21,144.52 293.28,131.92 305.06,131.92 305.06,144.52 	"/>
	<polygon class="st3" points="297.11,131.92 304.12,144.52 305.06,144.52 305.06,131.92 	"/>
	<polygon class="st2" points="405.69,144.52 397.76,131.92 409.54,131.92 409.54,144.52 	"/>
	<polygon class="st3" points="401.59,131.92 408.6,144.52 409.54,144.52 409.54,131.92 	"/>
</g>
<g id="freepik--Plant--inject-2">
	<path class="st4" d="M53.62,434.69c16.67-10.9,20.9-31.79,20.71-50.65c0-3.15,0.4-6.46-1.05-9.26s-4.94-4.76-7.83-3.51
		c-2.39,1.05-3.49,3.74-4.87,6c-1.85,2.97-4.5,5.35-7.65,6.87c-2.05,1-4.58,1.56-6.56,0.42c-2.71-1.56-2.94-5.32-2.85-8.45
		l0.54-17.49c0.27-3.13,0.02-6.27-0.73-9.32c-0.91-3-3-5.8-6-6.71s-6.77,0.72-7.48,3.77c-0.15,1.29-0.21,2.6-0.18,3.9
		c-0.12,1.29-0.77,2.72-2,3s-2.52-0.58-3.45-1.52c-3.19-3.24-5.32-7.36-7.29-11.46S13,332,10.1,328.48s-6.92-6.35-11.46-6.71
		s-9.44,2.29-10.64,6.66s1.24,8.93,4,12.57c4.09,5.4,8.94,10.19,14.39,14.21c1.07,0.61,1.91,1.55,2.4,2.68
		c0.64,2.1-1.41,4.12-3.52,4.76c-2.38,0.72-4.94,0.42-7.42,0.64s-5.18,1.24-6.17,3.53c-1.38,3.17,1.25,6.58,3.86,8.84
		c5.25,4.54,11.23,8.14,17.7,10.66c2.31,0.89,4.74,1.69,6.58,3.35s2.91,4.51,1.72,6.68s-4.12,2.82-6.56,2.31s-4.58-1.86-6.89-2.79
		c-4.32-1.73-10-1.56-12.83,2.09c-1.79,2.54-2.27,5.78-1.29,8.73c1,2.9,2.57,5.57,4.62,7.85c6.74,8.37,15.56,14.82,25.59,18.68
		c10,3.7,19.37,4.86,29.5,1.47"/>
	<path class="st5" d="M-7.37,324.25l0.3,0.3l0.92,0.86c0.82,0.74,2,1.84,3.52,3.29c4.26,4.09,8.2,8.5,11.79,13.19
		c2.29,3,4.66,6.3,7.14,9.94s5.1,7.54,7.69,11.75c2.74,4.38,5.25,8.91,7.5,13.56c1.16,2.42,2.19,4.95,3.24,7.53l3.17,7.84
		c4.09,9.92,7.62,20.07,10.56,30.39c2.37,8.43,3.93,17.07,4.66,25.8c0.47,5.89,0.42,11.81-0.14,17.69
		c-0.21,2.08-0.41,3.69-0.59,4.78c-0.07,0.52-0.13,0.93-0.18,1.24c-0.01,0.14-0.01,0.28,0,0.42c0.05-0.13,0.09-0.27,0.1-0.41
		l0.24-1.23c0.21-1.09,0.45-2.7,0.7-4.78c0.65-5.89,0.76-11.83,0.32-17.74c-0.68-8.76-2.21-17.44-4.57-25.91
		c-2.92-10.35-6.44-20.52-10.54-30.46l-3.17-7.85c-1.05-2.57-2.09-5.12-3.27-7.55c-2.26-4.67-4.78-9.21-7.55-13.6
		c-2.62-4.21-5.25-8.11-7.75-11.75s-4.89-7-7.21-9.91c-3.64-4.68-7.65-9.06-12-13.1c-1.53-1.43-2.75-2.51-3.59-3.22l-1-0.81
		C-7.17,324.41-7.27,324.33-7.37,324.25z"/>
	<path class="st5" d="M31.84,376.87c0.16-0.43,0.28-0.88,0.34-1.33c0.19-0.86,0.42-2.11,0.68-3.66c0.52-3.11,1.1-7.42,1.72-12.18
		s1.25-9.05,1.82-12.14c0.28-1.55,0.52-2.79,0.7-3.66c0.12-0.44,0.19-0.89,0.21-1.35c-0.19,0.42-0.34,0.85-0.43,1.3
		c-0.24,0.85-0.55,2.09-0.88,3.63c-0.68,3.08-1.38,7.38-2,12.14s-1.14,8.95-1.55,12.19c-0.2,1.47-0.36,2.7-0.49,3.69
		C31.87,375.95,31.83,376.41,31.84,376.87z"/>
	<path class="st5" d="M-8.75,368.38c0.53,0.13,1.07,0.2,1.62,0.23c1,0.12,2.56,0.28,4.42,0.53c3.72,0.49,8.85,1.34,14.45,2.52
		s10.64,2.49,14.25,3.53c1.81,0.5,3.26,0.95,4.27,1.26c0.51,0.19,1.04,0.33,1.58,0.42c-0.48-0.26-0.99-0.47-1.51-0.64
		c-1-0.37-2.42-0.88-4.22-1.44c-3.59-1.14-8.62-2.5-14.25-3.7s-10.77-2-14.52-2.36c-1.87-0.2-3.4-0.3-4.45-0.35
		C-7.66,368.33-8.2,368.33-8.75,368.38z"/>
	<path class="st5" d="M48.5,422c0.12-0.15,0.22-0.31,0.29-0.49l0.73-1.44c0.64-1.25,1.5-3.08,2.54-5.37c2.08-4.56,4.75-10.95,7.6-18
		s5.46-13.5,7.45-18.1c1-2.24,1.76-4.08,2.36-5.44l0.63-1.49c0.08-0.17,0.15-0.35,0.19-0.53c-0.12,0.15-0.22,0.31-0.3,0.48
		c-0.19,0.39-0.44,0.87-0.73,1.44c-0.63,1.25-1.49,3.09-2.53,5.37c-2.08,4.56-4.75,11-7.61,18.05s-5.46,13.5-7.44,18.1L49.32,420
		l-0.63,1.48C48.6,421.64,48.54,421.82,48.5,422z"/>
	<path class="st5" d="M-5.25,403.48c0.16,0.1,0.34,0.18,0.53,0.23l1.56,0.56l5.76,2c4.86,1.69,11.54,4.09,18.92,6.76s14.1,5,19,6.59
		c2.45,0.8,4.44,1.42,5.82,1.82l1.59,0.46c0.18,0.06,0.38,0.1,0.57,0.12c-0.17-0.1-0.34-0.18-0.53-0.24l-1.56-0.55l-5.76-2
		c-4.86-1.68-11.54-4.08-18.93-6.75s-14.09-5-19-6.6c-2.45-0.79-4.44-1.41-5.82-1.82l-1.59-0.45
		C-4.87,403.54-5.06,403.5-5.25,403.48z"/>
</g>
<g id="freepik--Floor--inject-2">
	<path class="st5" d="M507.59,472.57c0,0.15-112.14,0.26-250.45,0.26S6.67,472.72,6.67,472.57s112.12-0.26,250.47-0.26
		S507.59,472.43,507.59,472.57z"/>
</g>
<g id="freepik--Device--inject-2">
	<path class="st5" d="M415.22,171.74H74.79c-5.87,0-10.62,4.75-10.62,10.62c0,0,0,0.01,0,0.01v240.45
		c-0.01,5.87,4.74,10.62,10.61,10.63c0,0,0.01,0,0.01,0h130.66c0,0,8.31,25.7-17.46,39h122.17c0,0-29.08-10-21.6-39h126.66
		c5.87,0,10.63-4.76,10.63-10.63l0,0V182.37C425.85,176.5,421.09,171.74,415.22,171.74z"/>
	<path class="st6" d="M249.91,408.07c4.63,6.62-2.62,13.87-9.24,9.24c-0.22-0.16-0.41-0.35-0.57-0.57
		c-4.62-6.62,2.62-13.86,9.24-9.24C249.56,407.66,249.75,407.85,249.91,408.07z"/>
	<path class="st3" d="M75.47,183.89h339.07c1.81,0,3.27,1.46,3.27,3.27v198.46c0,1.81-1.46,3.27-3.27,3.27H75.47
		c-1.81,0-3.27-1.46-3.27-3.27V187.16C72.2,185.35,73.66,183.89,75.47,183.89z"/>
	<rect x="72.2" y="198.91" class="st0" width="345.61" height="189.98"/>
	<path class="st4" d="M100.55,191.8c0,1.52-1.24,2.76-2.76,2.76s-2.76-1.24-2.76-2.76s1.24-2.76,2.76-2.76c0,0,0,0,0,0
		C99.31,189.04,100.55,190.28,100.55,191.8z"/>
	<path class="st4" d="M83.82,191.8c0,1.52-1.24,2.76-2.76,2.76s-2.76-1.24-2.76-2.76s1.24-2.76,2.76-2.76c0,0,0,0,0,0
		C82.58,189.04,83.82,190.28,83.82,191.8z"/>
	<path class="st4" d="M91.85,191.8c0,1.52-1.24,2.76-2.76,2.76s-2.76-1.24-2.76-2.76s1.24-2.76,2.76-2.76c0,0,0,0,0,0
		C90.61,189.04,91.85,190.28,91.85,191.8z"/>
	<path class="st6" d="M242.49,287.37c0,0.15-12.66,0.28-28.27,0.28s-28.28-0.13-28.28-0.28s12.66-0.28,28.28-0.28
		S242.49,287.21,242.49,287.37z"/>
	<path class="st6" d="M242.49,294.94c0,0.15-12.66,0.28-28.27,0.28s-28.28-0.13-28.28-0.28s12.66-0.29,28.28-0.29
		S242.49,294.78,242.49,294.94z"/>
	<path class="st6" d="M219.83,302.5c0,0.16-7.58,0.29-16.94,0.29s-16.95-0.13-16.95-0.29s7.59-0.28,16.95-0.28
		S219.83,302.35,219.83,302.5z"/>
	<rect x="185.94" y="210.03" class="st6" width="26.89" height="3.41"/>
	<rect x="185.94" y="221.02" class="st3" width="59.09" height="57.17"/>
	<polygon class="st4" points="190.52,273.29 206.87,243.87 220.24,262.68 228.36,252.69 240.45,273.29 	"/>
	<circle class="st4" cx="221.68" cy="238.15" r="4.25"/>
	<path class="st6" d="M240.45,273.45c-0.01-0.08-0.01-0.15,0-0.23c0-0.18,0-0.39,0-0.67c0-0.61,0-1.47,0-2.57
		c0-2.27,0-5.55-0.06-9.71c0-8.35-0.07-20.24-0.12-34.52l0.24,0.24h-49.92c-0.07,0.06,0.52-0.53,0.27-0.27l0,0v12.82
		c0,4.2,0,8.32,0,12.32c0,8,0,15.58,0,22.54l-0.25-0.25l36.1,0.13l10.18,0.06h2.7h0.7l0,0h-0.67h-2.66l-10.12,0.06l-36.26,0.13
		h-0.24v-0.25c0-7,0-14.53,0-22.54c0-4,0-8.12,0-12.32v-12.65l0,0c-0.25,0.24,0.34-0.36,0.29-0.29h49.92h0.24v0.24
		c-0.05,14.34-0.09,26.28-0.12,34.67c0,4.14-0.05,7.4-0.07,9.66c0,1.08,0,1.92,0,2.52c0,0.27,0,0.48,0,0.64
		C240.56,273.29,240.51,273.37,240.45,273.45z"/>
	<path class="st6" d="M314.53,287.37c0,0.15-12.66,0.28-28.28,0.28s-28.27-0.13-28.27-0.28s12.65-0.28,28.27-0.28
		S314.53,287.21,314.53,287.37z"/>
	<path class="st6" d="M314.53,294.94c0,0.15-12.66,0.28-28.28,0.28s-28.27-0.13-28.27-0.28s12.65-0.29,28.27-0.29
		S314.53,294.78,314.53,294.94z"/>
	<path class="st6" d="M291.87,302.5c0,0.16-7.59,0.29-16.95,0.29S258,302.66,258,302.5s7.58-0.28,16.94-0.28
		S291.87,302.35,291.87,302.5z"/>
	<rect x="257.98" y="210.03" class="st6" width="26.89" height="3.41"/>
	<rect x="257.98" y="221.02" class="st3" width="59.09" height="57.17"/>
	<polygon class="st4" points="262.56,273.29 278.9,243.87 292.27,262.68 300.4,252.69 312.48,273.29 	"/>
	<path class="st4" d="M298,238.15c0.01,2.35-1.9,4.26-4.25,4.27c-2.35,0.01-4.26-1.9-4.27-4.25c-0.01-2.35,1.9-4.26,4.25-4.27
		c0.01,0,0.01,0,0.02,0C296.1,233.9,298,235.8,298,238.15z"/>
	<path class="st6" d="M312.48,273.45c0,0,0-0.08,0-0.23s0-0.39,0-0.67c0-0.61,0-1.47,0-2.57c0-2.27,0-5.55-0.06-9.71
		c0-8.35-0.08-20.24-0.13-34.52l0.24,0.24h-49.92c-0.07,0.06,0.53-0.53,0.28-0.27l0,0v12.82c0,4.2,0,8.32,0,12.32
		c0,8,0,15.58,0,22.54l-0.24-0.25l36.1,0.13l10.18,0.06h2.7h0.7l0,0h-0.68H309l-10.13,0.06l-36.25,0.13h-0.25v-0.25
		c0-7,0-14.53,0-22.54v-24.97l0,0c-0.26,0.24,0.34-0.36,0.28-0.29h49.92h0.25v0.24c-0.06,14.34-0.1,26.28-0.13,34.67
		c0,4.14-0.05,7.4-0.06,9.66c0,1.08,0,1.92,0,2.52c0,0.27,0,0.48,0,0.64C312.59,273.3,312.54,273.38,312.48,273.45z"/>
	<rect x="187.83" y="313.05" class="st6" width="26.89" height="3.41"/>
	<rect x="187.83" y="324.03" class="st3" width="59.09" height="57.17"/>
	<polygon class="st4" points="192.41,376.31 208.76,346.89 222.13,365.69 230.25,355.71 242.34,376.31 	"/>
	<path class="st4" d="M227.83,341.17c0,2.35-1.91,4.26-4.26,4.26c-2.35,0-4.26-1.91-4.26-4.26c0-2.35,1.91-4.26,4.26-4.26
		c2.35-0.01,4.25,1.89,4.26,4.24C227.83,341.16,227.83,341.16,227.83,341.17z"/>
	<path class="st6" d="M242.34,376.47c0,0,0-0.09,0-0.24s0-0.39,0-0.67c0-0.6,0-1.46,0-2.57c0-2.26,0-5.54-0.07-9.71
		c0-8.35-0.07-20.24-0.12-34.51l0.24,0.24h-49.92l0.28-0.28V332c0,1.08,0,2.16,0,3.23v18.69c0,8,0,15.57,0,22.54l-0.25-0.25
		l36.1,0.13l10.18,0.06h2.71h0.7c0.08-0.01,0.16-0.01,0.24,0h-0.89h-2.65l-10.13,0.07l-36.26,0.12h-0.24v-0.24c0-7,0-14.54,0-22.54
		c0-4,0-8.11,0-12.32v-12.72l0.29-0.29h49.92h0.24v0.25c-0.05,14.34-0.09,26.28-0.12,34.67c0,4.14,0,7.4-0.06,9.65
		c0,1.09,0,1.93,0,2.53c0,0.26,0,0.47,0,0.64C242.49,376.32,242.42,376.4,242.34,376.47z"/>
	<rect x="259.92" y="313.05" class="st6" width="26.89" height="3.41"/>
	<rect x="259.92" y="324.03" class="st3" width="59.09" height="57.17"/>
	<polygon class="st4" points="264.5,376.31 280.85,346.89 294.22,365.69 302.34,355.71 314.43,376.31 	"/>
	<path class="st4" d="M299.91,341.17c-0.01,2.35-1.91,4.25-4.26,4.24c-2.35-0.01-4.25-1.91-4.24-4.26c0.01-2.34,1.91-4.24,4.25-4.24
		c2.35,0,4.25,1.9,4.25,4.25C299.91,341.16,299.91,341.17,299.91,341.17z"/>
	<path class="st6" d="M314.43,376.47c-0.01-0.08-0.01-0.16,0-0.24c0-0.17,0-0.39,0-0.67c0-0.6,0-1.46,0-2.57
		c0-2.26,0-5.54-0.06-9.71c0-8.35-0.07-20.24-0.12-34.51l0.24,0.24h-49.93l0.28-0.28v12.84c0,4.2,0,8.31,0,12.32
		c0,8,0,15.57,0,22.54l-0.25-0.25l36.1,0.13l10.18,0.06h2.7h0.7h0.25h-0.89h-2.66l-10.12,0.07l-36.26,0.12h-0.25v-0.24
		c0-7,0-14.54,0-22.54c0-4,0-8.11,0-12.32v-12.69l0.28-0.29h49.93h0.24v0.25c-0.05,14.34-0.09,26.28-0.12,34.67
		c0,4.14-0.05,7.4-0.07,9.65c0,1.09,0,1.93,0,2.53c0,0.26,0,0.47,0,0.64C314.55,376.31,314.49,376.39,314.43,376.47z"/>
	<rect x="334.3" y="313.05" class="st6" width="26.89" height="3.41"/>
	<rect x="334.3" y="324.03" class="st3" width="59.09" height="57.17"/>
	<polygon class="st4" points="338.88,376.31 355.23,346.89 368.6,365.69 376.72,355.71 388.81,376.31 	"/>
	<path class="st4" d="M374.3,341.17c0,2.35-1.91,4.26-4.26,4.26c-2.35,0-4.26-1.91-4.26-4.26c0-2.35,1.91-4.26,4.26-4.26
		c2.35-0.01,4.25,1.89,4.26,4.24C374.3,341.16,374.3,341.16,374.3,341.17z"/>
	<path class="st6" d="M388.81,376.47c0,0,0-0.09,0-0.24s0-0.39,0-0.67c0-0.6,0-1.46,0-2.57c0-2.26,0-5.54-0.07-9.71
		c0-8.35-0.07-20.24-0.12-34.51l0.24,0.24h-49.92l0.28-0.28v25.16c0,8,0,15.57,0,22.54l-0.25-0.25l36.1,0.13l10.18,0.06h2.71h0.69
		c0.08-0.01,0.17-0.01,0.25,0h-0.89h-2.65l-10.13,0.07l-36.26,0.12h-0.24v-0.24c0-7,0-14.54,0-22.54c0-4,0-8.11,0-12.32v-12.69
		l0.29-0.29h49.92h0.24v0.25c-0.05,14.34-0.09,26.28-0.12,34.67c0,4.14-0.05,7.4-0.06,9.65c0,1.09,0,1.93,0,2.53
		c0,0.26,0,0.47,0,0.64C388.96,376.32,388.89,376.4,388.81,376.47z"/>
	<path class="st6" d="M387.86,278.18c2.15-0.28,4.32-0.37,6.48-0.28l-0.28,0.28l0,0v-0.64c0-0.22,0-0.43,0-0.64
		c0-0.42,0-0.82,0-1.22c0-0.71,0-1.4,0.06-2.06c-0.03-0.64,0.04-1.28,0.2-1.9c0.15,0.62,0.21,1.26,0.19,1.9c0,0.66,0,1.35,0.06,2.06
		c0,0.4,0,0.8,0,1.22v1.28l0,0l-0.29,0.29C392.14,278.56,389.99,278.47,387.86,278.18z"/>
	<path class="st6" d="M358.39,278.18c4.91-0.37,9.83-0.37,14.74,0C368.22,278.57,363.3,278.57,358.39,278.18z"/>
	<path class="st6" d="M337.17,271.7c0.28,2.15,0.38,4.32,0.28,6.48l-0.28-0.28h2.53l2.06,0.06c0.64-0.02,1.28,0.05,1.9,0.2
		c-0.62,0.16-1.26,0.23-1.9,0.2l-2.06,0.06h-1.22h-1.31l-0.28-0.29C336.8,275.98,336.9,273.83,337.17,271.7z"/>
	<path class="st6" d="M337.17,242.23c0.28,2.45,0.38,4.91,0.28,7.37c0.1,2.46,0,4.92-0.28,7.36c-0.28-2.44-0.37-4.9-0.28-7.36
		C336.8,247.14,336.89,244.68,337.17,242.23z"/>
	<path class="st6" d="M343.66,221c-2.15,0.28-4.32,0.38-6.49,0.28l0.28-0.28l0,0v1.29c0,0.41,0,0.82,0,1.22c0,0.71,0,1.39-0.06,2.06
		c0.03,0.64-0.04,1.28-0.2,1.9c-0.16-0.62-0.23-1.26-0.2-1.9c0-0.67,0-1.35-0.06-2.06c0-0.4,0-0.81,0-1.22c0-0.21,0-0.43,0-0.65V221
		l0,0l0.28-0.28C339.36,220.63,341.52,220.73,343.66,221z"/>
	<path class="st6" d="M373.13,221c-4.91,0.37-9.83,0.37-14.74,0C363.3,220.63,368.22,220.63,373.13,221z"/>
	<path class="st6" d="M394.35,227.5c-0.29-2.15-0.39-4.32-0.29-6.49c0.57,0.56,0.16,0.16,0.28,0.28H393h-1.22l-2.06-0.06
		c-0.64,0.03-1.28-0.04-1.9-0.2c0.62-0.16,1.26-0.23,1.9-0.2l2.06-0.06h2.52l0.29,0.28C394.69,223.2,394.61,225.36,394.35,227.5z"/>
	<path class="st6" d="M394.35,257c-0.29-2.44-0.39-4.9-0.29-7.36c-0.1-2.46,0-4.92,0.29-7.37c0.28,2.45,0.37,4.91,0.28,7.37
		C394.72,252.1,394.63,254.56,394.35,257z"/>
	<path class="st6" d="M393.52,287.29c0,0.15-12.67,0.28-28.28,0.28s-28.28-0.13-28.28-0.28s12.66-0.28,28.28-0.28
		S393.52,287.13,393.52,287.29z"/>
	<path class="st6" d="M393.52,294.86c0,0.15-12.67,0.28-28.28,0.28S337,295,337,294.86s12.66-0.29,28.28-0.29
		S393.52,294.7,393.52,294.86z"/>
	<rect x="336.96" y="209.95" class="st6" width="26.89" height="3.41"/>
	<path class="st3" d="M158.45,254.44c0,16.02-12.98,29-29,29s-29-12.98-29-29s12.98-29,29-29l0,0
		C145.47,225.44,158.45,238.42,158.45,254.44z"/>
	<path class="st6" d="M164.18,317.6c0,0.15-14.88,0.28-33.23,0.28s-33.24-0.13-33.24-0.28s14.88-0.29,33.24-0.29
		S164.18,317.44,164.18,317.6z"/>
	<path class="st6" d="M164.18,325c0,0.16-14.88,0.28-33.23,0.28s-33.24-0.12-33.24-0.28s14.88-0.28,33.24-0.28
		S164.18,324.79,164.18,325z"/>
	<path class="st6" d="M164.18,332.3c0,0.16-14.88,0.28-33.23,0.28s-33.24-0.12-33.24-0.28S112.59,332,131,332
		S164.18,332.15,164.18,332.3z"/>
	<path class="st6" d="M135.9,339.81c0,0.16-8.63,0.28-19.27,0.28s-19.28-0.12-19.28-0.28s8.63-0.28,19.28-0.28
		S135.9,339.66,135.9,339.81z"/>
	<rect x="97.71" y="302.59" class="st6" width="45.8" height="3.35"/>
	<path class="st4" d="M111.31,276.57c10.55,9.13,26.21,9.13,36.76,0c-1.54-5.24-5.28-11.46-14.37-12.84
		c4.17-1.84,6.84-5.98,6.79-10.53c0-6.3-4.74-11.42-10.64-11.45s-10.7,5.06-10.73,11.35c-0.08,4.6,2.6,8.79,6.81,10.64
		C116.69,265.11,112.88,271.36,111.31,276.57z"/>
	<rect x="97.71" y="351.29" class="st4" width="25.68" height="3.13"/>
</g>
<g id="freepik--Character--inject-2">
	<path class="st4" d="M482.14,242.66l4.38,14.69c0.23,0.66,0.36,1.35,0.39,2.05c0,2.07-2,3.7-4,4.08c-2.06,0.22-4.15-0.02-6.11-0.72
		c-0.54,2.11-3,3-5.15,3.4c-9.58,1.78-19.47,0.55-28.32-3.53c3.78-5.41,6.84-11.27,9.13-17.46l22.34,1
		c1.32,0.14,2.65,0.03,3.92-0.33c1.29-0.39,2.24-1.49,2.44-2.83"/>
	<path class="st7" d="M456.54,271.35c0.28-1.64-0.39-8.54-0.39-8.54s-6.29-0.67-6.67-6.91s0-20.64,0-20.64l11.46-5.6l12.62,9.55
		l-1.91,31.21L458,282.6L456.54,271.35z"/>
	<path class="st5" d="M450.73,245.75c-0.01,0.44,0.35,0.8,0.79,0.81c0.44,0.01,0.8-0.35,0.81-0.79c0.01-0.44-0.35-0.8-0.79-0.81
		c0,0-0.01,0-0.01,0c-0.44-0.01-0.79,0.34-0.8,0.78C450.73,245.74,450.73,245.75,450.73,245.75z"/>
	<path class="st5" d="M450,244.88c0.11,0.11,0.7-0.39,1.56-0.44s1.5,0.37,1.59,0.25s-0.06-0.24-0.34-0.43
		c-0.38-0.25-0.83-0.37-1.29-0.34c-0.45,0.02-0.89,0.2-1.23,0.49C450,244.64,449.9,244.84,450,244.88z"/>
	<path class="st5" d="M460,245.75c-0.01,0.44,0.35,0.8,0.79,0.81c0.44,0.01,0.8-0.35,0.81-0.79c0.01-0.44-0.35-0.8-0.79-0.81
		c-0.01,0-0.01,0-0.02,0C460.35,244.96,460,245.31,460,245.75z"/>
	<path class="st5" d="M459.49,244.88c0.1,0.11,0.69-0.39,1.55-0.44s1.51,0.37,1.6,0.25s-0.06-0.24-0.35-0.43
		c-0.78-0.51-1.8-0.45-2.51,0.15C459.52,244.64,459.44,244.84,459.49,244.88z"/>
	<path class="st0" d="M459.23,253c-1.31,0.67-2.71,1.15-4.16,1.44c0.66,0.88,1.83,1.22,2.85,0.81c0.96-0.22,1.56-1.19,1.34-2.15
		C459.25,253.07,459.24,253.03,459.23,253z"/>
	<path class="st8" d="M456.15,262.81c2.97-0.12,5.84-1.09,8.27-2.79c0,0-1.87,4.58-8.13,4.32L456.15,262.81z"/>
	<path class="st4" d="M491.72,257.16c-0.78,0.03-1.56-0.15-2.26-0.51c-1.03-0.56-1.88-1.39-2.47-2.4c-0.73-1.26-1.34-2.58-1.84-3.95
		c-1.17-2.9-2-5.6-2.65-7.56c-0.09-0.31-0.18-0.59-0.26-0.86c-0.04-0.29-0.09-0.58-0.16-0.86c-3.41-13-14.85-15.44-17.11-15.44
		c-2.43,0-6.68-1.34-12.87,5.1c-0.94,0.96-1.73,2.05-2.35,3.24c-1.36,1.72-2.31,3.73-2.75,5.88c-0.27,1.01-0.32,2.06-0.14,3.09
		c0.12,0,0.14-1.17,0.62-3c0.29-1.06,0.69-2.09,1.2-3.07c-0.54,2.4-0.32,4.92,0.63,7.19l2.22-0.62l8-2.7
		c-0.73-2.46,0.34-5.52,0.94-7h0.06c1.82,9.34,12.11,10.32,12.11,10.32l-0.51,17.73c10.57-2.26,10.71-13.8,10.64-16.67
		c0.48,1.62,1.1,3.48,1.88,5.43c0.52,1.39,1.17,2.73,1.94,4c0.65,1.08,1.6,1.94,2.74,2.48c0.77,0.36,1.62,0.49,2.46,0.36
		c0.31-0.03,0.61-0.14,0.86-0.32C492.34,257.05,492.03,257.09,491.72,257.16z"/>
	<path class="st5" d="M456.39,252.15c-0.46-0.1-0.92-0.15-1.39-0.15c-0.22,0-0.44,0-0.48-0.2c-0.03-0.24,0.01-0.48,0.12-0.7
		c0.19-0.56,0.38-1.15,0.59-1.78c0.41-1.27,0.76-2.42,1-3.26c0.17-0.44,0.27-0.91,0.31-1.38c-0.23,0.42-0.42,0.86-0.54,1.32
		c-0.3,0.82-0.69,2-1.1,3.24l-0.57,1.79c-0.12,0.28-0.15,0.6-0.08,0.9c0.07,0.15,0.21,0.27,0.37,0.31c0.12,0.01,0.25,0.01,0.37,0
		C455.46,252.27,455.93,252.24,456.39,252.15z"/>
	<path class="st5" d="M470.9,247.07c-1.94-0.38-3.58-0.65-4.14-0.69c0.07-0.33,0.11-0.66,0.12-1c-0.01-1.08-0.36-2.13-1-3
		c-0.59-0.81-1.41-1.42-2.36-1.75c-0.85-0.3-1.76-0.37-2.65-0.2c-0.77,0.16-1.49,0.5-2.1,1c-0.89,0.69-1.52,1.67-1.77,2.77
		c-0.07,0.29-0.11,0.6-0.11,0.9c-0.02,0.1-0.02,0.21,0,0.31c0,0,0-0.43,0.22-1.17c0.29-1.05,0.92-1.97,1.79-2.62
		c0.59-0.44,1.27-0.74,2-0.87c2.58-0.47,5.04,1.24,5.51,3.82c0.23,1.27-0.07,2.58-0.83,3.63c-0.55,0.76-1.32,1.34-2.2,1.66
		c-0.79,0.29-1.65,0.37-2.48,0.22c-0.73-0.13-1.41-0.43-2-0.88c-0.87-0.64-1.5-1.56-1.79-2.61c-0.08-0.29-0.14-0.6-0.17-0.9
		c0.15,0,0.25-0.08,0.25-0.12s-0.12-0.1-0.29-0.13l0,0c-0.2-0.02-0.4-0.02-0.6,0c-0.24,0-0.48,0.03-0.72,0.08v-0.06
		c0-1.08-0.35-2.13-1-3c-0.59-0.81-1.41-1.42-2.35-1.75c-0.85-0.3-1.77-0.37-2.66-0.2c-1.91,0.39-3.41,1.84-3.87,3.73
		c-0.07,0.29-0.11,0.6-0.11,0.9c-0.02,0.1-0.02,0.21,0,0.31c0,0,0-0.43,0.22-1.17c0.29-1.05,0.92-1.97,1.79-2.62
		c0.59-0.44,1.27-0.74,2-0.87c2.58-0.47,5.04,1.24,5.51,3.81c0.05,0.28,0.08,0.56,0.08,0.85c0,1.99-1.24,3.76-3.1,4.45
		c-0.8,0.29-1.66,0.37-2.49,0.22c-0.73-0.13-1.41-0.43-2-0.88c-0.87-0.64-1.5-1.56-1.79-2.61c-0.2-0.74-0.18-1.18-0.22-1.18
		c-0.02,0.11-0.02,0.21,0,0.32c0,0.3,0.04,0.6,0.11,0.89c0.25,1.1,0.88,2.09,1.77,2.78c0.61,0.49,1.33,0.84,2.1,1
		c0.89,0.17,1.81,0.1,2.66-0.2c0.94-0.34,1.76-0.95,2.35-1.75c0.6-0.8,0.94-1.76,1-2.75c0.24,0.06,0.49,0.09,0.74,0.08
		c0.19,0.01,0.39,0.01,0.58,0l0,0c0,0.3,0.04,0.6,0.11,0.89c0.44,1.9,1.96,3.36,3.87,3.74c0.89,0.17,1.8,0.1,2.65-0.2
		c0.94-0.33,1.77-0.94,2.36-1.75c0.41-0.56,0.7-1.2,0.84-1.88c0.53,0.17,2.15,0.55,4.11,0.93c1.43,0.34,2.89,0.57,4.36,0.69
		C473.8,247.73,472.36,247.34,470.9,247.07z"/>
	<path class="st7" d="M474.22,251.89c-0.1-1.04,0.02-2.09,0.34-3.08c0.34-1.01,1.2-1.75,2.24-1.94c1.23-0.06,2.31,0.79,2.54,2
		c0.15,1.22-0.47,2.41-1.55,3c-1.08,0.56-2.36,0.6-3.47,0.1"/>
	<path class="st8" d="M476,251c0-0.07,0.34,0.08,0.78,0c0.56-0.2,0.94-0.73,0.93-1.33c0.06-0.3-0.03-0.6-0.22-0.83
		c-0.19-0.15-0.44-0.23-0.68-0.2c-0.47,0-0.8,0.16-0.82,0.08s0.21-0.29,0.77-0.44c0.35-0.09,0.71-0.01,1,0.2
		c0.33,0.32,0.49,0.77,0.43,1.23c-0.02,0.43-0.18,0.84-0.46,1.16c-0.24,0.27-0.56,0.45-0.92,0.49C476.27,251.35,476,251,476,251z"/>
	<path class="st4" d="M500.22,488.63l-7.53-5.11l9.49-14.16l11.09,7.36l-0.53,0.91c-2.4,4.06-12.49,20.44-15,22.53
		C494.88,502.48,500.22,488.63,500.22,488.63z"/>
	<path class="st5" d="M496.8,500c-0.14-0.09,3.33-5.44,7.75-11.94s8.1-11.71,8.24-11.62s-3.34,5.44-7.76,12S496.93,500.11,496.8,500
		z"/>
	<path class="st5" d="M501.59,489.92c0,0.16-0.47,0.25-1,0.29s-1,0-1.05-0.16s0.41-0.39,1-0.42S501.61,489.76,501.59,489.92z"/>
	<path class="st5" d="M501.48,491.16c0,0.16-0.55,0.18-1.16,0.14s-1.12-0.12-1.13-0.29s0.51-0.33,1.16-0.29
		S501.51,491,501.48,491.16z"/>
	<path class="st5" d="M509.85,480.68c-0.07,0-0.26-0.27-0.49-0.78c-0.31-0.68-0.49-1.42-0.53-2.17c-0.04-0.78,0.19-1.55,0.64-2.18
		c0.37-0.48,0.73-0.61,0.77-0.55s-0.19,0.31-0.43,0.77c-0.29,0.6-0.43,1.27-0.4,1.94c0.05,0.7,0.16,1.39,0.34,2.06
		C509.88,480.3,509.93,480.65,509.85,480.68z"/>
	<path class="st5" d="M500.15,489c-0.07-0.14,0.2-0.42,0.57-0.69s0.71-0.45,0.83-0.34s-0.07,0.5-0.49,0.81S500.21,489.15,500.15,489
		z"/>
	<path class="st5" d="M499.57,488.29c-0.13-0.1,0-0.55,0.34-1s0.69-0.75,0.82-0.67s0,0.53-0.34,1S499.69,488.39,499.57,488.29z"/>
	<path class="st4" d="M411.47,500.27v-9.1l17-0.11l0.14,13.32l-1.06,0.07c-4.7,0.29-23.92,1.15-27.08,0.22
		C397,503.63,411.47,500.27,411.47,500.27z"/>
	<path class="st5" d="M400.12,503.83c0-0.16,6.38-0.29,14.24-0.29s14.24,0.13,14.24,0.29s-6.37,0.3-14.24,0.3
		S400.12,504,400.12,503.83z"/>
	<path class="st5" d="M411.17,502.13c-0.14,0.08-0.47-0.25-0.81-0.69s-0.57-0.84-0.46-1s0.56,0.13,0.92,0.61
		S411.31,502.05,411.17,502.13z"/>
	<path class="st5" d="M410.08,502.73c-0.15,0.06-0.45-0.35-0.76-0.88s-0.53-1-0.4-1.1s0.56,0.24,0.9,0.81
		S410.23,502.67,410.08,502.73z"/>
	<path class="st5" d="M423.46,503.77c-0.06,0,0.08-0.37,0.37-0.84c0.39-0.64,0.9-1.2,1.49-1.66c0.63-0.47,1.39-0.71,2.17-0.7
		c0.6,0,0.92,0.27,0.89,0.33s-0.37,0-0.88,0.08c-0.66,0.1-1.29,0.36-1.83,0.76c-0.55,0.43-1.06,0.91-1.51,1.44
		C423.79,503.58,423.53,503.82,423.46,503.77z"/>
	<path class="st5" d="M411.12,500.42c0.08-0.14,0.47-0.07,0.89,0.08s0.78,0.34,0.75,0.5s-0.45,0.22-0.94,0.05
		S411,500.56,411.12,500.42z"/>
	<path class="st5" d="M411.39,499.54c0-0.16,0.47-0.29,1-0.28s1,0.15,1,0.31s-0.44,0.28-1,0.28S411.37,499.7,411.39,499.54z"/>
	<path class="st7" d="M454.47,290.15L436,284c0,0-8.15,23.48-10.65,23.71c-13.84,1.26-28.65-3.33-33.85-5.14
		c-0.52-0.59-1.12-1.3-1.79-2.17c-0.58-0.75-1.02-1.59-1.31-2.49c-0.4-1.1-0.65-2.25-0.74-3.42c0.06-0.6-0.38-1.13-0.98-1.19
		c-0.33-0.03-0.66,0.09-0.89,0.33c-0.59,0.78-0.75,3.74,0.62,6.94s-3.47,0.65-5.25-0.25s-7.41-3.4-8.12-3.07
		c-1,0.49-0.71,1.69,1.09,2.54s7,3.78,6.49,4.7s-9.51-3.77-9.51-3.77s-1.76-1.31-2.39-0.27c-1.14,1.87,8.78,6.14,9.74,6.52
		c0.66,0.26,0.14,1.28-0.56,1s-8.86-4.87-10.05-3c-0.9,1.45,8.14,3.58,9.31,5.46s-6.7-2.31-7.5-0.88c-0.3,0.53-0.46,1,4.4,2.72
		c3.57,1.11,7.19,2.02,10.86,2.73v0.05c0,0,48.55,21.71,59,0.79C455,293.64,454.47,290.15,454.47,290.15z"/>
	<path class="st6" d="M443.17,341.75c0,0-11.77,78.22-10.08,82s62.22,68,62.22,68l14.16-24.26c0,0-47.75-53.3-47.39-54.73
		s16.92-77.5,16.92-77.5L443.17,341.75z"/>
	<polygon class="st5" points="445.74,438.36 455.69,416.51 465.64,394.66 448.88,423.71 	"/>
	<path class="st5" d="M451.67,418.87c0.05,0.28,0.07,0.57,0.06,0.86c0,0.62,0,1.45,0.06,2.48v-0.08c3.79,4.28,12.19,14,21.89,25.36
		l16.85,19.86l5.06,6.07c0.56,0.68,1,1.24,1.35,1.66c0.17,0.18,0.32,0.39,0.44,0.61c-0.19-0.16-0.37-0.34-0.53-0.53l-1.43-1.6
		c-1.28-1.45-3-3.47-5.2-5.94l-17-19.75c-9.69-11.35-18-21.17-21.63-25.58l0,0l0,0c0-1,0-1.86,0.05-2.48
		C451.61,419.5,451.62,419.18,451.67,418.87z"/>
	<path class="st5" d="M504.93,462.47c0.14,0.09-3.17,5.34-7.38,11.72s-7.73,11.49-7.86,11.4s3.17-5.34,7.38-11.72
		S504.8,462.38,504.93,462.47z"/>
	<path class="st5" d="M438.91,371.13c0.11-0.82,9.51-22,9.51-22l-4.56-6.43l-0.81-0.18L438.91,371.13z"/>
	<path class="st6" d="M452.39,341l-9.34,1.56l5.37,6.61c-8.67,19.62-26.58,61.16-28.73,74.55c-2.86,17.74-13.63,73.15-12.55,74
		s25.91,0,25.91,0l15.83-74l35-60.62c4.35-7.55,5.63-16.49,3.55-24.95l-0.7-2.88"/>
	<path class="st5" d="M424.41,489.5c0.01-0.14,0.02-0.27,0.05-0.41c0-0.3,0.1-0.7,0.18-1.21l0.77-4.63c0.71-4.05,1.72-9.86,3-17
		s2.81-15.73,4.5-25.21c0.88-4.74,1.8-9.72,2.75-14.88c0.24-1.28,0.5-2.58,0.75-3.89c0.13-0.66,0.25-1.31,0.4-2
		c0.08-0.33,0.14-0.67,0.24-1l0.37-1c1-2.54,2.14-5,3.26-7.59c9.05-20.33,17.47-38.63,23.56-51.87l7.27-15.67
		c0.85-1.82,1.53-3.24,2-4.24c0.22-0.46,0.4-0.83,0.54-1.1c0.05-0.13,0.12-0.25,0.2-0.37l-0.15,0.4l-0.48,1.12l-1.91,4.29
		c-1.71,3.76-4.15,9.16-7.13,15.76c-6,13.29-14.36,31.61-23.4,51.94c-1.12,2.54-2.25,5.06-3.25,7.55l-0.36,0.92
		c-0.1,0.32-0.15,0.65-0.23,1c-0.15,0.64-0.27,1.31-0.41,2c-0.25,1.31-0.5,2.61-0.75,3.89c-1,5.15-1.89,10.13-2.78,14.86
		c-1.74,9.48-3.31,18-4.63,25.19s-2.39,12.94-3.13,17c-0.38,2-0.68,3.52-0.88,4.61c-0.11,0.5-0.19,0.9-0.25,1.2
		C424.49,489.28,424.46,489.39,424.41,489.5z"/>
	<path class="st5" d="M434.53,490.6c0,0.16-6,0.18-13.31,0s-13.31-0.37-13.31-0.53s6-0.18,13.32-0.05S434.54,490.44,434.53,490.6z"
		/>
	<polygon class="st5" points="443.05,342.55 443.41,343.4 488.28,339.77 486.7,335.26 	"/>
	<path class="st5" d="M461.58,269.45l-3,12.12l-0.11-8.72l0.23-1.93l0.27-1.47l-4-1.35l-2.06,3.21h-0.6c0,0-16.15-1.61-21.8,19.73
		l-5.17,12.65l15.65,7.8v1l1,30.19l45.2-7.32c0.18-6.78-6.74-19.06-5.21-25.2l5.21-21l-6.83-19.57l-4.73,0.15l0,0l-2.63-3.11
		l-11.37,2.82"/>
	<path class="st6" d="M441.27,311.31c-0.36-0.1-0.7-0.27-1-0.51c-0.83-0.57-1.54-1.31-2.09-2.16c-0.83-1.28-1.2-2.79-1.07-4.31
		c0.08-1.85,0.69-3.65,1.76-5.16c0.83-1.19,1.93-2.17,3.2-2.86l-0.14,0.18c0.38-2.77,0.72-5.15,1-6.84c0.1-0.9,0.26-1.79,0.5-2.67
		c0,0.91-0.07,1.82-0.2,2.72c-0.17,1.69-0.44,4.09-0.78,6.86v0.12l-0.12,0.07c-2.76,1.57-4.53,4.44-4.7,7.61
		c-0.15,1.42,0.16,2.86,0.9,4.09c0.5,0.83,1.14,1.57,1.9,2.18C441,311.07,441.28,311.27,441.27,311.31z"/>
	<path class="st6" d="M443,291c-0.13,0.06-0.57-0.58-1-1.44s-0.66-1.61-0.53-1.67s0.57,0.58,1,1.44S443.1,290.88,443,291z"/>
	<path class="st4" d="M396.76,282.42l142.18,27.31c10.14,1.95,16.52,11.21,15.37,21.76c-0.02,0.15-0.04,0.3-0.08,0.44
		c-1.97,10.39-11.99,17.22-22.38,15.24c-0.09-0.02-0.18-0.04-0.28-0.05L392.23,319l-30.73-24.56L396.76,282.42z"/>
	<path class="st3" d="M396.76,282.42c0,0,7.76,2.91,6.16,10.35s-9.11,7.13-9.11,7.13s7.3,1.62,5.28,12.05
		c-1.31,6.72-6.86,7.07-6.86,7.07l-30.73-24.58L396.76,282.42z"/>
	<path class="st6" d="M368.18,299.78c3-1.49,4.05-5.46,3-8.63l-9.65,3.29L368.18,299.78z"/>
	<path class="st6" d="M537,328.92l-0.37-0.05l-1.1-0.18l-4.19-0.75c-3.64-0.66-8.89-1.65-15.39-2.9c-13-2.5-30.89-6.09-50.65-10.17
		l-50.58-10.52l-15.33-3.21l-4.16-0.89l-1.08-0.25c-0.13-0.02-0.25-0.05-0.37-0.1c0.13,0,0.26,0.02,0.38,0.05l1.09,0.19l4.18,0.8
		l15.39,3.06l50.62,10.37c19.75,4.08,37.65,7.73,50.62,10.32l15.35,3.06l4.17,0.85l1.09,0.23
		C536.78,328.85,536.89,328.88,537,328.92z"/>
	<path class="st6" d="M531.57,347.12c10.36,2.12,20.48-4.55,22.61-14.91c0.02-0.09,0.04-0.18,0.05-0.28
		c0.04-0.14,0.06-0.29,0.08-0.44c1.15-10.55-5.23-19.81-15.37-21.76L531.57,347.12z"/>
	<path class="st7" d="M475.06,288.11c0,0-8.65,27.29-11.06,27.89c-13.48,3.44-28.83,1.25-34.24,0.28c-0.61-0.5-1.33-1.12-2.12-1.86
		c-0.68-0.65-1.25-1.41-1.68-2.25c-0.57-1.02-1-2.12-1.27-3.26c-0.03-0.6-0.54-1.07-1.14-1.04c-0.35,0.02-0.67,0.2-0.86,0.49
		c-0.47,0.86-0.15,3.81,1.7,6.75c0,0-10.84,6.88-13.21,6.82s-9.16-0.23-8.45,0.71s8.45,2.23,8.45,2.23l14,4.75
		c0,0,51.36,13.82,58.39-8.5c4.3-13.68,7.28-21.73,7.95-25L475.06,288.11z"/>
	<path class="st5" d="M480.43,269.63c0,0,11.3,2,11.74,20.5c0.21,11.25-2.22,22.39-7.08,32.54l-19.88-10.44
		c4.46-8.94,7.82-18.38,10-28.13l5.16-14.48L480.43,269.63z"/>
	<path class="st6" d="M474.63,285.13c0,0.38-0.04,0.77-0.13,1.14c-0.11,0.72-0.3,1.76-0.58,3c-0.73,3.33-1.66,6.61-2.77,9.83
		c-1.12,3.22-2.42,6.37-3.91,9.44c-0.57,1.18-1.06,2.12-1.42,2.75c-0.16,0.35-0.36,0.69-0.6,1c0.09-0.37,0.23-0.73,0.42-1.06
		c0.34-0.77,0.77-1.71,1.27-2.81c1.06-2.38,2.44-5.71,3.75-9.46s2.26-7.22,2.9-9.75c0.29-1.18,0.54-2.18,0.75-3
		C474.37,285.84,474.48,285.48,474.63,285.13z"/>
</g>
</svg>
